<!DOCTYPE svg PUBLIC "-//W3C//DTD SVG 1.1//EN" "http://www.w3.org/Graphics/SVG/1.1/DTD/svg11.dtd">
<!-- Uploaded to: SVG Repo, www.svgrepo.com, Transformed by: SVG Repo Mixer Tools -->
<svg height="256px" width="256px" version="1.1" id="Layer_1" xmlns="http://www.w3.org/2000/svg" xmlns:xlink="http://www.w3.org/1999/xlink" viewBox="-51.2 -51.2 614.40 614.40" xml:space="preserve" fill="#0000ff" stroke="#0000ff" stroke-width="0.00512" transform="matrix(-1, 0, 0, 1, 0, 0)rotate(0)">
<g id="SVGRepo_bgCarrier" stroke-width="0"/>
<g id="SVGRepo_tracerCarrier" stroke-linecap="round" stroke-linejoin="round"/>
<g id="SVGRepo_iconCarrier"> <path style="fill:#ff0000;" d="M450.207,317.793C450.207,425.05,363.256,512,256,512c-107.257,0-194.207-86.95-194.207-194.207 C61.793,176.552,256,0,256,0S450.207,176.552,450.207,317.793z"/> <path style="fill:#ff0000;" d="M450.207,317.793C450.207,425.05,363.256,512,256,512c0-211.862,0-512,0-512 S450.207,176.552,450.207,317.793z"/> <polygon style="fill:#FFFFFF;" points="336.92,285.425 288.368,285.425 288.368,236.873 223.632,236.873 223.632,285.425 175.08,285.425 175.08,350.161 223.632,350.161 223.632,398.712 288.368,398.712 288.368,350.161 336.92,350.161 "/> </g>
</svg>