<?xml version="1.0" encoding="utf-8"?>
<!-- Generator: Adobe Illustrator 27.5.0, SVG Export Plug-In . SVG Version: 6.00 Build 0)  -->
<svg version="1.1" id="_x3C_Layer_x3E_" xmlns="http://www.w3.org/2000/svg" xmlns:xlink="http://www.w3.org/1999/xlink" x="0px"
	 y="0px" viewBox="0 0 2760 1840" style="enable-background:new 0 0 2760 1840;" xml:space="preserve">
<rect style="fill:none;" width="2760" height="1840"/>
<g>
	<path style="opacity:0.2;fill:#ABC7F2;" d="M292.88,1530.587h2290.2c0,0,291.35-796.865-469.24-605.337
		c-560.435,141.127-743.454-539.523-1327.25-472.275C302.394,508.75,501.384,955.188,344.732,939.198
		C-19.786,901.99,138.076,1478.28,292.88,1530.587z"/>
	<g>
		<g>
			<path style="fill:#ABC7F2;" d="M1513.75,1100.48c0,2.016-0.305,3.972-0.855,5.805c-0.965,3.177-2.701,6.012-4.986,8.309
				c-3.617,3.605-8.603,5.841-14.114,5.841h-116.261c-9.287,0-17.096-6.342-19.32-14.933c-0.416-1.601-0.635-3.287-0.635-5.022
				c0-5.511,2.236-10.497,5.841-14.102c3.617-3.605,8.603-5.841,14.114-5.841h116.261
				C1504.818,1080.537,1513.75,1089.47,1513.75,1100.48z"/>
			<path style="fill:#ABC7F2;" d="M1560.125,1082.969c-1.527,2.151-7.796,4.949-7.796,8.786l0.269,14.847l0.036,1.748
				c0,2.75,4.839,5.548,5.646,7.564c0.868,2.126-0.55,4.533-2.676,4.533h-71.059c-0.11,0-0.232,0-0.342-0.012
				c-6.183-0.159-11.34-4.912-12.745-11.279c-0.257-1.124-0.391-2.31-0.391-3.532v-10.277c0-8.187,6.037-14.811,13.479-14.811
				h74.481C1560.162,1080.537,1560.822,1081.967,1560.125,1082.969z"/>
			<path style="fill:#94AAE6;" d="M1555.604,1120.448h-71.059c-0.11,0-0.232,0-0.342-0.012h-106.668
				c-9.287,0-17.096-6.342-19.32-14.933c0,0,10.301,6.135,38.713,7.051c28.155,0.904,62.615,1.197,74.53-3.397
				c0.11-0.037,0.208-0.086,0.318-0.122c4.741-1.931,22.179-2.615,41.12-2.75c13.894-0.098,28.595,0.098,39.703,0.318l0.036,1.748
				c0,2.75,4.839,5.548,5.646,7.564C1559.148,1118.041,1557.73,1120.448,1555.604,1120.448z"/>
			<path style="fill:none;" d="M1555.653,1093.32v14.334c0,1.185,0.171,2.322,0.452,3.373c0.293,1.124,0.709,2.151,1.149,3.067
				c0.904,1.882-0.586,3.996-2.823,3.996h-74.86c-7.845,0-14.212-5.854-14.212-13.075v-9.214
				c0.086-7.137,6.403-12.904,14.212-12.904h78.453c1.21,0,1.894,1.259,1.161,2.139
				C1557.584,1086.941,1555.653,1089.947,1555.653,1093.32z"/>
			<path style="opacity:0.2;fill:#B2D0F6;" d="M1554.431,1118.09h-74.86c-7.845,0-14.212-5.854-14.212-13.075v-9.214
				c4.595,4.57,15.055,12.024,35.743,14.31c18.794,2.065,40.827,1.589,55.002,0.917c0.293,1.124,0.709,2.151,1.149,3.067
				C1558.158,1115.975,1556.667,1118.09,1554.431,1118.09z"/>
		</g>
		<g>
			<path style="fill:#ABC7F2;" d="M1485.368,1041.766c0,1.363-0.207,2.685-0.578,3.924c-0.652,2.148-1.826,4.064-3.37,5.617
				c-2.445,2.437-5.815,3.949-9.541,3.949h-78.591c-6.278,0-11.557-4.287-13.06-10.094c-0.281-1.082-0.429-2.222-0.429-3.395
				c0-3.725,1.512-7.096,3.948-9.533c2.445-2.437,5.815-3.949,9.541-3.949h78.591
				C1479.33,1028.285,1485.368,1034.323,1485.368,1041.766z"/>
			<path style="fill:#ABC7F2;" d="M1516.717,1029.929c-1.033,1.454-5.27,3.345-5.27,5.939l0.182,10.037l0.025,1.181
				c0,1.859,3.271,3.75,3.817,5.113c0.586,1.437-0.372,3.065-1.809,3.065h-48.035c-0.074,0-0.157,0-0.231-0.008
				c-4.18-0.107-7.666-3.321-8.616-7.625c-0.173-0.76-0.264-1.561-0.264-2.387v-6.947c0-5.535,4.081-10.012,9.112-10.012h50.348
				C1516.742,1028.285,1517.188,1029.251,1516.717,1029.929z"/>
			<path style="fill:#9CBDE8;" d="M1513.661,1055.264h-48.035c-0.074,0-0.157,0-0.231-0.008h-72.107
				c-6.278,0-11.557-4.287-13.06-10.094c0,0,6.964,4.147,26.17,4.766c19.032,0.611,42.327,0.81,50.381-2.297
				c0.074-0.025,0.14-0.058,0.215-0.083c3.205-1.305,14.993-1.768,27.797-1.859c9.392-0.066,19.33,0.066,26.839,0.215l0.025,1.181
				c0,1.859,3.271,3.75,3.817,5.113C1516.056,1053.637,1515.098,1055.264,1513.661,1055.264z"/>
			<path style="fill:none;" d="M1513.694,1036.925v9.69c0,0.801,0.116,1.569,0.306,2.28c0.198,0.76,0.479,1.454,0.776,2.073
				c0.611,1.272-0.397,2.701-1.908,2.701h-50.604c-5.303,0-9.607-3.957-9.607-8.839v-6.228c0.058-4.824,4.329-8.723,9.607-8.723
				h53.033c0.818,0,1.28,0.851,0.785,1.446C1514.999,1032.613,1513.694,1034.646,1513.694,1036.925z"/>
			<path style="opacity:0.2;fill:#B2D0F6;" d="M1512.868,1053.67h-50.604c-5.303,0-9.607-3.957-9.607-8.839v-6.228
				c3.106,3.089,10.177,8.128,24.162,9.673c12.705,1.396,27.599,1.074,37.181,0.62c0.198,0.76,0.479,1.454,0.776,2.073
				C1515.387,1052.241,1514.379,1053.67,1512.868,1053.67z"/>
		</g>
		<g>
			<path style="fill:#94AAE6;" d="M1499.212,1067.872c0,1.279-0.228,2.519-0.638,3.682c-0.72,2.015-2.014,3.814-3.718,5.271
				c-2.698,2.287-6.416,3.705-10.526,3.705h-86.705c-6.926,0-12.75-4.023-14.408-9.472c-0.31-1.016-0.474-2.085-0.474-3.186
				c0-3.496,1.668-6.658,4.356-8.945c2.698-2.287,6.416-3.705,10.526-3.705h86.705
				C1492.55,1055.222,1499.212,1060.888,1499.212,1067.872z"/>
			<path style="fill:#94AAE6;" d="M1533.798,1056.764c-1.139,1.364-5.814,3.139-5.814,5.573l0.201,9.418l0.027,1.109
				c0,1.744,3.609,3.519,4.211,4.798c0.647,1.349-0.41,2.876-1.996,2.876h-52.995c-0.082,0-0.173,0-0.255-0.008
				c-4.611-0.101-8.457-3.116-9.505-7.155c-0.191-0.713-0.292-1.465-0.292-2.24v-6.519c0-5.193,4.502-9.395,10.052-9.395h55.546
				C1533.825,1055.222,1534.317,1056.129,1533.798,1056.764z"/>
			<path style="fill:#7A94D2;" d="M1530.426,1080.537h-52.995c-0.082,0-0.173,0-0.255-0.008h-79.551
				c-6.926,0-12.75-4.023-14.408-9.472c0,0,7.682,3.891,28.871,4.472c20.997,0.574,46.697,0.76,55.583-2.155
				c0.082-0.023,0.155-0.054,0.237-0.077c3.536-1.225,16.541-1.659,30.667-1.744c10.362-0.062,21.325,0.062,29.609,0.202
				l0.027,1.109c0,1.744,3.609,3.519,4.211,4.798C1533.069,1079.01,1532.011,1080.537,1530.426,1080.537z"/>
			<path style="fill:none;" d="M1530.462,1063.33v9.092c0,0.752,0.128,1.473,0.337,2.139c0.219,0.713,0.529,1.364,0.857,1.946
				c0.674,1.194-0.437,2.535-2.105,2.535h-55.829c-5.851,0-10.599-3.713-10.599-8.294v-5.844c0.064-4.527,4.775-8.185,10.599-8.185
				h58.508c0.902,0,1.412,0.798,0.866,1.357C1531.902,1059.283,1530.462,1061.19,1530.462,1063.33z"/>
			<path style="opacity:0.2;fill:#B2D0F6;" d="M1529.551,1079.042h-55.829c-5.851,0-10.599-3.713-10.599-8.294v-5.844
				c3.427,2.899,11.228,7.627,26.657,9.077c14.016,1.31,30.448,1.008,41.02,0.581c0.219,0.713,0.529,1.364,0.857,1.946
				C1532.33,1077.701,1531.219,1079.042,1529.551,1079.042z"/>
		</g>
	</g>
	<g>
		<rect x="1341.209" y="1120.308" style="opacity:0.4;fill:#ABC7F2;" width="339.94" height="410.279"/>
		<rect x="1333.579" y="1120.308" style="fill:#ABC7F2;" width="353.099" height="10.629"/>
		<g>
			<path style="fill:#ABC7F2;" d="M1668.944,1261.087h-320.051v-119.685h320.051V1261.087z M1350.68,1259.271h316.479v-116.054
				H1350.68V1259.271z"/>
		</g>
		<g>
			<path style="fill:#ABC7F2;" d="M1668.944,1390.327h-320.051v-119.684h320.051V1390.327z M1350.68,1388.511h316.479v-116.053
				H1350.68V1388.511z"/>
		</g>
		<g>
			<path style="fill:#ABC7F2;" d="M1668.944,1519.568h-320.051v-119.684h320.051V1519.568z M1350.68,1517.752h316.479v-116.053
				H1350.68V1517.752z"/>
		</g>
		<g>
			<path style="fill:#ABC7F2;" d="M1518.223,1165.133h-18.607c-2.955,0-5.359-2.444-5.359-5.448c0-3.005,2.404-5.449,5.359-5.449
				h18.607c2.955,0,5.359,2.444,5.359,5.449C1523.582,1162.689,1521.178,1165.133,1518.223,1165.133z M1499.616,1156.052
				c-1.97,0-3.573,1.63-3.573,3.633c0,2.003,1.604,3.632,3.573,3.632h18.607c1.97,0,3.573-1.63,3.573-3.632
				c0-2.003-1.604-3.633-3.573-3.633H1499.616z"/>
		</g>
		<g>
			<path style="fill:#ABC7F2;" d="M1518.223,1290.927h-18.607c-2.955,0-5.359-2.444-5.359-5.448c0-3.005,2.404-5.449,5.359-5.449
				h18.607c2.955,0,5.359,2.444,5.359,5.449C1523.582,1288.483,1521.178,1290.927,1518.223,1290.927z M1499.616,1281.847
				c-1.97,0-3.573,1.63-3.573,3.633c0,2.003,1.604,3.632,3.573,3.632h18.607c1.97,0,3.573-1.629,3.573-3.632
				c0-2.003-1.604-3.633-3.573-3.633H1499.616z"/>
		</g>
		<g>
			<path style="fill:#ABC7F2;" d="M1518.223,1424.67h-18.607c-2.955,0-5.359-2.444-5.359-5.448c0-3.004,2.404-5.448,5.359-5.448
				h18.607c2.955,0,5.359,2.444,5.359,5.448C1523.582,1422.226,1521.178,1424.67,1518.223,1424.67z M1499.616,1415.59
				c-1.97,0-3.573,1.629-3.573,3.632c0,2.003,1.604,3.632,3.573,3.632h18.607c1.97,0,3.573-1.629,3.573-3.632
				c0-2.003-1.604-3.632-3.573-3.632H1499.616z"/>
		</g>
	</g>
	<g style="opacity:0.7;">
		<g>
			<path style="fill:#79A671;" d="M526.94,1351.922c0,0,60.002-42.379,50.951-86.85c-9.051-44.471-34.784-35.821-33.553-68.933
				c1.232-33.112-29.284-47.215-51.663-46.922c-22.38,0.293-48.102-46.55-75.829-35.245c-27.727,11.305,13.037,43.783,4.282,63.285
				c-8.755,19.502-7.149,43.233,20.308,60.334C468.893,1254.692,414.585,1312.119,526.94,1351.922z"/>
			<g>
				<path style="fill:#288B54;" d="M416.009,1115.535c13.049,9.703,24.796,21.182,35.547,33.351
					c14.758,16.704,27.658,35.072,38.341,54.635c11.137,20.393,19.836,42.071,25.43,64.632c5.215,21.035,8.49,42.61,10.122,64.213
					c1.471,19.467,1.962,39.608-1.7,58.876c-0.383,2.017-0.831,4.02-1.343,6.008c-0.171,0.666,0.846,1.02,1.019,0.347
					c4.698-18.248,4.612-37.783,3.651-56.472c-1.133-22.029-4.106-44.036-8.904-65.567c-5.001-22.443-12.729-44.049-23.129-64.569
					c-10.33-20.382-23.052-39.568-37.737-57.073c-11.07-13.196-23.269-25.617-36.807-36.296c-1.281-1.01-2.576-2.001-3.885-2.975
					C416.058,1114.232,415.454,1115.122,416.009,1115.535L416.009,1115.535z"/>
			</g>
			<g>
				<path style="fill:#288B54;" d="M571.63,1247.631c-6.792,25.977-28.467,43.487-48.612,59.385
					c-0.167,0.132,0.047,0.383,0.214,0.252c20.186-15.93,41.906-33.501,48.711-59.531
					C571.996,1247.533,571.684,1247.425,571.63,1247.631L571.63,1247.631z"/>
			</g>
			<g>
				<path style="fill:#288B54;" d="M518.825,1280.952c-12.522-0.332-24.753-4.099-36.12-9.175
					c-11.551-5.159-22.449-11.806-32.496-19.481c-0.169-0.129-0.354,0.144-0.186,0.273c10.072,7.693,20.997,14.349,32.576,19.52
					c11.39,5.087,23.656,8.86,36.204,9.192C519.015,1281.287,519.039,1280.958,518.825,1280.952L518.825,1280.952z"/>
			</g>
			<g>
				<path style="fill:#288B54;" d="M500.242,1149.395c2.094,18.202-2.362,36.842-10.395,53.15c-0.094,0.19,0.22,0.295,0.313,0.107
					c8.058-16.36,12.507-35.061,10.406-53.319C500.542,1149.122,500.218,1149.185,500.242,1149.395L500.242,1149.395z"/>
			</g>
			<g>
				<path style="fill:#288B54;" d="M511.465,1152.507c0.546,10.808-0.353,21.661-2.746,32.218
					c-2.335,10.298-5.681,20.769-13.186,28.529c-0.147,0.152,0.066,0.404,0.214,0.252c7.405-7.657,10.771-17.865,13.135-28.021
					c2.511-10.79,3.472-21.893,2.913-32.954C511.784,1152.32,511.454,1152.294,511.465,1152.507L511.465,1152.507z"/>
			</g>
			<g>
				<path style="fill:#288B54;" d="M507.207,1240.6c-27.188-2.356-53.493-13.949-74.092-31.768
					c-5.913-5.115-11.336-10.771-16.18-16.908c-0.132-0.167-0.383,0.047-0.252,0.214c17.077,21.634,41.512,37.349,68.014,44.719
					c7.354,2.045,14.882,3.414,22.487,4.073C507.396,1240.948,507.419,1240.618,507.207,1240.6L507.207,1240.6z"/>
			</g>
			<g>
				<path style="fill:#288B54;" d="M502.517,1229.832c-25.481-3.74-49.201-16.515-68.134-33.72
					c-5.24-4.762-10.114-9.913-14.594-15.395c-0.135-0.165-0.386,0.049-0.252,0.214c16.271,19.905,38.072,35.805,62.441,44.211
					c6.671,2.301,13.534,3.994,20.516,5.019C502.704,1230.192,502.726,1229.863,502.517,1229.832L502.517,1229.832z"/>
			</g>
			<g>
				<path style="fill:#288B54;" d="M466.507,1135.95c0.862,8.021-1.58,16.455-5.487,23.417c-0.103,0.184,0.169,0.371,0.273,0.186
					c3.952-7.04,6.411-15.551,5.539-23.664C466.808,1135.677,466.484,1135.74,466.507,1135.95L466.507,1135.95z"/>
			</g>
			<g>
				<path style="fill:#288B54;" d="M444.442,1140.086c-11.499,3.297-23.968,1.937-34.476-3.784
					c-0.185-0.101-0.373,0.171-0.186,0.273c10.584,5.763,23.136,7.158,34.723,3.835
					C444.706,1140.352,444.646,1140.027,444.442,1140.086L444.442,1140.086z"/>
			</g>
			<g>
				<path style="fill:#288B54;" d="M548.907,1216.686c-5.123,8.406-9.731,17.107-14.67,25.62
					c-4.747,8.181-10.82,15.846-19.381,20.24c-0.189,0.097-0.047,0.395,0.142,0.298c8.196-4.207,14.183-11.413,18.839-19.207
					c5.275-8.829,9.988-17.98,15.343-26.765C549.29,1216.69,549.018,1216.504,548.907,1216.686L548.907,1216.686z"/>
			</g>
			<g>
				<path style="fill:#288B54;" d="M453.588,1292.314c14.769,15.403,34.856,25.365,54.752,32.391
					c5.718,2.019,11.522,3.782,17.393,5.298c0.204,0.053,0.313-0.259,0.107-0.313c-13.114-3.386-25.952-7.994-38.118-13.962
					c-12.376-6.072-24.296-13.63-33.882-23.628C453.693,1291.947,453.441,1292.161,453.588,1292.314L453.588,1292.314z"/>
			</g>
		</g>
		<g>
			<path style="fill:#84B884;" d="M415.53,1238.855c-4.754-5.116-7.173-5.072-9.429-3.235c-2.256,1.837-3.2,4.834-0.527,8.737
				c6.466,9.444,18.418,16.326,19.934,15.09C426.61,1258.55,422.148,1245.977,415.53,1238.855z"/>
			<g>
				<path style="fill:#288B54;" d="M426.694,1260.534c-8.209-6.687-12.584-16.953-21.053-23.368
					c-0.081-0.061,0.029-0.175,0.11-0.114c8.47,6.416,12.845,16.682,21.053,23.368
					C426.883,1260.484,426.773,1260.598,426.694,1260.534L426.694,1260.534z"/>
			</g>
			<g>
				<path style="fill:#288B54;" d="M415.268,1247.67c1.484-1.575,2.448-3.928,2.424-6.099c-0.001-0.102,0.157-0.107,0.158-0.005
					c0.024,2.21-0.957,4.609-2.468,6.214C415.312,1247.854,415.198,1247.745,415.268,1247.67L415.268,1247.67z"/>
			</g>
			<g>
				<path style="fill:#288B54;" d="M412.443,1243.944c-2.402,0.572-4.991,0.325-7.339-0.38c-0.097-0.029-0.062-0.184,0.036-0.154
					c2.324,0.698,4.879,0.949,7.258,0.383C412.497,1243.768,412.543,1243.92,412.443,1243.944L412.443,1243.944z"/>
			</g>
			<g>
				<path style="fill:#288B54;" d="M416.71,1240.294c-0.275,2.268-0.998,4.349-2.186,6.299c-0.053,0.087-0.192,0.012-0.139-0.076
					c1.177-1.932,1.899-4.016,2.171-6.259C416.568,1240.157,416.722,1240.194,416.71,1240.294L416.71,1240.294z"/>
			</g>
		</g>
		<g>
			<path style="fill:#8CB685;" d="M560.709,1361.61c0,0-37.682-37.427-25.883-68.044c11.799-30.617,29.106-21.356,32.208-45.111
				c3.103-23.755,26.554-30.141,42.474-27.241c15.92,2.9,39.89-27.404,58.298-16.01s-14.559,29.647-10.662,44.603
				c3.897,14.956-0.101,31.682-21.732,40.572C613.782,1299.271,645.595,1346.741,560.709,1361.61z"/>
			<g>
				<path style="fill:#288B54;" d="M668.215,1206.42c-10.469,5.349-20.224,12.12-29.352,19.503
					c-12.53,10.135-23.935,21.679-33.903,34.342c-10.391,13.2-19.2,27.609-25.9,43.021c-6.247,14.369-11.175,29.357-14.937,44.563
					c-3.389,13.702-6.161,28.002-5.867,42.179c0.031,1.484,0.109,2.966,0.235,4.444c0.042,0.495-0.726,0.626-0.768,0.125
					c-1.156-13.574,1.254-27.491,4.186-40.699c3.456-15.569,8.222-30.901,14.231-45.674c6.264-15.399,14.371-29.874,24.252-43.252
					c9.815-13.289,21.192-25.438,33.765-36.152c9.478-8.077,19.669-15.465,30.605-21.452c1.035-0.566,2.077-1.117,3.127-1.654
					C668.336,1205.484,668.66,1206.192,668.215,1206.42L668.215,1206.42z"/>
			</g>
			<g>
				<path style="fill:#288B54;" d="M541.386,1281.885c1.719,19.336,15.066,34.426,27.518,48.182c0.103,0.114-0.08,0.267-0.183,0.154
					c-12.476-13.784-25.848-28.922-27.57-48.298C541.137,1281.771,541.372,1281.732,541.386,1281.885L541.386,1281.885z"/>
			</g>
			<g>
				<path style="fill:#288B54;" d="M575.026,1311.989c8.968,1.269,18.14,0.054,26.854-2.199c8.855-2.289,17.424-5.718,25.51-9.981
					c0.136-0.072,0.235,0.146,0.099,0.217c-8.105,4.274-16.694,7.705-25.571,10c-8.732,2.258-17.93,3.473-26.916,2.201
					C574.851,1312.205,574.873,1311.968,575.026,1311.989L575.026,1311.989z"/>
			</g>
			<g>
				<path style="fill:#288B54;" d="M604.091,1220.432c-3.682,12.725-2.746,26.55,1.021,39.142c0.044,0.147-0.192,0.184-0.236,0.038
					c-3.778-12.632-4.701-26.5-1.009-39.264C603.91,1220.202,604.134,1220.285,604.091,1220.432L604.091,1220.432z"/>
			</g>
			<g>
				<path style="fill:#288B54;" d="M595.716,1221.302c-1.689,7.639-2.353,15.485-1.916,23.299c0.427,7.622,1.553,15.49,5.971,21.925
					c0.086,0.126-0.096,0.28-0.183,0.154c-4.359-6.349-5.531-14.031-5.995-21.556c-0.493-7.994,0.157-16.026,1.885-23.844
					C595.511,1221.13,595.749,1221.151,595.716,1221.302L595.716,1221.302z"/>
			</g>
			<g>
				<path style="fill:#288B54;" d="M588.16,1284.618c19.666,1.589,39.814-3.513,56.642-13.741
					c4.831-2.936,9.377-6.317,13.568-10.109c0.114-0.103,0.268,0.08,0.154,0.183c-14.776,13.37-34.086,21.637-53.865,23.705
					c-5.489,0.574-11.021,0.645-16.521,0.2C587.984,1284.843,588.007,1284.605,588.16,1284.618L588.16,1284.618z"/>
			</g>
			<g>
				<path style="fill:#288B54;" d="M592.799,1277.505c18.616,0.397,37.063-5.858,52.629-15.849
					c4.308-2.765,8.402-5.852,12.255-9.221c0.116-0.101,0.269,0.082,0.154,0.183c-13.993,12.234-31.447,20.949-49.831,24.012
					c-5.032,0.839-10.129,1.22-15.23,1.112C592.622,1277.739,592.646,1277.502,592.799,1277.505L592.799,1277.505z"/>
			</g>
			<g>
				<path style="fill:#288B54;" d="M629.759,1214.903c-1.579,5.615-0.852,11.921,1.097,17.354c0.052,0.144-0.165,0.244-0.217,0.099
					c-1.971-5.494-2.701-11.857-1.104-17.537C629.577,1214.672,629.8,1214.756,629.759,1214.903L629.759,1214.903z"/>
			</g>
			<g>
				<path style="fill:#288B54;" d="M644.992,1220.504c7.801,3.733,16.855,4.263,25.034,1.447c0.144-0.05,0.245,0.167,0.1,0.217
					c-8.239,2.836-17.355,2.322-25.217-1.44C644.772,1220.662,644.854,1220.438,644.992,1220.504L644.992,1220.504z"/>
			</g>
			<g>
				<path style="fill:#288B54;" d="M561.306,1262.555c2.642,6.609,4.881,13.366,7.379,20.029c2.401,6.404,5.808,12.598,11.384,16.76
					c0.123,0.092-0.014,0.287-0.137,0.196c-5.338-3.985-8.739-9.842-11.122-15.958c-2.699-6.929-4.959-14.02-7.72-20.926
					C561.033,1262.513,561.249,1262.412,561.306,1262.555L561.306,1262.555z"/>
			</g>
			<g>
				<path style="fill:#288B54;" d="M620.17,1327.933c-12.381,9.206-27.899,13.893-42.929,16.51
					c-4.319,0.752-8.669,1.311-13.037,1.686c-0.152,0.013-0.192-0.223-0.038-0.236c9.756-0.838,19.463-2.579,28.854-5.371
					c9.553-2.841,18.96-6.796,26.996-12.772C620.139,1327.659,620.293,1327.841,620.17,1327.933L620.17,1327.933z"/>
			</g>
		</g>
		<g>
			<path style="fill:#A1C58E;" d="M492.993,1350.435c0,0,16.492-29.53,3.89-46.199c-12.601-16.669-21.568-7.96-27.641-21.956
				c-6.073-13.996-21.55-13.785-30.785-9.213c-9.236,4.572-29.232-9.767-38.499,0.441c-9.267,10.208,14.12,15.59,14.362,25.43
				c0.242,9.84,5.628,19.376,20.431,21.018C449.553,1321.599,438.418,1356.246,492.993,1350.435z"/>
			<g>
				<path style="fill:#288B54;" d="M399.921,1274.324c7.348,1.435,14.509,3.866,21.394,6.782c9.45,4.003,18.46,9.066,26.786,15.066
					c8.68,6.255,16.603,13.527,23.412,21.784c6.348,7.699,11.998,16.007,16.972,24.654c4.482,7.792,8.69,16.059,11.001,24.789
					c0.242,0.914,0.454,1.835,0.637,2.762c0.061,0.311,0.554,0.255,0.492-0.058c-1.677-8.512-5.597-16.608-9.713-24.178
					c-4.851-8.923-10.461-17.471-16.735-25.459c-6.54-8.326-14.045-15.762-22.444-22.216c-8.343-6.41-17.441-11.849-27.02-16.198
					c-7.221-3.279-14.757-6.011-22.503-7.755c-0.733-0.165-1.468-0.319-2.205-0.463
					C399.682,1273.773,399.608,1274.263,399.921,1274.324L399.921,1274.324z"/>
			</g>
			<g>
				<path style="fill:#288B54;" d="M490.815,1298.238c2.345,12.138-3.175,23.72-8.38,34.328c-0.043,0.088,0.096,0.15,0.139,0.062
					c5.216-10.63,10.742-22.245,8.392-34.408C490.947,1298.125,490.796,1298.141,490.815,1298.238L490.815,1298.238z"/>
			</g>
			<g>
				<path style="fill:#288B54;" d="M475.511,1322.576c-5.266,2.352-11.095,3.22-16.825,3.372c-5.823,0.154-11.67-0.439-17.369-1.629
					c-0.096-0.02-0.118,0.13-0.023,0.151c5.712,1.192,11.573,1.784,17.41,1.629c5.742-0.152,11.586-1.024,16.863-3.381
					C475.656,1322.677,475.601,1322.536,475.511,1322.576L475.511,1322.576z"/>
			</g>
			<g>
				<path style="fill:#288B54;" d="M441.635,1271.636c4.489,7.143,6.345,15.77,6.252,24.14c-0.001,0.098,0.15,0.079,0.151-0.018
					c0.094-8.396-1.777-17.047-6.28-24.212C441.705,1271.463,441.583,1271.554,441.635,1271.636L441.635,1271.636z"/>
			</g>
			<g>
				<path style="fill:#288B54;" d="M446.914,1270.697c2.376,4.38,4.161,9.065,5.266,13.926c1.078,4.741,1.77,9.755,0.197,14.47
					c-0.031,0.092,0.108,0.155,0.139,0.062c1.553-4.652,0.921-9.561-0.117-14.249c-1.103-4.98-2.911-9.782-5.343-14.265
					C447.01,1270.556,446.868,1270.611,446.914,1270.697L446.914,1270.697z"/>
			</g>
			<g>
				<path style="fill:#288B54;" d="M462.663,1308.128c-11.759,4.428-24.989,4.844-37.086,1.539
					c-3.473-0.949-6.849-2.219-10.081-3.805c-0.088-0.043-0.15,0.096-0.062,0.139c11.394,5.589,24.666,7.256,37.137,5.048
					c3.461-0.613,6.859-1.541,10.148-2.78C462.81,1308.235,462.754,1308.093,462.663,1308.128L462.663,1308.128z"/>
			</g>
			<g>
				<path style="fill:#288B54;" d="M458.573,1304.589c-11.325,3.514-23.716,2.925-35-0.456c-3.123-0.936-6.171-2.106-9.122-3.491
					c-0.089-0.042-0.151,0.097-0.062,0.139c10.715,5.031,22.931,7.299,34.722,5.945c3.228-0.371,6.415-1.032,9.518-1.995
					C458.723,1304.701,458.667,1304.56,458.573,1304.589L458.573,1304.589z"/>
			</g>
			<g>
				<path style="fill:#288B54;" d="M424.951,1272.761c1.953,3.16,2.616,7.148,2.377,10.816c-0.006,0.097,0.144,0.121,0.15,0.023
					c0.241-3.709-0.43-7.733-2.405-10.929C425.022,1272.588,424.9,1272.678,424.951,1272.761L424.951,1272.761z"/>
			</g>
			<g>
				<path style="fill:#288B54;" d="M416.61,1278.866c-4.12,3.656-9.569,5.57-15.07,5.284c-0.097-0.005-0.121,0.145-0.023,0.15
					c5.542,0.289,11.032-1.628,15.183-5.312C416.773,1278.924,416.684,1278.801,416.61,1278.866L416.61,1278.866z"/>
			</g>
			<g>
				<path style="fill:#288B54;" d="M475.225,1289.905c-0.456,4.51-0.64,9.039-0.998,13.557c-0.344,4.341-1.342,8.732-4.024,12.259
					c-0.059,0.078,0.059,0.174,0.118,0.096c2.567-3.377,3.621-7.56,4.005-11.723c0.435-4.715,0.573-9.453,1.049-14.166
					C475.385,1289.831,475.235,1289.807,475.225,1289.905L475.225,1289.905z"/>
			</g>
			<g>
				<path style="fill:#288B54;" d="M450.678,1340.266c9.196,3.46,19.519,3.603,29.179,2.565c2.776-0.298,5.537-0.72,8.277-1.258
					c0.095-0.019,0.079-0.17-0.018-0.151c-6.119,1.201-12.367,1.841-18.606,1.781c-6.347-0.061-12.8-0.829-18.769-3.075
					C450.649,1340.093,450.586,1340.231,450.678,1340.266L450.678,1340.266z"/>
			</g>
		</g>
		<path style="fill:#ABC7F2;" d="M475.713,1529.924h79.262c16.52,0,30.514-13.737,32.804-32.2l15.208-122.602H431.233
			l16.477,127.474C449.738,1518.288,461.662,1529.924,475.713,1529.924z"/>
		<path style="fill:#ABC7F2;" d="M432.685,1385.355h171.883c3.794,0,6.87-3.076,6.87-6.87v-5.819c0-3.794-3.076-6.87-6.87-6.87
			H432.685c-3.794,0-6.87,3.076-6.87,6.87v5.819C425.814,1382.279,428.89,1385.355,432.685,1385.355z"/>
		<path style="opacity:0.5;fill:#4B83DB;" d="M597.453,1385.355c0,0-21.932,8.42-78.827,9.138
			c-56.895,0.717-77.555-9.138-77.555-9.138H597.453z"/>
	</g>
	<g>
		<polygon style="fill:#29274F;" points="1295.945,1520.547 1295.945,1529.924 1251.295,1529.924 1246.155,1511.776 		"/>
		<path style="fill:#383463;" d="M1314.255,1416.496c0,0,16.658,49.837,41.974,64.653c20.415,11.948,59.428,13.738,69.829,37.476
			c2.315,5.284-1.492,11.299-7.039,11.299h-104.764c0,0-38.119-11.061-56.108-8.367c-17.989,2.694-17.132-42.742-11.992-59.534
			c5.14-16.792,0.857-45.527,0.857-45.527H1314.255z"/>
	</g>
	<g>
		<path style="fill:#51497A;" d="M801.34,1210.12h-45.301c-14.624,0-26.59-11.965-26.59-26.59v0c0-14.624,11.965-26.59,26.59-26.59
			h45.301c14.624,0,26.59,11.965,26.59,26.59l0,0C827.929,1198.155,815.964,1210.12,801.34,1210.12z"/>
		<rect x="767.064" y="1163.204" style="fill:#51497A;" width="19.384" height="315.797"/>
		<g>
			<path style="fill:#51497A;" d="M866.095,1496.081c-0.356,0-0.718-0.04-1.08-0.122c-80.117-18.255-171.854-0.159-172.771,0.026
				c-2.622,0.526-5.169-1.167-5.698-3.785c-0.528-2.619,1.165-5.169,3.784-5.698c0.937-0.188,94.649-18.701,176.835,0.025
				c2.605,0.593,4.235,3.186,3.641,5.791C870.295,1494.56,868.302,1496.081,866.095,1496.081z"/>
		</g>
		
			<ellipse transform="matrix(0.9926 -0.1216 0.1216 0.9926 -178.4523 97.7131)" style="fill:#51497A;" cx="711.23" cy="1510.72" rx="19.204" ry="19.204"/>
		
			<ellipse transform="matrix(0.9737 -0.2279 0.2279 0.9737 -322.1024 231.6695)" style="fill:#51497A;" cx="842.209" cy="1510.72" rx="19.204" ry="19.204"/>
		<path style="fill:#383463;" d="M660.557,1008.239c0,0,8.863,73.86,6.894,105.374h37.722c0,0,1.67-64.997-15.072-105.374
			S660.557,1008.239,660.557,1008.239z"/>
		<path style="fill:#ABC7F2;" d="M599.634,1183.531h412.472c0,0,25.923-43.649-40.391-72.611s-185.962-4.589-228.06-13.451
			c-42.098-8.863-91.375-14.124-152.589,18.011C557.108,1133.306,537.595,1183.531,599.634,1183.531z"/>
		<path style="fill:#ABC7F2;" d="M699.027,1043.75c39.323-2.716,126.548-15.265,151.66-49.979
			c29.932-41.376-9.848-334.095-129.01-364.624c-119.161-30.529-178.25,41.362-190.067,97.496
			c-11.818,56.134-32.499,245.216-2.955,280.669C558.2,1042.765,609.902,1049.905,699.027,1043.75z"/>
	</g>
	<g>
		<g>
			<path style="fill:#51497A;" d="M1941.198,1210.12h45.301c14.624,0,26.59-11.965,26.59-26.59v0c0-14.624-11.965-26.59-26.59-26.59
				h-45.301c-14.624,0-26.59,11.965-26.59,26.59l0,0C1914.608,1198.155,1926.574,1210.12,1941.198,1210.12z"/>
			
				<rect x="1956.089" y="1163.204" transform="matrix(-1 -1.224647e-16 1.224647e-16 -1 3931.5627 2642.2058)" style="fill:#51497A;" width="19.384" height="315.797"/>
			<g>
				<path style="fill:#51497A;" d="M1876.443,1496.081c0.356,0,0.718-0.04,1.079-0.122c80.117-18.255,171.854-0.159,172.771,0.026
					c2.622,0.526,5.169-1.167,5.698-3.785c0.528-2.619-1.165-5.169-3.784-5.698c-0.937-0.188-94.649-18.701-176.834,0.025
					c-2.605,0.593-4.235,3.186-3.641,5.791C1872.242,1494.56,1874.236,1496.081,1876.443,1496.081z"/>
			</g>
			
				<ellipse transform="matrix(0.9732 -0.2298 0.2298 0.9732 -292.7533 507.1134)" style="fill:#51497A;" cx="2031.308" cy="1510.72" rx="19.204" ry="19.204"/>
			
				<ellipse transform="matrix(0.7071 -0.7071 0.7071 0.7071 -511.647 1786.2148)" style="fill:#51497A;" cx="1900.328" cy="1510.72" rx="19.204" ry="19.204"/>
		</g>
		<path style="fill:#383463;" d="M2081.98,1008.239c0,0-8.863,73.86-6.894,105.374h-37.722c0,0-1.67-64.997,15.072-105.374
			C2069.178,967.862,2081.98,1008.239,2081.98,1008.239z"/>
		<path style="fill:#ABC7F2;" d="M2142.903,1183.531h-412.472c0,0-25.923-43.649,40.391-72.611
			c66.314-28.961,185.962-4.589,228.06-13.451c42.099-8.863,91.375-14.124,152.59,18.011
			C2185.43,1133.306,2204.943,1183.531,2142.903,1183.531z"/>
		<path style="fill:#ABC7F2;" d="M2043.511,1043.75c-39.323-2.716-126.547-15.265-151.66-49.979
			c-29.932-41.376,9.848-334.095,129.01-364.624c119.161-30.529,178.25,41.362,190.067,97.496
			c11.818,56.134,32.499,245.216,2.954,280.669C2184.338,1042.765,2132.635,1049.905,2043.511,1043.75z"/>
	</g>
	<path style="fill:#51497A;" d="M746.768,921.242c0,0-45.777,66.883-32.956,142.328c12.821,75.445,56.71,63.097,114.117,67.938
		c81.739,6.894,167.081-2.165,169.703,15.373c4.067,27.201,114.593-9.604,114.593-9.604s127.583-61.819,115.535-94.334
		C1196.985,959.892,834.814,905.117,746.768,921.242z"/>
	<path style="fill:#51497A;" d="M1225.331,1037.663c29.544,40.72,94.905,371.711,91.404,378.164
		c-6.147,11.328-15.646,3.589-47.061,17.469c-34.095,15.064-53.266,0.641-53.266,0.641s-22.394-65.245-60.425-175.475
		c-13.648-39.558-28.438-82.37-43.43-125.675C1062.746,988.923,1198.291,1000.396,1225.331,1037.663z"/>
	<path style="fill:#383463;" d="M1148.378,1082.268c16.423,47.271,12.497,190.379,12.497,190.379l-74.713-240.059
		C1086.162,1032.588,1136.381,1047.738,1148.378,1082.268z"/>
	<g>
		<path style="fill:#FABBA5;" d="M1349.036,878.972c0,0-113.328,0.774-153.195,2.006c-87.041,2.69-120.197-4.399-120.197-4.399
			s-76.613-62.061-120.834-235.093c0,0,63.675-37.288,79.623-22.402c24.484,22.852,96.266,160.97,109.927,173.032
			c4.313,3.808,137.229,45.874,193.317,19.625L1349.036,878.972z"/>
		<path style="fill:#FABBA5;" d="M1303.115,838.146c0,0,19.24-24.708,38.033-29.429c12.908-3.243,40.304-24.559,43.805-23.238
			c13.334,5.031-17.272,26.678-11.977,32.412c3.612,3.912,50.705,3.342,64.146,4.043c7.099,0.37,17.224,8.249-6.405,13.1
			c-5.477,1.125-16.296,2.308-22.886,4.614c-4.17,1.459-7.106,4.14,2.015,5.438c11.401,1.623,48.849,0.182,46.972,8.833
			c-1.555,7.167-54.728,3.522-55.024,11.779c-0.158,4.417,44.44,9.658,43.889,15.703c-0.851,9.343-36.576,1.071-52.786,4.092
			c-17.163,3.199,17.281,17.729,14.649,22.683c-2.8,5.27-13.33-1.152-32.385-9.6c-16.401-7.271-41.237-4.297-53.738-12.017
			C1308.92,878.842,1303.115,838.146,1303.115,838.146z"/>
	</g>
	<path style="fill:#752D4B;" d="M814.063,347.264c0,0-9.52-2.832-17.111,2.832c0,0,6.517-1.656,13.123,1.223
		C816.681,354.199,814.063,347.264,814.063,347.264z"/>
	<path style="fill:#752D4B;" d="M819.697,350.722c0,0-9.693-2.093-13.933-10.79c0,0,5.053,4.622,12.18,5.263
		C825.072,345.836,819.697,350.722,819.697,350.722z"/>
	<path style="fill:#752D4B;" d="M936.119,360.96c0,0,4.605,28.505,1.728,36.856s-12.55-33.289-12.55-33.289L936.119,360.96z"/>
	<g>
		<polygon style="fill:#29274F;" points="1104.146,1520.547 1104.146,1529.924 1059.495,1529.924 1054.355,1511.776 		"/>
		<path style="fill:#383463;" d="M1122.455,1416.496c0,0,16.658,49.837,41.974,64.653c20.415,11.948,59.428,13.738,69.829,37.476
			c2.315,5.284-1.492,11.299-7.039,11.299h-104.764c0,0-38.119-11.061-56.108-8.367c-17.989,2.694-17.132-42.742-11.993-59.534
			c5.14-16.792,0.857-45.527,0.857-45.527H1122.455z"/>
	</g>
	<path style="fill:#51497A;" d="M1136.463,1136.167c19.674,178.69,10.107,291.149,5.48,296.849
		c-8.122,10.006-16.039,0.655-49.469,8.531c-36.281,8.547-52.478-9.151-52.478-9.151s-10.032-68.248-27.175-183.587
		c-6.152-41.392-12.829-86.191-19.614-131.513c-20.146-134.571,125.767-87.414,129.917-52.262
		C1124.708,1078.442,1134.739,1120.505,1136.463,1136.167z"/>
	<path style="fill:#FF6576;" d="M705.516,616.034c0.771,9.09,5.4,38.223,11.026,72.601c0.928,5.681,1.885,11.508,2.861,17.404
		l0,0.01c9.457,57.395,20.272,121.965,20.644,132.127c1.118,30.457-17.736,106.729-19.01,126.526c-0.316,4.952,15,2.446,32.01,1.484
		c18.731-1.061,53.352,13.153,104.318,13.332c87.549,0.307,119.075-40.955,119.075-40.955c-9.306-26.312-6.385-61.984-1.852-90.802
		c2.252-14.315,37.599-223.581,37.599-223.581l-23.906-61.49c-111.522-29.542-234.044-8.533-234.044-8.533
		S700.787,560.94,705.516,616.034z"/>
	<path style="fill:#FF6576;" d="M848.718,534.112c0,0,1.812,3.571,5.064,9.678c1.75,3.301,3.931,7.347,6.474,11.976
		c6.083,11.07,14.224,25.441,23.601,40.815c27.429,44.969,65.346,98.495,92.826,103.091c5.331,0.885,1.024,49.818,4.532,48.909
		c52.372-13.574,107.511-78.288,91.486-91.014c-39.052-31.01-60.582-103.916-122.088-109.602
		c-12.093-1.118-24.887-4.003-37.371-5.761c-23.322-3.28-45.132-5.88-56.443-7.175C851.682,534.435,848.718,534.112,848.718,534.112
		z"/>
	<path style="fill:#FF6576;" d="M707.888,717.085c16.406-9.16,34.119-16.551,51.451-19.259
		c27.635-4.316,56.258-59.179,75.628-105.087c5.733-13.594,10.652-26.39,14.492-36.867c1.647-4.499,3.098-8.567,4.323-12.084
		c1.235-3.506,2.233-6.463,3.016-8.761c1.163-3.474,1.781-5.427,1.781-5.427s-22.808,5.589-51.956,11.555
		c-11.291,2.309-23.539,4.682-35.786,6.808c-42.126,7.304-43.522,31.003-77.127,67.837
		C660.104,652.636,674.417,735.74,707.888,717.085z"/>
	<path style="fill:#FABBA5;" d="M815.685,539.273c6.931-1.463,12.312-7.197,13.571-14.489c2.536-14.685,5.663-34.338,7.734-52.723
		c0.551-4.896-4.349-23.611-4.546-23.938c0.564,0.161,77.099,22.431,67.757,45.941c-0.416,1.05-0.799,2.157-1.144,3.31
		c-2.255,7.498-3.032,16.952-3.026,26.487c0.006,5.703,0.384,11.163,0.937,16.125c5.258,0.695,10.721,1.437,16.273,2.218
		c0.968,4.337,4.982,57.794-40.912,57.798c-37.643,0.003-64.471-53.763-65.706-58.844
		C809.722,540.522,812.749,539.892,815.685,539.273z"/>
	<path style="fill:#ED938B;" d="M835.651,469.722c0.471,3.488-0.988,16.495-0.966,20.5c17.265,35.151,60.716,33.404,61.345,33.639
		c-0.005-9.535,0.772-18.989,3.026-26.487C881.857,488.779,845.409,468.23,835.651,469.722z"/>
	<path style="fill:#FABBA5;" d="M840.374,490.221c2.958,9.577,35.84,17.312,48.995,18.791c8.671,0.975,21.957,3.057,29.358-2.274
		c6.272-4.518,23.88-43.272,19.746-63.232c-0.802-3.872-1.877-20.121-0.308-31.053c2.609-18.173-9.557-48.196-9.557-48.196
		c-50.11-37.063-93.864,15.253-97.537,35.424C827.398,419.848,828.444,451.597,840.374,490.221z"/>
	<path style="fill:#752D4B;" d="M863.679,405.708c-2.242,1.248-3.203-0.671-1.644-2.75c3.704-4.937,8.577-10.295,24.661-11.16
		c15.107-0.813,16.878,7.639,8.614,9.188C888.068,402.342,878.563,397.423,863.679,405.708z"/>
	<path style="fill:#752D4B;" d="M935.186,408.269c1.057,0.876,3.463-3.144,3.078-4.737c-0.914-3.784-3.861-7.842-12.37-7.546
		c-9.343,0.325-11.272,5.441-6.492,6.189C923.591,402.83,928.168,402.455,935.186,408.269z"/>
	<path style="fill:#752D4B;" d="M916.876,423.563c1.781-2.115,5.26-5.751,9.315-5.999c0.875-0.065,1.77,0.032,2.686,0.345
		c1.575,0.529,3.613,2.406,5.743,3.733c0.772,0.485-9.047-13.379-17.013-0.626c-0.268,0.432-0.546,0.896-0.813,1.403
		c-0.288,0.55-0.587,1.144-0.875,1.78C915.219,425.742,915.651,425.009,916.876,423.563z"/>
	<path style="fill:#752D4B;" d="M918.875,420.333c0,0.324,0,1.665,0.369,3.014c0.248,0.906,0.862,1.995,1.881,2.751
		c1.256,0.939,3.654,1.37,5.115,0.842c1.462-0.518,2.841-1.208,3.716-2.546c1.05-1.608,1.153-4.273-0.041-5.762
		c-0.381-0.475-0.762-0.949-1.05-1.284c-0.247-0.313-0.412-0.518-0.412-0.518l-4.467,0.863l-2.404,0.145l-0.862,0.246l-0.585,0.985
		C919.869,419.501,919.143,419.826,918.875,420.333z"/>
	<path style="fill:#752D4B;" d="M874.659,423.4c0,3.52,2.721,6.372,6.078,6.372c3.358,0,6.078-2.852,6.078-6.372
		c0-1.157-0.293-2.238-0.811-3.174c-0.495-0.908-1.2-1.676-2.047-2.228c-2.295-0.019-4.548,0.034-6.66,0.149
		c-1.214,0.874-2.107,2.194-2.464,3.74C874.718,422.372,874.659,422.876,874.659,423.4z"/>
	<path style="fill:#752D4B;" d="M862.167,422.756c-0.951,2.643,5.116-6.556,19.14-3.698c3.444,0.702,6.889,2.866,9.651,5.11
		c0.998,0.811,1.075-0.456,0.169-1.379c-3.383-3.448-6.69-5.889-12.077-6.45C869.805,415.377,862.555,421.677,862.167,422.756z"/>
	<g>
		<path style="fill:#E58F78;" d="M912.269,414.677c-4.275,2.167-6.305,7.013-6.287,11.831c0.02,5.352,2.706,10.243,5.634,14.445
			c1.993,2.861,6.931,7.283,5.125,11.343c-0.795,1.787-2.769,2.67-4.379,3.425c-2.272,1.065-4.643,1.808-7.082,2.313
			c-0.72,0.149-1.028-1.008-0.304-1.158c2.74-0.567,5.399-1.429,7.907-2.734c2.106-1.096,3.67-2.574,2.706-5.275
			c-0.502-1.406-1.435-2.555-2.314-3.718c-2.797-3.701-5.557-7.492-7.167-11.947c-2.481-6.861-1.311-16.067,5.584-19.561
			C912.351,413.306,912.933,414.341,912.269,414.677L912.269,414.677z"/>
	</g>
	<g>
		<path style="fill:#E58F78;" d="M912.056,489.482c-3.834-1.449-7.706-1.538-11.593-0.239c-1.408,0.471-2.01-1.847-0.609-2.315
			c4.227-1.413,8.635-1.34,12.811,0.239C914.041,487.688,913.447,490.008,912.056,489.482L912.056,489.482z"/>
	</g>
	<path style="fill:#752D4B;" d="M801.178,430.438c6.968,25.97,33.735,39.439,33.735,39.439c-2.502-16.184-3.722-49.678,0.024-49.613
		c3.757,0.054,13.946,12.116,12.968,6.161c-0.988-5.945-6.566-14.695,0.813-27.502c7.38-12.807,1.05-28.548,1.05-28.548
		s0.052,0.022,0.165,0.065c0.031,0.011,0.062,0.022,0.103,0.043c1.338,0.604,2.851,1.122,4.498,1.565
		c0.01,0,0.031,0.011,0.051,0.011c4.415,1.208,9.788,1.899,15.562,2.19c5.095,0.259,10.498,0.205,15.819-0.097
		c5.702-0.334,11.311-0.939,16.344-1.737c4.765-0.766,9.026-1.705,12.372-2.762c2.058-0.647,3.87-1.068,5.465-1.305
		c1.276-0.194,2.418-0.28,3.438-0.27c7.194,0.054,8.069,4.607,8.069,4.607c10.889-15.493,8.759-25.937,6.124-35.669
		c-4.714-17.381-18.423-25.808-18.423-25.808c-3.602,6.204-10.653,7.153-10.653,7.153c0.484-1.456,0.751-2.838,0.865-4.089
		c0.381-4.219-0.947-7.099-1.101-7.412c-0.01-0.011-0.01-0.022-0.01-0.022s-14.574,14.037-49.794,9.948
		c-48.024-5.578-47.345,30.026-47.345,30.026C787.818,360.956,794.21,404.469,801.178,430.438z"/>
	<g>
		<path style="fill:#FABBA5;" d="M845.725,431.031c0,0-11.544-18.564-22.351-10.155c-10.807,8.409,0.27,23.956,4.437,29.919
			c4.46,6.383,7.044,6.434,14.904,4.375C850.575,453.111,845.725,431.031,845.725,431.031z"/>
		<g>
			<path style="fill:#E58F78;" d="M843.245,453.628c-2.565,4.701-8.633,4.386-12.354,1.467c-2.331-1.829-3.998-4.411-5.514-6.973
				c-1.826-3.086-3.578-6.256-4.85-9.642c-2.123-5.654-3.107-13.378,2.084-17.579c5.111-4.136,11.932-2.201,16.043,2.433
				c0.538,0.606-0.329,1.518-0.868,0.91c-3.823-4.31-10.391-6.215-14.949-1.875c-4.581,4.362-2.771,11.991-0.571,17.144
				c1.895,4.438,4.391,9.307,7.589,12.868c3.082,3.432,9.513,5.758,12.329,0.596C842.577,452.259,843.639,452.907,843.245,453.628
				L843.245,453.628z"/>
		</g>
		<g>
			<path style="fill:#E58F78;" d="M830.659,424.562c1.833,0.779,3.606,1.852,4.651,3.684c1.215,2.132,0.77,3.781,0.163,5.972
				c-1.145,4.136,2.863,4.966,4.845,7.596c1.123,1.491,1.447,3.324,0.519,4.986c-0.399,0.715-1.461,0.067-1.06-0.65
				c2.177-3.902-5.161-6.144-5.822-9.743c-0.274-1.494,0.499-2.508,0.844-3.889c0.824-3.299-1.891-5.621-4.466-6.715
				C829.61,425.496,829.926,424.25,830.659,424.562L830.659,424.562z"/>
		</g>
	</g>
	<path style="fill:#7E3254;" d="M811.316,346.811c7.544,16.54,38.452,23.564,38.452,23.564s0.052,0.022,0.165,0.065
		c0.031,0.011,0.062,0.022,0.103,0.043c0.597,0.216,2.182,0.799,4.498,1.565c0.01,0,0.031,0.011,0.051,0.011
		c4.415,1.208,9.788,1.899,15.562,2.19c5.095,0.259,10.498,0.205,15.819-0.097c5.702-0.334,11.311-0.939,16.344-1.737
		c4.765-0.766,8.933-2.115,12.372-2.762c15.771-2.967,0.129-27.243,0.129-27.243c-5.249,8.631-13.303,9.667-13.303,9.667
		c5.536-8.99-3.046-19.647-3.046-19.647c-8.296,15.828-24.012,6.171-24.012,6.171s8.189-1.927,12.562-8.464
		c6.947-10.385,1.673-19.286,1.673-19.286s-7.859,9.722-30.023,5.934C811.316,308.693,811.316,346.811,811.316,346.811z"/>
	<path style="fill:#7E3254;" d="M883.194,310.132c0,0-6.69,10.789-20.585,10.25l-0.679-3.124
		C861.93,317.257,873.587,317.325,883.194,310.132z"/>
	<path style="fill:#752D4B;" d="M913.127,308.289c0,0-0.901,9.929-7.205,12.112v-3.076
		C905.923,317.325,910.297,315.436,913.127,308.289z"/>
	<path style="fill:#7E3254;" d="M923.983,342.633c0,0,6.727,23.783-5.795,25.941l1.169-8.631
		C919.357,359.942,925.318,354.454,923.983,342.633z"/>
	<path style="fill:#7E3254;" d="M904.893,334.587c0,0,2.187,14.565-3.602,18.611c-5.789,4.046-4.889-2.476-4.889-2.476
		S903.864,346.59,904.893,334.587z"/>
	<g>
		<path style="fill:#FABBA5;" d="M822.449,1008.132c0,0-80.088-32.67-117.23-53.456c-47.245-26.439-59.668-41.663-75.895-54.971
			c-16.356-13.413-21.711-23.127-21.711-23.127S585.88,735.007,720.67,581.573l76.303,77.706c0,0-97.431,160.31-86.16,174.631
			c52.427,66.609,100.558,119.975,141.25,128.985L822.449,1008.132z"/>
	</g>
	<g>
		<path style="fill:#383463;" d="M980.258,1137.082c19.107,5.133,39.026,4.062,57.458-3.147c1.094-0.428,0.618-2.214-0.491-1.781
			c-18.129,7.091-37.67,8.2-56.476,3.147C979.6,1134.992,979.11,1136.773,980.258,1137.082L980.258,1137.082z"/>
	</g>
	<g>
		<path style="fill:#383463;" d="M1011.037,1146.739c-6.884-1.965-13.164-5.126-18.86-9.454c-0.946-0.719-1.867,0.884-0.932,1.594
			c5.822,4.423,12.274,7.634,19.301,9.64C1011.69,1148.847,1012.179,1147.066,1011.037,1146.739L1011.037,1146.739z"/>
	</g>
	<g>
		<path style="fill:#383463;" d="M1008.867,970.548c-2.643,5.564-4.294,11.357-4.997,17.477c-0.085,0.737,0.835,1.096,1.389,0.797
			c5.786-3.115,11.868-5.276,18.314-6.538c1.165-0.228,0.672-2.008-0.491-1.781c-6.6,1.292-12.837,3.538-18.755,6.724
			c0.463,0.266,0.926,0.531,1.389,0.797c0.664-5.784,2.247-11.285,4.745-16.545C1010.968,970.412,1009.377,969.474,1008.867,970.548
			L1008.867,970.548z"/>
	</g>
	<g>
		<path style="fill:#383463;" d="M1144.862,1226.986c-0.39,0-0.716-0.306-0.737-0.698c-0.057-1.048-5.861-105.382-21.711-161.051
			c-7.762-27.261-94.442-58.898-131.349-71.235c-11.096-3.71-17.165-9.775-17.418-10.031c-0.286-0.291-0.283-0.757,0.007-1.045
			c0.29-0.284,0.759-0.283,1.044,0.007c0.06,0.06,6.095,6.077,16.835,9.667c20.589,6.882,50.724,17.738,77.372,30.375
			c32.996,15.648,51.478,29.73,54.93,41.856c15.895,55.829,21.708,160.327,21.765,161.375c0.022,0.408-0.291,0.756-0.698,0.778
			C1144.889,1226.985,1144.875,1226.986,1144.862,1226.986z"/>
	</g>
	<g>
		<path style="fill:#383463;" d="M1170.365,1238.193c11.364,13.187,21.385,27.367,30.038,42.47c0.591,1.031,2.187,0.102,1.594-0.932
			c-8.731-15.238-18.864-29.541-30.327-42.844C1170.894,1235.986,1169.593,1237.297,1170.365,1238.193L1170.365,1238.193z"/>
	</g>
	<g>
		<path style="fill:#383463;" d="M1182.611,1263.701c1.706,6.077,2.876,12.231,3.493,18.515c0.115,1.172,1.963,1.184,1.847,0
			c-0.632-6.446-1.807-12.768-3.559-19.006C1184.071,1262.068,1182.289,1262.553,1182.611,1263.701L1182.611,1263.701z"/>
	</g>
	<g>
		<path style="fill:#383463;" d="M944.13,987.592c-20.719,0.739-41.398,2.159-62.023,4.259c-1.171,0.119-1.183,1.967,0,1.846
			c20.626-2.1,41.304-3.52,62.023-4.259C945.314,989.396,945.32,987.55,944.13,987.592L944.13,987.592z"/>
	</g>
	<g>
		<path style="fill:#383463;" d="M942.89,989.73c-18.413,4.897-35.968,12.175-52.445,21.742c-1.027,0.596-0.099,2.193,0.932,1.594
			c16.338-9.486,33.747-16.701,52.004-21.556C944.528,991.205,944.042,989.423,942.89,989.73L942.89,989.73z"/>
	</g>
	<g>
		<path style="fill:#383463;" d="M767.918,1014.317c0,2.298,0,4.596,0,6.894c0,1.188,1.847,1.19,1.847,0c0-2.298,0-4.596,0-6.894
			C769.764,1013.129,767.918,1013.127,767.918,1014.317L767.918,1014.317z"/>
	</g>
	<g>
		<path style="fill:#383463;" d="M770.663,1040.227c0.978,3.941,1.957,7.882,2.935,11.822c0.286,1.153,2.067,0.664,1.781-0.491
			c-0.979-3.941-1.957-7.882-2.935-11.822C772.157,1038.584,770.376,1039.072,770.663,1040.227L770.663,1040.227z"/>
	</g>
	<g>
		<path style="fill:#383463;" d="M786.089,1065.357c3.938,2.628,7.876,5.256,11.814,7.884c0.991,0.661,1.917-0.937,0.932-1.594
			c-3.938-2.628-7.876-5.256-11.814-7.884C786.03,1063.101,785.105,1064.7,786.089,1065.357L786.089,1065.357z"/>
	</g>
	<g>
		<path style="fill:#383463;" d="M813.923,1079.051c3.051,0.527,5.891,1.548,8.569,3.108c1.029,0.599,1.96-0.996,0.932-1.594
			c-2.806-1.634-5.809-2.741-9.01-3.294C813.252,1077.07,812.753,1078.849,813.923,1079.051L813.923,1079.051z"/>
	</g>
	<g>
		<path style="fill:#383463;" d="M846.658,1084.019c3.604,0.392,7.208,0.783,10.812,1.175c1.18,0.128,1.171-1.719,0-1.847
			c-3.604-0.392-7.208-0.783-10.812-1.175C845.478,1082.045,845.487,1083.892,846.658,1084.019L846.658,1084.019z"/>
	</g>
	<g>
		<path style="fill:#383463;" d="M881.109,1086.146c2.298,0,4.596,0,6.894,0c1.188,0,1.19-1.846,0-1.846c-2.298,0-4.596,0-6.894,0
			C879.921,1084.3,879.919,1086.146,881.109,1086.146L881.109,1086.146z"/>
	</g>
	<g>
		<path style="fill:#383463;" d="M908.683,1087.131c2.954,0,5.909,0,8.863,0c1.188,0,1.19-1.847,0-1.847c-2.954,0-5.909,0-8.863,0
			C907.495,1085.284,907.493,1087.131,908.683,1087.131L908.683,1087.131z"/>
	</g>
	<g>
		<path style="fill:#383463;" d="M941.182,1087.131c2.954,0,5.909,0,8.863,0c1.188,0,1.19-1.847,0-1.847c-2.954,0-5.909,0-8.863,0
			C939.994,1085.284,939.992,1087.131,941.182,1087.131L941.182,1087.131z"/>
	</g>
	<g>
		<path style="fill:#383463;" d="M967.984,1086.969c1.312-0.334,2.623-0.667,3.935-1.001c1.151-0.293,0.663-2.074-0.491-1.781
			c-1.312,0.334-2.623,0.667-3.935,1.001C966.343,1085.481,966.83,1087.263,967.984,1086.969L967.984,1086.969z"/>
	</g>
	<g>
		<path style="fill:#383463;" d="M986.483,1085.161c1.641,0,3.283,0,4.924,0c1.188,0,1.19-1.847,0-1.847c-1.641,0-3.283,0-4.924,0
			C985.295,1083.315,985.293,1085.161,986.483,1085.161L986.483,1085.161z"/>
	</g>
	<g>
		<path style="fill:#383463;" d="M1006.443,1087.165c1.502-0.361,2.95-0.076,4.235,0.767c0.997,0.653,1.923-0.945,0.932-1.594
			c-1.693-1.11-3.696-1.425-5.658-0.953C1004.797,1085.662,1005.286,1087.443,1006.443,1087.165L1006.443,1087.165z"/>
	</g>
	<g>
		<path style="fill:#383463;" d="M1027.844,1092.064c2.408,0.291,4.609,1.556,6.074,3.489c0.709,0.935,2.313,0.016,1.594-0.932
			c-1.904-2.511-4.54-4.025-7.669-4.404C1026.667,1090.075,1026.677,1091.923,1027.844,1092.064L1027.844,1092.064z"/>
	</g>
	<g>
		<path style="fill:#383463;" d="M1043.934,1103.602c0.985,0.985,1.969,1.97,2.954,2.954c0.841,0.841,2.147-0.464,1.306-1.306
			c-0.985-0.985-1.97-1.97-2.954-2.955C1044.398,1101.455,1043.092,1102.76,1043.934,1103.602L1043.934,1103.602z"/>
	</g>
	<g>
		<path style="fill:#383463;" d="M1051.765,1122.072c0.856,1.633,1.103,3.43,0.715,5.232c-0.25,1.159,1.53,1.654,1.781,0.491
			c0.497-2.302,0.192-4.569-0.901-6.655C1052.808,1120.087,1051.214,1121.02,1051.765,1122.072L1051.765,1122.072z"/>
	</g>
	<g>
		<path style="fill:#383463;" d="M1054.496,1141.357c0,1.313,0,2.626,0,3.939c0,1.188,1.847,1.19,1.847,0c0-1.313,0-2.626,0-3.939
			C1056.343,1140.168,1054.496,1140.167,1054.496,1141.357L1054.496,1141.357z"/>
	</g>
	<g>
		<path style="fill:#383463;" d="M1049.596,1165.979c-0.374,3.606-0.747,7.212-1.121,10.819c-0.122,1.181,1.725,1.172,1.847,0
			c0.374-3.606,0.747-7.213,1.121-10.819C1051.565,1164.798,1049.718,1164.807,1049.596,1165.979L1049.596,1165.979z"/>
	</g>
	<g>
		<path style="fill:#383463;" d="M1048.587,1194.536c0,3.939,0,7.878,0,11.818c0,1.188,1.847,1.19,1.847,0c0-3.939,0-7.878,0-11.818
			C1050.434,1193.348,1048.587,1193.346,1048.587,1194.536L1048.587,1194.536z"/>
	</g>
	<g>
		<path style="fill:#383463;" d="M1051.928,1225.259c0.48,3.308,0.96,6.617,1.44,9.925c0.17,1.172,1.949,0.673,1.781-0.491
			c-0.48-3.308-0.96-6.617-1.44-9.925C1053.539,1223.597,1051.759,1224.095,1051.928,1225.259L1051.928,1225.259z"/>
	</g>
	<g>
		<path style="fill:#383463;" d="M1057.612,1258.014c0.985,2.298,1.969,4.596,2.954,6.894c0.467,1.089,2.058,0.15,1.594-0.932
			c-0.985-2.298-1.969-4.596-2.954-6.894C1058.74,1255.993,1057.149,1256.933,1057.612,1258.014L1057.612,1258.014z"/>
	</g>
	<g>
		<path style="fill:#383463;" d="M1064.344,1287.108c0,1.313,0,2.626,0,3.939c0,1.188,1.847,1.19,1.847,0c0-1.313,0-2.626,0-3.939
			C1066.191,1285.92,1064.344,1285.918,1064.344,1287.108L1064.344,1287.108z"/>
	</g>
	<g>
		<path style="fill:#383463;" d="M1071.301,1317.396c-0.382,2.654-0.049,5.153,1.018,7.614c0.471,1.087,2.063,0.148,1.594-0.932
			c-0.847-1.954-1.135-4.082-0.832-6.191C1073.249,1316.725,1071.47,1316.223,1071.301,1317.396L1071.301,1317.396z"/>
	</g>
	<g>
		<path style="fill:#383463;" d="M1073.207,1346.196c0,0.985,0,1.969,0,2.954c0,1.188,1.847,1.19,1.847,0c0-0.985,0-1.97,0-2.954
			C1075.054,1345.008,1073.207,1345.006,1073.207,1346.196L1073.207,1346.196z"/>
	</g>
	<g>
		<path style="fill:#383463;" d="M1077.147,1373.771c0,3.283,0,6.565,0,9.848c0,1.188,1.846,1.19,1.846,0c0-3.283,0-6.565,0-9.848
			C1078.993,1372.583,1077.147,1372.581,1077.147,1373.771L1077.147,1373.771z"/>
	</g>
	<g>
		<path style="fill:#383463;" d="M1080.336,1407.459c0.326,1.642,0.652,3.284,0.978,4.925c0.231,1.165,2.012,0.672,1.781-0.491
			c-0.326-1.642-0.652-3.283-0.979-4.925C1081.885,1405.804,1080.105,1406.297,1080.336,1407.459L1080.336,1407.459z"/>
	</g>
	<g>
		<path style="fill:#383463;" d="M1082.071,1431.874c0,0.328,0,0.656,0,0.985c0,1.188,1.847,1.19,1.847,0c0-0.328,0-0.656,0-0.985
			C1083.917,1430.686,1082.071,1430.684,1082.071,1431.874L1082.071,1431.874z"/>
	</g>
	<path style="fill:#FF6576;" d="M770.836,547.965c0,0-39.828,5.189-64.015,30.065c-15.059,15.488-46.676,70.195-61.175,98.431
		c0,0,41.215,66.882,127.375,57.676c37.118-3.966,43.349-71.265,43.349-71.265L770.836,547.965z"/>
	<g>
		<path style="fill:#E84261;" d="M1010.748,666.728c-8.978,17.446-14.921,36.089-17.66,55.521c-0.132,0.933,1.297,1.336,1.43,0.394
			c2.721-19.306,8.587-37.827,17.51-55.167C1012.464,666.63,1011.185,665.879,1010.748,666.728L1010.748,666.728z"/>
	</g>
	<g>
		<path style="fill:#E84261;" d="M863.218,784.362c11.854,20.822,30.436,36.801,52.77,45.461c0.89,0.345,1.276-1.088,0.394-1.429
			c-21.967-8.518-40.231-24.31-51.885-44.78C864.026,782.785,862.745,783.531,863.218,784.362L863.218,784.362z"/>
	</g>
	<g>
		<path style="fill:#E84261;" d="M869.468,811.126c8.045,19.146,18.618,36.949,31.585,53.171c0.596,0.745,1.639-0.31,1.048-1.048
			c-12.797-16.008-23.265-33.622-31.204-52.517C870.534,809.865,869.099,810.246,869.468,811.126L869.468,811.126z"/>
	</g>
	<g>
		<path style="fill:#E84261;" d="M747.542,734.642c2.632,0.513,5.265,1.026,7.897,1.538c1.465,0.285,4.513,1.418,6.093,0.804
			c2.198-0.854,3.269-3.585,4.515-5.404c6.778-9.896,14.361-19.179,22.575-27.913c0.653-0.695-0.393-1.745-1.048-1.048
			c-5.871,6.242-11.433,12.752-16.6,19.59c-2.468,3.266-4.523,7.54-7.4,10.382c-0.944,2.355-2.867,3.203-5.767,2.544
			c-0.658-0.128-1.316-0.256-1.974-0.385c-2.63-0.286-5.299-1.032-7.897-1.538C747.004,733.031,746.605,734.46,747.542,734.642
			L747.542,734.642z"/>
	</g>
	<g>
		<g>
			<path style="fill:#FABBA5;" d="M972.913,978.516c-2.765-9.865-64.291-23.443-76.37-23.828
				c-13.183-0.42-66.205,10.332-66.205,10.332l-7.889,43.112c0,0,56.645,16.74,79.773,11.353
				c3.14-0.731,11.198,20.285,16.279,18.612c2.845-0.937-2.84-20.271-4.798-30.191c-0.24-1.216,1.168-2.113,2.094-1.336
				c10.551,8.85,22.233,33.519,29.611,30.729c1.559-0.59-2.767-15.831-5.227-25.472c-1.32-5.169-7.022-12.724-12.031-18.624
				c-0.391-0.461,0.174-1.146,0.694-0.844c6.02,3.499,12.556,9.266,15.794,13.164c5.563,6.694,17.999,25.808,27.685,24.908
				c4.038-0.375-10.826-25.106-15.621-35.749c-0.773-1.717-2.233-3.581-4.102-5.483c-0.351-0.357,0.098-0.955,0.53-0.706
				c3.856,2.222,7.038,4.237,8.116,5.389c10.014,10.7,21.063,26.038,30.935,23.243
				C994.752,1016.396,974.046,982.559,972.913,978.516z"/>
		</g>
		<g>
			<path style="fill:#E58F78;" d="M846.189,960.825c-7.518,1.981-14.156,6.021-19.369,11.788c-0.64,0.708,0.426,1.739,1.067,1.03
				c5.055-5.591,11.438-9.476,18.727-11.397C847.536,962.002,847.113,960.581,846.189,960.825L846.189,960.825z"/>
		</g>
		<g>
			<path style="fill:#E58F78;" d="M921.532,985.565c3.055,3.467,6.317,6.721,9.792,9.766c0.717,0.628,1.748-0.437,1.03-1.067
				c-3.475-3.046-6.737-6.299-9.792-9.766C921.929,983.781,920.905,984.854,921.532,985.565L921.532,985.565z"/>
		</g>
		<g>
			<path style="fill:#E58F78;" d="M947.474,984.258c2.02,1.719,4.039,3.437,6.059,5.156c0.725,0.617,1.757-0.448,1.03-1.067
				c-2.02-1.719-4.039-3.437-6.059-5.156C947.779,982.575,946.746,983.639,947.474,984.258L947.474,984.258z"/>
		</g>
		<g>
			<path style="fill:#E58F78;" d="M910.653,1001.787c1.555,2.467,3.419,4.692,5.581,6.649c0.707,0.64,1.738-0.426,1.03-1.067
				c-2.071-1.875-3.854-3.989-5.344-6.353C911.41,1000.209,910.143,1000.978,910.653,1001.787L910.653,1001.787z"/>
		</g>
	</g>
	<g>
		<path style="fill:#752D4B;" d="M1825.348,459.935l-1.609,95.319l170.504,182.731c0,0,37.655-39.175,95.356-27.091
			c16.014,3.354,29.101,1.536,39.652-2.844c11.309-52.612-10.975-94.266-10.975-94.266c22.048,24.252,25.584,63.566,25.856,85.411
			c16.359-13.144,22.815-31.185,22.815-31.185c5.791-57.08-45.073-166.976-153.387-177.227
			c-108.317-10.242-109.705-85.351-109.705-85.351L1825.348,459.935z"/>
		<g>
			<path style="fill:#954067;" d="M2150.206,689.507c9.823-51.612-7.675-105.262-46.696-140.583
				c-18.924-17.13-41.991-29.378-66.919-34.973c-14.695-3.298-29.742-4.778-44.243-8.968c-12.914-3.731-25.518-9.077-36.926-16.219
				c-19.851-12.427-37.038-31.149-40.375-55.091c-0.111-0.798,1.134-0.899,1.245-0.105c3.481,24.979,22.391,44.215,43.462,56.346
				c13.063,7.521,27.38,12.913,42.073,16.205c14.379,3.222,29.124,4.661,43.322,8.709c45.598,13.003,83.721,48.782,99.903,93.303
				c9.466,26.042,11.559,54.404,6.384,81.594C2151.285,690.515,2150.055,690.297,2150.206,689.507L2150.206,689.507z"/>
		</g>
		<g>
			<path style="fill:#954067;" d="M1923.588,444.489c-1.201,24.75,25.723,40.665,44.697,50.459
				c22.737,11.736,47.291,19.271,71.053,28.568c43.293,16.937,84.24,43.858,104.083,87.558c10.734,23.64,14.259,50.419,8.173,75.781
				c-0.187,0.781-1.409,0.52-1.221-0.264c11.853-49.396-13.019-98.405-51.297-128.916c-19.57-15.599-42.065-26.124-65.321-34.982
				c-23.81-9.07-48.32-16.796-70.726-29.129c-18.041-9.93-41.827-25.513-40.687-49.005
				C1922.38,443.763,1923.627,443.687,1923.588,444.489L1923.588,444.489z"/>
		</g>
		<g>
			<path style="fill:#954067;" d="M1924.295,446.649c-14.786,25.612,14.508,48.416,33.311,60.45
				c20.759,13.286,43.52,22.931,65.664,33.595c36.285,17.475,75.34,40.983,90.039,80.768c8.673,23.474,6.431,49.92-5.381,71.883
				c-0.38,0.706-1.489,0.131-1.107-0.579c11.911-22.148,13.913-48.79,4.774-72.308c-7.772-20.002-22.55-36.326-39.299-49.353
				c-37.757-29.365-85.612-41.17-124.304-69.03c-16.951-12.205-37.734-33.607-24.804-56.005
				C1923.588,445.377,1924.698,445.95,1924.295,446.649L1924.295,446.649z"/>
		</g>
		<path style="fill:#FABBA5;" d="M1774.372,847.642c-0.425,1.102-1.16,2.059-2.111,2.759c-9.003,6.63-34.138,16.723-107.26,24.833
			c-51.81,5.746-107.029,3.737-107.029,3.737l-8.024-58.237c0,0,19.631,5.023,99.51-12.494c38.203-8.378,58.509-5.919,58.509-5.919
			S1805.357,767.214,1774.372,847.642z"/>
		<path style="fill:#75ACF2;" d="M1808.116,947.778l3.739-111.772c-1.353,7.587-4.515,14.896-8.602,21.33
			c-8.552,13.474-21.191,23.06-29.942,23.06h-103.1c-42.879,0-82.735,0-82.735,0c-18.068-10.163-10.282-59.923-10.282-59.923
			s141.833-27.814,154.471-41.079c16.358-17.193,19.859-86.345,35.133-149.828c13.922-57.855,56.94-74.312,56.94-74.312
			l76.788,129.094l19.62,258.129L1808.116,947.778z"/>
		<g>
			<path style="fill:#FABBA5;" d="M2022.331,1129.407c-61.955-31.142-217.696-17.929-282.551-38.205
				c-3.709-1.163-7.279-2.297-10.72-3.391c7.269,25.298,14.488,59.346,9.656,93.634c-2.506,17.78-7.299,48.567-12.45,80.895
				c-9.377,58.939-19.928,123.038-19.928,123.038c-28.54,15.642-67.272,11.436-67.272,11.436s-8.224-192.18-25.765-348.531
				c-1.004-9.009,3.401-71.697,75.824-81.532c77.683-10.531,141.494-21.131,193.89-31.304
				C2073.414,898.475,2084.765,1160.789,2022.331,1129.407z"/>
		</g>
		<path style="opacity:0.4;fill:#ED938B;" d="M1738.716,1181.445c-2.506,17.78-7.299,48.567-12.45,80.895
			c-41.845-7.896-14.021-126.181-42.998-186.78c-29.962-62.648,42.173-88.334,42.173-88.334l14.34,103.976
			c-3.709-1.163-7.279-2.297-10.72-3.391C1736.329,1113.109,1743.548,1147.157,1738.716,1181.445z"/>
		<path style="fill:#FABBA5;" d="M2100.773,998.046c3.533-55.49-39.82-100.571-85.487-88.814
			c-41.486,10.68-108.831,35.732-267.93,80.896c-127.918,36.313-18.528,118.375-1.446,107.12
			c34.206-22.539,167.425,51.501,297.847,7.015C2099.832,1085.137,2088.062,1031.631,2100.773,998.046L2100.773,998.046z"/>
		<path style="opacity:0.5;fill:#4B83DB;" d="M1836.379,795.684c0,0,9.968,87.955,1.766,125.245
			c-8.202,37.29,67.182-36.543,67.182-36.543l-6.714-50.175L1836.379,795.684z"/>
		<path style="fill:#FABBA5;" d="M1690.104,1057.353c75.063,212.771,99.821,354.222,99.821,354.222s41.748,6.761,65.482-15.502
			c0,0,2.464-107.53,9.215-157.785c9.689-72.132-30.229-125.739-42.522-145.781
			C1812.112,1076.222,1677.842,1022.596,1690.104,1057.353z"/>
		<path style="fill:#51497A;" d="M2101.188,1120.686c-32.298,8.84-82.964,5.837-130.656,1.402
			c-26.849-2.506-52.763-5.459-73.914-7.01c-42.242-3.103-56.936,6.173-56.936,6.173s-8.993-15.122-20.847-34.016
			c-24.124-38.474-66.506-94.946-101.5-83.302c-4.465,1.492-8.721,2.595-12.778,3.381c-0.02,0-0.04,0.01-0.05,0.01
			c-17.621,3.421-31.393,0.756-41.516-3.62c-14.767-6.364-21.818-16.348-21.818-16.348c14.429-15.423,55.568-38.583,142.191-56.483
			c40.085-8.283,65.88-17.452,82.029-24.92c14.946-6.901,24.82-21.519,25.606-37.966l0.597-12.49l162.357-47.254
			c0,0-3.202,31.145,44.729,105.666C2146.613,988.44,2187.98,1096.94,2101.188,1120.686z"/>
		<path style="fill:#FABBA5;" d="M1702.703,1485.257c-21.101,3.321-30.329,27.346-37.787,27.903c-7.458,0.557-82.536,4.912-89,0
			c-6.464-4.912,21.69-20.528,21.69-20.528c2.794-0.865,25.883-32.275,34.494-48.643c9.944-18.894,6.961-47.175,6.961-47.175
			l67.272-11.436c0,0-0.842,5.932-1.496,14.231c-1.476,18.73,2.673,42.755,5.822,52.749
			C1710.659,1452.358,1723.805,1481.935,1702.703,1485.257z"/>
		<path style="fill:#2D2B4E;" d="M1701.345,1492.936c-22.694,4.066-34.046,36.969-42.067,37.651l-96.988-0.663
			c-6.952-6.014,4.837-25.423,27.296-33.336c3.005-1.059,5.657-2.386,8.021-3.956c-0.15,0.475-3.337,11.674,15.507,9.958
			c19.25-1.741,45.452-2.958,62.029-26.696c16.577-23.738,34.826-25.897,34.826-25.897
			C1722.716,1463.877,1724.039,1488.87,1701.345,1492.936z"/>
		<path style="fill:#2D2B4E;" d="M1717.33,1481.736l-12.203,46.099c-0.429,1.622-1.897,2.752-3.575,2.752h-8.541
			c-2.71,0-4.89-2.227-4.833-4.936l0.787-36.975L1717.33,1481.736z"/>
		<path style="fill:#FABBA5;" d="M1852.972,1485.257c-21.101,3.321-30.329,27.346-37.787,27.903c-7.458,0.557-82.536,4.912-89,0
			c-6.464-4.912,21.69-20.528,21.69-20.528c2.794-0.865,25.883-32.275,34.494-48.643c9.944-18.894,6.961-47.175,6.961-47.175
			l66.526-16.948c0,0-0.096,11.444-0.75,19.743c-1.476,18.73,2.673,42.755,5.822,52.749
			C1860.927,1452.358,1874.073,1481.935,1852.972,1485.257z"/>
		<path style="fill:#51497A;" d="M1851.613,1492.936c-22.694,4.066-34.2,36.969-42.221,37.651l-95.628-0.663
			c-6.952-6.014,3.631-25.423,26.09-33.336c3.005-1.059,5.657-2.386,8.021-3.956c-0.15,0.475-3.337,11.674,15.507,9.958
			c19.25-1.741,45.453-2.958,62.029-26.696c16.577-23.738,34.826-25.897,34.826-25.897
			C1872.984,1463.877,1874.307,1488.87,1851.613,1492.936z"/>
		<path style="fill:#51497A;" d="M1867.598,1481.736l-12.793,46.438c-0.392,1.425-1.689,2.413-3.167,2.413h-9.472
			c-1.619,0-2.932-1.313-2.932-2.932v-38.979L1867.598,1481.736z"/>
		<path style="fill:#383463;" d="M1970.532,1122.088c-26.849-2.506-52.763-5.459-73.914-7.01
			c-42.242-3.103-56.936,6.173-56.936,6.173s-8.993-15.122-20.847-34.016c27.993-2.844,140.868-19.321,145.015-100.008
			C1967.37,918.711,1969.618,1050.182,1970.532,1122.088z"/>
		<path style="fill:#FABBA5;" d="M1568.577,830.09c0,0-40.256-27.17-39.358-11.399c1.406,24.674-47.376,15.842-49.641,24.011
			s22.176,24.821,33.297,32.302c11.121,7.481,39.369,8.714,50.065-0.783C1572.611,865.636,1568.577,830.09,1568.577,830.09z"/>
		<path style="fill:#FABBA5;" d="M1975.65,770.976c-7.07-90.466,15.169-212.146-8.429-220.109
			c-23.598-7.963-35.606-6.456-56.193-12.879c-25.433-7.935-27.29-10.89-66.878,11.421c-39.556,22.293-34.118,22.106-34.118,22.106
			s-21.864,98.541-21.657,122.135c0.319,36.311,20.718,43.487,20.718,43.487s44.259,48.512,51.721,74.905
			c2.175,7.694,20.634,8.267,20.634,8.267l135.843,1.06C2017.292,821.369,1977.583,795.711,1975.65,770.976z"/>
		<path style="fill:#FF6576;" d="M1991.329,668.632c0,0-11.008,86.238-11.839,99.682c-0.095,1.504,0.388,3.136,1.316,4.886
			c7.335,13.893,42.48,34.653,36.487,48.172c-1.763,3.968-13.896,8.54-30.87,13.114c0,0-0.01,0.002-0.028,0.015l-0.069,0.011
			c-0.067,0.021-0.156,0.036-0.281,0.077c-2.86,0.767-89.6,26.221-89.593,26.199c0.086-0.399-11.355,9.775-11.187,3.458
			c0.288-10.914-34.053-43.278-45.123-61.991l-0.003-0.02c-17.548-29.7-30.636-64.017-31.035-65.075
			c-0.013-0.018-0.015-0.028-0.015-0.028s-0.01,0.002-0.043-0.013c-0.547-0.122-6.849-1.67-13.072-6.958
			c-8.448-7.167-16.75-21.214-10.319-47.92c6.853-28.436,7.932-88.164,22.101-113.307c2.555-4.534,36.624-19.925,36.624-19.925
			s-13.289,64.608,0,77.829c13.084,13.022,41.126-3.611,60.889-44.707c2.402-4.996,20.105-34.742,26.481-39.714
			c0.318-0.248,20.308,2.416,43.442,8.997C1985.189,554.258,2003.832,573.275,1991.329,668.632z"/>
		<path style="fill:#FABBA5;" d="M2042.398,770.37c0,0-44.225-86.533-73.483-101.979c-29.259-15.446,34.224-47.438,62.394-40.611
			c28.17,6.827,85.781,116.311,65.734,180.633L2042.398,770.37z"/>
		<path style="fill:#752D4B;" d="M1798.663,433.814c0,0-16.073-20.71,1.151-47.505c17.225-26.795,30.199-35.384,54.889-35.638
			s54.82-6.275,73.68,9.446c29.221,24.358,37.783,69.876,18.772,109.064c-19.012,39.188-51.631,28.562-65.366,38.351
			C1868.053,517.32,1798.663,433.814,1798.663,433.814z"/>
		<path style="fill:#FABBA5;" d="M1916.822,554.081c0,0-21.488,29.602-60.387,24.085c0,0-1.09-19.003-5.612-36.769
			c-1.978-7.758-4.607-15.279-8.089-20.887c-0.534-0.863-1.091-1.68-1.664-2.443c-12.856-17.088,47.779-51.891,48.226-52.145
			c-0.1,0.309-3.404,10.237-1.814,24.488c0.324,2.94,0.859,6.065,1.674,9.327c0.886,3.542,2.096,7.245,3.73,11.049
			C1903.427,535.351,1916.822,554.081,1916.822,554.081z"/>
		<path style="fill:#ED938B;" d="M1887.482,490.409c0.324,2.94,0.859,6.065,1.674,9.327c-8.395,21.383-37.845,41.332-38.332,41.66
			c-1.978-7.758-4.607-15.279-8.089-20.887C1855.615,509.768,1878.851,491.323,1887.482,490.409z"/>
		<path style="fill:#75ACF2;" d="M1844.382,549.01c-18.421,1.979-36.625,19.925-36.625,19.925l-19.384,28.811l-14.073,103.719
			c0,0,35.041,139.663,35.363,199.979c0.042,7.755,29.724,8.166,31.022,0c11.875-74.669-12.891-248.045-12.891-248.045
			L1844.382,549.01z"/>
		<path style="fill:#FABBA5;" d="M1890.975,504.48c-31.831,25.417-63.384,24.333-71.071,22.146
			c-7.697-2.198-7.995-9.089-19.381-26.869c-7.846-12.251-9.904-23.856-8.989-32.627v-0.01c0.398-3.958,1.422-7.329,2.774-9.924
			c0.428-0.805,0.776-1.551,1.054-2.237c0.02-0.05,0.04-0.099,0.06-0.149c2.506-6.305-0.617-8.343-1.323-19.321
			c-0.159-2.586,0.657-5.917,2.058-9.576c0.627-1.631,1.362-3.321,2.178-5.032c6.036-12.709,16.368-26.789,16.368-26.789
			c52.316-37.718,92.898,4.554,96.965,24.741C1915.746,439.028,1922.806,479.063,1890.975,504.48z"/>
		<g>
			<path style="fill:#FABBA5;" d="M1870.191,817.602c0,0-55.756,30.556-53.824,34.877c3.443,7.698,18.869-1.802,18.869-1.802
				s-20.974,15.267-20.354,17.632c2.138,8.149,27.879-5.438,27.879-5.438s-16.576,11.367-15.163,13.935
				c4.442,8.069,29.731-5.77,29.731-5.77s-6.46,5.341-9.653,9.151c-1.302,1.554,4.654,5.802,8.775,3.393
				c10.432-6.097,27.413-12.806,38.764-16.788c1.396-0.49,3.769,0.922,7.129,2.318c11.935,4.958,33.442-14.46,39.136-25.44
				s-14.178-14.866-18.676-17.833C1911.693,818.505,1884.792,813.093,1870.191,817.602z"/>
			<g>
				<path style="fill:#E38472;" d="M1855.751,871.731c5.003-3.645,11.838-6.364,15.318-11.688c0.261-0.399,0.929-0.06,0.665,0.344
					c-3.583,5.482-10.435,8.227-15.575,11.972C1855.769,872.643,1855.362,872.014,1855.751,871.731L1855.751,871.731z"/>
			</g>
			<g>
				<path style="fill:#E38472;" d="M1838.293,865.697c4.498-3.592,9.302-6.755,14.085-9.948c3.259-2.175,8.588-4.716,10.549-8.272
					c0.232-0.421,0.899-0.079,0.665,0.344c-1.707,3.096-5.841,5.214-8.629,7.097c-5.49,3.707-11.08,7.268-16.262,11.406
					C1838.325,866.625,1837.919,865.995,1838.293,865.697L1838.293,865.697z"/>
			</g>
			<g>
				<path style="fill:#E38472;" d="M1831.711,852.425c8.436-6.414,19.623-10.357,26.934-18.096c0.33-0.35,0.886,0.152,0.554,0.503
					c-7.374,7.805-18.577,11.755-27.08,18.22C1831.735,853.344,1831.329,852.715,1831.711,852.425L1831.711,852.425z"/>
			</g>
			<g>
				<path style="fill:#E38472;" d="M1895.738,867.072c2.402-2.627,5.497-6.814,5.053-10.601c-0.056-0.48,0.692-0.522,0.747-0.045
					c0.473,4.033-2.677,8.339-5.246,11.149C1895.967,867.931,1895.411,867.429,1895.738,867.072L1895.738,867.072z"/>
			</g>
			<g>
				<path style="fill:#E38472;" d="M1895.736,867.242c1.105-2.458,1.349-5.069,0.708-7.689c-0.114-0.466,0.596-0.704,0.711-0.236
					c0.69,2.822,0.439,5.618-0.753,8.269C1896.204,868.025,1895.539,867.681,1895.736,867.242L1895.736,867.242z"/>
			</g>
			<g>
				<path style="fill:#E38472;" d="M1896.996,865.904c2.429,1.215,5.154,3.107,7.946,3.098c0.48-0.002,0.528,0.746,0.045,0.747
					c-2.995,0.01-5.741-1.883-8.335-3.18C1896.222,866.354,1896.564,865.688,1896.996,865.904L1896.996,865.904z"/>
			</g>
		</g>
		<path style="fill:#752D4B;" d="M1870.939,425.913c0,0-6.135-13.767-31.697-6.178c-15.198,4.512-12.634,11.612-3.911,10.217
			C1844.053,428.557,1846.405,420.097,1870.939,425.913z"/>
		<path style="fill:#752D4B;" d="M1804.209,431.289c-3.455-0.605-6.705-4.618-9.418-6.141c0.624-1.625,1.358-3.319,2.174-5.032
			c1.094,0.003,2.354,0.26,3.805,0.847C1810.783,425.046,1809.981,432.314,1804.209,431.289z"/>
		<path style="fill:#752D4B;" d="M1849.135,444.478c0.03,3.53-2.804,6.414-6.334,6.454c-3.53,0.04-6.414-2.794-6.454-6.324
			c0-0.239,0.01-0.477,0.04-0.706c0.02-0.219,0.05-0.428,0.089-0.636c0.08-0.408,0.199-0.806,0.368-1.183
			c5.102-0.487,8.264-1.193,10.451-2.019c0.746,0.766,1.313,1.7,1.601,2.764c0.02,0.04,0.03,0.089,0.04,0.129
			c0.02,0.08,0.04,0.159,0.05,0.239C1849.075,443.612,1849.125,444.04,1849.135,444.478z"/>
		<path style="fill:#752D4B;" d="M1808.941,445.134c0,0.388-0.03,0.776-0.109,1.144c-0.497,2.625-2.804,4.614-5.579,4.654
			c-2.993,0.04-5.469-2.228-5.768-5.141c-0.03-0.179-0.04-0.368-0.04-0.547c0-0.408,0.04-0.815,0.119-1.203
			c0.109-0.537,0.298-1.064,0.557-1.541c0.636,0.348,1.372,0.726,2.237,1.114c1.82,0.815,6.026,1.114,8.572,1.362
			C1808.941,445.025,1808.941,445.084,1808.941,445.134z"/>
		<g style="opacity:0.2;">
			<path style="fill:#ED4C62;" d="M1867.834,453.761c-3.673-2.493-8.833-3.189-13.405-1.808c-2.507,0.757-5.015,1.514-7.522,2.271
				c-4.928,1.488-10.155,3.15-12.943,6.74c-0.8,1.03-1.278,2.208-1.216,3.406c0.153,2.982,3.232,4.094,6.146,4.746
				c7.838,1.755,16.473,1.319,23.995-1.211c1.2-0.404,2.388-0.878,3.522-1.421C1872.278,463.678,1872.988,457.259,1867.834,453.761
				L1867.834,453.761z"/>
		</g>
		<g style="opacity:0.2;">
			<path style="fill:#ED4C62;" d="M1804.73,463.769c-0.04,2.297-1.422,3.202-2.735,3.749c-3.381,1.382-7.13,1.253-10.461-0.388
				v-0.01c0.398-3.958,1.422-7.329,2.774-9.924c0.428-0.805,0.776-1.551,1.054-2.237c0.02-0.05,0.04-0.099,0.06-0.149
				c0.915,0.438,1.83,0.875,2.745,1.313c2.257,1.084,4.654,2.297,5.966,5.032C1804.511,461.939,1804.74,462.844,1804.73,463.769z"/>
		</g>
		<path style="fill:#ED938B;" d="M1810.097,433.751c4.88,2.397,7.075,7.78,6.695,13.043c-0.465,6.442-4.608,11.928-8.413,16.838
			c-1.786,2.305-4.241,5.496-2.271,8.422c2.203,3.27,8.266,4.431,11.786,5.115c0.758,0.147,1.07-1.016,0.308-1.164
			c-2.942-0.572-6.647-1.33-9.14-3.061c-5.135-3.566-0.274-7.781,2.047-10.892c2.599-3.484,4.996-7.209,6.189-11.429
			c1.885-6.668-0.017-14.682-6.606-17.918C1810,432.364,1809.401,433.409,1810.097,433.751L1810.097,433.751z"/>
		<path style="fill:#FF676D;" d="M1807.668,487.783c0,0.01,0,0.01-0.001,0.02c0,0-0.002,0.04,0.003,0.12
			c0.003,0.12,0.002,0.33,0.026,0.622c0.012,0.151,0.023,0.311,0.043,0.493c0.358,3.832,2.483,15.186,15.08,13.2
			c12.183-1.928,15.661-11.281,16.547-14.815c0.064-0.247,0.106-0.464,0.146-0.642l0.002-0.03c-0.121-0.157-0.254-0.284-0.387-0.422
			l-0.01-0.001c-0.185,0.09-0.379,0.159-0.584,0.238c-3.784,1.302-9.484-0.384-12.713-2.613c-3.566-2.468-7.846,0.937-7.846,0.937
			s-0.01-0.001-0.019-0.021c-1.213-1.228-2.545-1.561-3.825-1.392C1810.865,483.897,1807.862,487.544,1807.668,487.783z"/>
		<g>
			<path style="fill:#F13A56;" d="M1807.5,488.474c0.069,0.024,0.127,0.057,0.196,0.071c10.308,4.131,21.7,3.48,31.31-1.502
				c0.175-0.08,0.34-0.171,0.505-0.262l0.002-0.03c-0.121-0.157-0.254-0.284-0.387-0.422l-0.01-0.001
				c-0.176,0.11-0.351,0.201-0.526,0.281c-9.504,4.868-20.752,5.437-30.9,1.315c-0.01-0.001-0.01-0.001-0.02-0.001
				C1807.337,487.805,1807.177,488.336,1807.5,488.474z"/>
		</g>
		<g>
			<path style="fill:#F13A56;" d="M1807.354,486.097c0.486,1.089,0.163,2.334-0.746,3.087c-0.283,0.235-0.61-0.234-0.328-0.467
				c0.721-0.597,0.917-1.577,0.54-2.421C1806.669,485.96,1807.205,485.763,1807.354,486.097L1807.354,486.097z"/>
		</g>
		<g>
			<path style="fill:#F13A56;" d="M1838.065,486.15c0.163,0.129,0.316,0.268,0.467,0.416c0.019,0.011,0.039,0.022,0.058,0.043
				c0.143,0.138,0.285,0.276,0.416,0.433c0.124,0.117,0.237,0.243,0.359,0.38c0.338,0.409,0.653,0.856,0.938,1.322
				c0.183,0.31,0.698,0.049,0.505-0.262c-0.375-0.631-0.803-1.215-1.295-1.732c-0.121-0.157-0.254-0.284-0.387-0.422l-0.01-0.001
				c-0.237-0.233-0.475-0.456-0.734-0.661C1838.094,485.442,1837.788,485.915,1838.065,486.15z"/>
		</g>
		<path style="fill:#FF8091;" d="M1825.91,493.491l-0.465-0.244c-2.599,0.057-5.24,0.11-7.751-0.565
			c-0.949-0.255-1.902-0.615-2.881-0.538c-0.979,0.078-2.005,0.773-2.042,1.755c-0.035,0.948,0.818,1.678,1.647,2.14
			c2.691,1.499,5.904,1.807,8.972,1.543c1.142-0.099,2.418-0.357,3.043-1.318C1827,495.394,1826.755,494.095,1825.91,493.491z"/>
		<g>
			<path style="fill:#ED938B;" d="M1814.461,510.565c4.453-1.785,9.106-2.084,13.733-0.773c1.491,0.423,0.815,2.734-0.677,2.311
				c-3.973-1.126-8.054-0.967-11.9,0.575C1814.193,513.249,1813.023,511.142,1814.461,510.565L1814.461,510.565z"/>
		</g>
		<g style="opacity:0.2;">
			<path style="fill:#FF6576;" d="M1810.464,469.404c3.615,0.519,7.043,1.61,10.292,3.277c1.375,0.705,0.355,2.888-1.029,2.178
				c-3.066-1.573-6.266-2.592-9.676-3.082C1808.515,471.556,1808.93,469.184,1810.464,469.404L1810.464,469.404z"/>
		</g>
		<path style="fill:#75ACF2;" d="M1917.463,539.82c0,0-29.017,88.925-32.06,149.001c-3.042,60.076,68.969,80.567,58.225,307.769
			c-5.772,122.06,6.646,187.148,13.662,207.677c0,0,92.171,30.396,130.137-6.801c37.966-37.197,54.909-62.565,85.963-69.076
			c0,0-11.661-97.327-51.918-197.052c-52.372-129.737-90.163-303.556-90.163-303.556L1917.463,539.82z"/>
		<path style="fill:#752D4B;" d="M1838.613,385.909c0,0,18.564-2.07,28.54,15.99c9.977,18.06,30.718,41.959,35.68,44.1
			c4.962,2.141-2.319,25.535-2.319,25.535s-18.689,21.853-8.372,37.448c0,0,25.487-18.112,33.158-33.5
			c7.67-15.389-6.991-70.665-21.265-88.368c-14.274-17.702-46.64-22.379-55.027-18.848
			C1840.621,371.797,1838.613,385.909,1838.613,385.909z"/>
		<g>
			<path style="fill:#FABBA5;" d="M1886.825,446.932c0,0,11.947-18.748,23.399-10.429c11.451,8.319-0.037,24.035-4.357,30.062
				c-4.624,6.452-7.341,6.531-15.628,4.55C1881.954,469.134,1886.825,446.932,1886.825,446.932z"/>
			<g>
				<g>
					<path style="fill:#ED938B;" d="M1890.731,468.883c4.225,6.256,11.316,1.784,14.607-2.648c2.614-3.521,4.972-7.776,6.599-11.847
						c2.3-5.754,3.683-14.175-3.007-17.699c-4.896-2.579-10.26-0.441-13.812,3.301c-0.551,0.58-1.51-0.221-0.954-0.806
						c3.794-3.996,9.342-6.281,14.684-3.897c6.36,2.838,7.063,9.923,5.461,15.987c-1.706,6.461-5.823,14.726-11.051,19.136
						c-4.073,3.435-10.337,3.947-13.549-0.808C1889.26,468.935,1890.281,468.215,1890.731,468.883L1890.731,468.883z"/>
				</g>
				<g>
					<path style="fill:#ED938B;" d="M1902.998,441.485c-1.884,0.65-3.343,1.852-4.377,3.607c-0.305,2.011-0.095,3.928,0.629,5.751
						c-0.039,0.525,0.052,1.077-0.068,1.618c-0.731,3.295-7.799,5.701-5.915,9.688c0.344,0.728-0.829,1.158-1.17,0.436
						c-0.816-1.726-0.619-3.207,0.472-4.775c2.369-3.404,5.613-2.97,4.82-8.47c-0.655-4.545,0.788-7.08,5.172-9.025
						C1903.299,439.987,1903.729,441.16,1902.998,441.485L1902.998,441.485z"/>
				</g>
			</g>
		</g>
		<path style="opacity:0.5;fill:#4B83DB;" d="M1935.847,871.872c0,0,91.596,25.276,164.897,3.984l-16.857-51.14l-143.735,35.228
			L1935.847,871.872z"/>
		<path style="fill:#752D4B;" d="M1838.613,385.909c0,0-19.962,1.458-34.285,21.454c-1.375,1.919-2.772,3.691-3.653,5.639
			c-7.046,15.588,1.048-51.765,48.333-44.736C1896.293,375.295,1838.613,385.909,1838.613,385.909z"/>
		<path style="fill:#75ACF2;" d="M1931.752,542.418c0,0,47.703,5.285,69.013,15.764c21.31,10.479,39.703,48.796,65.347,83.606
			c25.644,34.81,62.877,119.487,40.823,178.053c-22.055,58.566-169.221,64.749-186.789,45.309c0,0,8.768-17.807,4.95-36.792
			c0,0-1.347-12.671,15.558-24.078c8.367-5.646,3.042-24.53,5.046-29.769c6.143-16.053,24.571-64.213,24.571-64.213
			L1931.752,542.418z"/>
		<g>
			<path style="fill:#4B83DB;" d="M1924.874,828.411c-1.847-21.289,24.862-28.865,43.44-34.64
				c24.194-7.521,47.043-23.796,74.465-19.594c0.915,0.14,0.839,1.387-0.086,1.246c-25.339-3.883-46.253,10.088-68.312,17.715
				c-18.731,6.476-50.061,12.283-48.087,35.038C1926.364,828.968,1924.944,829.211,1924.874,828.411L1924.874,828.411z"/>
		</g>
		<g>
			<path style="fill:#4B83DB;" d="M2019.763,774.785c4.572-7.406,9.937-14.183,16.083-20.343c0.569-0.57,1.386,0.375,0.82,0.942
				c-6.077,6.09-11.354,12.785-15.871,20.104C2020.373,776.172,2019.34,775.469,2019.763,774.785L2019.763,774.785z"/>
		</g>
		<g>
			<path style="fill:#4B83DB;" d="M2019.419,774.949c-0.042-7.721-4.427-14.357-8.335-20.709
				c-3.859-6.272-7.485-12.681-10.813-19.251c-6.455-12.746-11.802-26-16.134-39.612c-0.244-0.766,0.983-1.007,1.224-0.248
				c4.837,15.201,10.978,29.958,18.488,44.036c3.503,6.567,7.492,12.816,11.229,19.243c3.013,5.183,5.554,10.53,5.586,16.626
				C2020.669,775.839,2019.423,775.749,2019.419,774.949L2019.419,774.949z"/>
		</g>
		<g>
			<path style="fill:#954067;" d="M1841.387,379.968c40.164-2.543,55.063,50.617,94.384,50.445c0.798-0.004,0.924,1.24,0.12,1.243
				c-39.511,0.172-54.492-52.971-94.384-50.445C1840.705,381.262,1840.584,380.019,1841.387,379.968L1841.387,379.968z"/>
		</g>
		<g>
			<path style="fill:#954067;" d="M1841.465,379.542c17.256-9.367,34.878,3.26,48.034,13.822
				c9.289,7.457,18.739,13.999,30.462,16.921c11.625,2.897,23.785,2.343,35.151-1.363c0.764-0.249,1.201,0.921,0.436,1.17
				c-18.03,5.879-38.071,3.75-54.194-6.388c-16.918-10.638-36.757-35.308-59.171-23.141
				C1841.484,380.943,1840.759,379.926,1841.465,379.542L1841.465,379.542z"/>
		</g>
		<path style="opacity:0.5;fill:#4B83DB;" d="M1991.923,715.793c-5.099-10.876,13.958,30.001-0.302,48.046
			c-14.26,18.045-35.607,33.872-35.607,33.872s39.596-13.16,63.747-22.927C2024.764,772.762,2000.656,734.419,1991.923,715.793z"/>
		<g>
			<path style="fill:#4B83DB;" d="M2007.641,565.227c-10.981,3.802-22.807,7.955-30.923,17.113
				c-8.855,9.992-11.177,25.26-12.006,38.373c-1.664,26.292,5.536,52.711,20.074,74.056c-0.338,0.251-0.676,0.503-1.014,0.754
				c-1.418-3.769-2.836-7.539-4.254-11.308c-0.293-0.779,0.81-1.402,1.106-0.617c1.418,3.769,2.836,7.539,4.254,11.308
				c0.236,0.627-0.566,1.412-1.014,0.754c-15.362-22.556-22.699-50.651-20.136-78.394c1.157-12.523,3.704-26.383,12.147-35.894
				c8.276-9.321,20.294-13.551,31.488-17.427C2008.129,563.681,2008.4,564.964,2007.641,565.227L2007.641,565.227z"/>
		</g>
		<g>
			<path style="fill:#4B83DB;" d="M1983.753,571.569c-14.552-12.146-31.698-20.441-50.274-24.235
				c-0.776-0.159-0.7-1.406,0.086-1.246c18.8,3.84,36.156,12.149,50.891,24.448C1985.067,571.046,1984.372,572.085,1983.753,571.569
				L1983.753,571.569z"/>
		</g>
		<g>
			<path style="fill:#752D4B;" d="M1863.297,354.082c-12.077-5.562-27.79-3.918-39.184,2.76
				c-12.662,7.421-14.352,21.292-14.966,34.67c-0.037,0.801-1.267,0.579-1.23-0.214c0.663-14.45,2.871-28.77,16.774-36.201
				c11.667-6.236,27.002-7.734,39.14-2.144C1864.56,353.288,1864.029,354.419,1863.297,354.082L1863.297,354.082z"/>
		</g>
		<path style="fill:#FABBA5;" d="M1566.595,829.968c0,0-17.526-16.771-26.073-17.674c-8.546-0.903-27.789,7.691-35.958,5.426
			c-8.169-2.265-6.406,5.921,1.849,9.859c8.255,3.938,29.019-4.434,43.802,7.927C1553.531,838.28,1566.595,829.968,1566.595,829.968
			z"/>
		<g>
			<path style="fill:#DC826F;" d="M1533.32,828.716c3.691,4.543,7.044,9.25,12.525,11.751c5.018,2.29,10.564,2.888,15.996,3.445
				c0.793,0.081,0.784,1.331-0.017,1.249c-5.569-0.571-11.327-1.163-16.479-3.513c-5.627-2.566-9.105-7.369-12.908-12.05
				C1531.932,828.979,1532.813,828.093,1533.32,828.716L1533.32,828.716z"/>
		</g>
		<g>
			<path style="fill:#DC826F;" d="M1562.723,825.94c1.871,2.392,3.172,5.032,3.886,7.985c0.189,0.78-1.022,1.088-1.211,0.304
				c-0.659-2.723-1.832-5.198-3.559-7.407C1561.349,826.196,1562.229,825.308,1562.723,825.94L1562.723,825.94z"/>
		</g>
		<g>
			<path style="fill:#DC826F;" d="M1567.037,865.548c-0.266,3.533-1.459,6.843-3.553,9.705c-0.471,0.643-1.554,0.02-1.08-0.628
				c1.967-2.688,3.133-5.769,3.384-9.094C1565.849,864.733,1567.098,864.744,1567.037,865.548L1567.037,865.548z"/>
		</g>
		<g>
			<path style="fill:#752D4B;" d="M1857.309,439.505c-2.695,1.591-5.519,2.645-8.413,3.321c-4.047,0.965-8.254,1.173-12.51,1.074
				c-1.253-0.04-2.506-0.099-3.769-0.169c-3.182-0.189-3.381-1.104-0.189-1.303c1.621-0.1,3.083-0.209,4.415-0.348
				c5.102-0.487,8.264-1.193,10.451-2.019c3.719-1.412,4.654-3.172,7.508-4.853C1857.568,433.579,1860.063,437.875,1857.309,439.505
				z"/>
		</g>
		<g>
			<path style="fill:#752D4B;" d="M1810.741,445.502c-0.05,0.378-0.786,0.626-1.909,0.776c-2.933,0.398-8.522,0.119-11.346-0.487
				c-1.661-0.358-3.331-0.984-5.022-1.989c-2.088-1.233-1.333-5.768,0.766-4.534c1.472,0.865,2.546,1.929,4.892,3.232
				c0.636,0.348,1.372,0.726,2.237,1.114c1.82,0.815,6.026,1.114,8.572,1.362C1810.572,445.134,1811.526,445.263,1810.741,445.502z"
				/>
		</g>
		<path style="fill:#DDEFFF;" d="M1917.463,539.82c0,0-34.643,98.398-32.06,149.001c0,0,24.751-26.935,29.914-45.829
			c0,0-8.825-11.174-8.543-16.153c0,0,10.971-4.245,18.927-1.255c0,0,18.302-41.351,22.948-80.834
			C1948.648,544.749,1934.666,536.918,1917.463,539.82z"/>
		<path style="fill:#DDEFFF;" d="M1851.734,545.195c0,0-26.937,84.769-17.105,163.547c0,0-25.523-52.472-24.529-77.094
			c0,0,9.281-3.088,10.938-6.065c0,0-7.955-10.032-13.259-10.814c0,0,11.139-44.437,24.132-59.9
			C1844.904,539.407,1851.734,545.195,1851.734,545.195z"/>
		<path style="opacity:0.5;fill:#4B83DB;" d="M1805.348,853.808c-8.096,15.412-23.286,26.589-32.036,26.589h-103.1
			c7.448-5.857,22.822-15.443,43.555-15.463c29.832-0.02,57.427-22.046,60.54-39.21c3.102-17.164-22.334-96.876,0-136.901
			c0,0-5.429,38.454,10.103,69.818C1796.083,782.209,1803.448,829.853,1805.348,853.808z"/>
		<g>
			<path style="fill:#4B83DB;" d="M1712.712,789.089c9.047-3.808,18.902-7.206,28.714-4.222c8.72,2.652,15.463,9.271,19.881,17.047
				c0.395,0.695,1.469,0.07,1.073-0.628c-4.345-7.646-10.849-14.132-19.24-17.157c-10.404-3.752-21.02-0.338-30.76,3.761
				C1711.655,788.196,1711.974,789.399,1712.712,789.089L1712.712,789.089z"/>
		</g>
		<g>
			<path style="fill:#4B83DB;" d="M1743.128,778.296c-6.818-1.161-15.067,2.623-20.976,5.713c-0.709,0.371-0.081,1.444,0.627,1.073
				c5.416-2.832,13.7-6.663,20.019-5.587C1743.58,779.628,1743.917,778.431,1743.128,778.296L1743.128,778.296z"/>
		</g>
		<g>
			<path style="fill:#4B83DB;" d="M2021.573,1055.973c-7.6,0-12.305-1.246-14.023-3.72c-8.399-12.103-19.198-70.1-19.653-72.563
				c-0.029-0.154,0.017-0.315,0.125-0.429c0.107-0.117,0.254-0.175,0.42-0.155c51.761,5.875,98.266-21.531,98.729-21.809
				c0.131-0.078,0.293-0.093,0.435-0.037c0.143,0.055,0.252,0.174,0.296,0.32c0.054,0.179,5.422,18.12,10.356,36.559
				c10.028,37.472,8.56,40.406,8.078,41.37c-2.476,4.953-51.208,18.273-78.212,20.208
				C2025.744,1055.887,2023.558,1055.973,2021.573,1055.973z M1988.998,980.168c1.244,6.588,11.563,60.27,19.37,71.518
				c1.924,2.773,8.728,3.824,19.686,3.04c29.546-2.117,75.485-15.844,77.393-19.661c2.351-4.703-12.251-56.296-18.317-76.597
				C2081.733,961.534,2037.778,985.445,1988.998,980.168z"/>
		</g>
		<g>
			<path style="fill:#4B83DB;" d="M1967.962,895.094c0.606,7.534,6.045,13.585,10.769,19.113
				c5.631,6.59,11.949,12.581,18.803,17.886c13.003,10.065,27.83,17.483,43.633,21.99c0.771,0.22,1.099-0.979,0.33-1.199
				c-14.634-4.174-28.423-10.856-40.693-19.871c-6.304-4.632-12.186-9.853-17.522-15.573c-5.617-6.021-13.385-13.749-14.076-22.347
				C1969.141,894.302,1967.898,894.295,1967.962,895.094L1967.962,895.094z"/>
		</g>
		<g>
			<path style="fill:#4B83DB;" d="M2012.968,927.614c5.009,3.594,10.019,7.189,15.028,10.783c0.651,0.467,1.272-0.61,0.627-1.073
				c-5.009-3.594-10.019-7.188-15.028-10.783C2012.944,926.073,2012.323,927.151,2012.968,927.614L2012.968,927.614z"/>
		</g>
		<path style="fill:#383463;" d="M1824.474,957.722c-16.965,16.965-116.793,48.607-119.916,49.591c-0.02,0-0.04,0.01-0.05,0.01
			c-17.621,3.421-31.393,0.756-41.516-3.62c5.081-19.142,93.365-26.093,120.373-33.959
			C1810.383,961.879,1841.707,940.489,1824.474,957.722z"/>
		<g>
			<path style="fill:#4B83DB;" d="M1773.414,666.691c1.853,21.483-2.516,43.054,0.869,64.463
				c2.852,18.033,11.99,37.764,29.243,46.123c0.717,0.347,1.348-0.724,0.627-1.073c-18.628-9.025-27.222-30.885-29.317-50.272
				c-2.131-19.724,1.523-39.496-0.179-59.241C1774.589,665.9,1773.345,665.892,1773.414,666.691L1773.414,666.691z"/>
		</g>
	</g>
	<g>
		<g>
			<path style="fill:#383463;" d="M1968.056,1529.28c-1.465,0-2.734-1.091-2.921-2.582l-78.292-626.316
				c-0.202-1.616,0.944-3.088,2.559-3.29c1.613-0.197,3.088,0.944,3.29,2.558l78.292,626.316c0.202,1.616-0.944,3.088-2.559,3.29
				C1968.301,1529.272,1968.177,1529.28,1968.056,1529.28z"/>
		</g>
		<g>
			<path style="fill:#383463;" d="M963.135,1529.726c-0.122,0-0.245-0.008-0.369-0.023c-1.616-0.202-2.762-1.676-2.559-3.29
				l78.291-626.762c0.201-1.615,1.672-2.756,3.29-2.56c1.616,0.202,2.762,1.676,2.56,3.29l-78.291,626.762
				C965.871,1528.634,964.6,1529.726,963.135,1529.726z"/>
		</g>
		<g>
			<path style="fill:#2D2B4E;" d="M1985.043,900.017h-956.866c-5.811,0-10.522-4.711-10.522-10.522l0,0
				c0-5.811,4.711-10.523,10.523-10.523h956.866c5.811,0,10.522,4.711,10.522,10.522v0
				C1995.565,895.306,1990.854,900.017,1985.043,900.017z"/>
			<path style="fill:#666294;" d="M2019.98,900.017h-760.905c-5.811,0-10.522-4.711-10.522-10.522v0
				c0-5.811,4.711-10.522,10.522-10.522h760.906c5.811,0,10.522,4.711,10.522,10.522l0,0
				C2030.503,895.306,2025.792,900.017,2019.98,900.017z"/>
		</g>
		<g>
			<path style="fill:#383463;" d="M1230.213,1529.924c-0.122,0-0.245-0.007-0.369-0.023c-1.616-0.202-2.762-1.675-2.56-3.29
				l78.292-626.959c0.201-1.617,1.673-2.77,3.291-2.561c1.616,0.202,2.762,1.675,2.56,3.29l-78.292,626.959
				C1232.949,1528.832,1231.679,1529.924,1230.213,1529.924z"/>
		</g>
	</g>
	<path style="opacity:0.2;fill:#ABC7F2;" d="M1636.611,570.063h-280.387c-12.506,0-22.644-10.138-22.644-22.644V229.296
		c0-12.506,10.138-22.644,22.644-22.644h280.387c12.506,0,22.644,10.138,22.644,22.644v318.123
		C1659.255,559.925,1649.117,570.063,1636.611,570.063z"/>
	<path style="fill:#2D2B4E;" d="M1563.339,855.369l-123.001-42.581c-0.897-0.311-1.799-0.489-2.69-0.558v-0.007h-0.28
		c-0.383-0.019-0.763-0.022-1.139,0h-74.192l7.328,32.035h56.847v24.07c0,5.878,4.765,10.644,10.644,10.644h123.001
		c5.878,0,10.644-4.765,10.644-10.644v-2.901C1570.501,860.891,1567.626,856.853,1563.339,855.369z"/>
	<path style="fill:#51497A;" d="M1485.774,878.972h-123.001c-5.878,0-10.644-4.765-10.644-10.644v-45.482
		c0-7.317,7.212-12.451,14.126-10.058l123.001,42.581c4.287,1.484,7.162,5.522,7.162,10.058v2.901
		C1496.417,874.206,1491.652,878.972,1485.774,878.972z"/>
	<path style="fill:#51497A;" d="M997.847,763.216c0,0,63.897-19.812,92.578-58.753l30.89,52.808c0,0-15.601,44.53-97.076,56.938
		L997.847,763.216z"/>
	<g>
		<path style="fill:#51497A;" d="M1080.6,787.274c9.503,5.977,17.781,13.708,24.18,22.955c6.681,9.653,10.145,20.45,14.205,31.34
			c6.872,18.435,19.187,34.192,40.827,31.387c11.111-1.44,21.375-6.336,32.299-8.594c11.656-2.409,23.758-1.622,35.442,0.157
			c21.534,3.278,42.864,10.04,64.858,9.069c25.821-1.139,49.571-16.694,75.718-13.432c3.167,0.395,3.138-4.581,0-4.972
			c-22.453-2.801-42.947,8.213-64.52,12.168c-22.869,4.193-45.62-2.463-67.999-6.497c-10.169-1.833-20.503-3.252-30.86-2.911
			c-10.967,0.361-21.06,3.431-31.457,6.661c-10.987,3.412-23.298,6.469-33.597-0.531c-9.16-6.226-13.547-17.119-17.112-27.136
			c-4.014-11.279-8.139-22.105-15.36-31.792c-6.604-8.859-14.769-16.288-24.115-22.166
			C1080.393,781.273,1077.895,785.573,1080.6,787.274L1080.6,787.274z"/>
	</g>
	<g>
		<path style="fill:#752D4B;" d="M884.724,463.611c8.34,5.691,18.166,5.979,27.92,5.198c0.792-0.064,0.799-1.307,0-1.243
			c-9.539,0.764-19.11,0.556-27.292-5.028C884.689,462.086,884.067,463.163,884.724,463.611L884.724,463.611z"/>
	</g>
	<g>
		<path style="fill:#752D4B;" d="M885.612,460.455c-1.039,1.506-1.605,3.206-1.725,5.029c-0.052,0.799,1.191,0.796,1.243,0
			c0.106-1.61,0.64-3.076,1.555-4.402C887.141,460.422,886.064,459.8,885.612,460.455L885.612,460.455z"/>
	</g>
	<path style="fill:#752D4B;" d="M1838.613,382.089c0,0,23.175,4.668,25.567,24.556c2.391,19.888,17.886,30.504,29.985,28.718
		v-11.979c0,0-18.729,1.599-22.87-11.853c-4.141-13.452-4.368-24.096-16.74-29.442
		C1842.183,376.743,1838.613,382.089,1838.613,382.089z"/>
	<g>
		<path style="fill:#E58F78;" d="M653.814,826.065c19.876-3.686,40.292-0.378,58,9.367c0.701,0.386,1.329-0.687,0.627-1.073
			c-18.018-9.916-38.738-13.242-58.958-9.492C652.698,825.012,653.031,826.21,653.814,826.065L653.814,826.065z"/>
	</g>
	<path style="opacity:0.4;fill:#E84261;" d="M757.803,856.449c0,0,62.979,54.247,109.385,53.641
		c46.406-0.606,46.07,1.366,40.603,8.335c-5.467,6.969-53.199,22.88-67.784,18.239C825.423,932.024,745.87,853.134,757.803,856.449z
		"/>
	<path style="opacity:0.4;fill:#E84261;" d="M880.217,945.283c0,0,46.854-6.239,52.38-14.058
		c5.526-7.819,19.013-29.696,22.214-25.056c3.201,4.641-1.044,32.484-9.197,39.114S871.161,946.644,880.217,945.283z"/>
	<g>
		<path style="fill:#FF6576;" d="M1585.832,255.403c-40.166-18.025-82.456,15.398-89.627,43.193
			c-7.885-31.27-49.856-60.825-89.146-43.193c-61.272,27.491-19.448,121.058,89.267,173.426
			C1605.041,376.461,1647.103,282.894,1585.832,255.403z"/>
		<g>
			<path style="fill:none;" d="M1451.343,378.343c-0.075,0-0.149-0.003-0.223-0.009c-1.225-0.104-2.213-1.049-2.371-2.269
				l-9.433-72.789l-13.523,30.929c-0.417,0.952-1.357,1.567-2.396,1.567h-51.231c-1.444,0-2.614-1.17-2.614-2.614
				s1.17-2.614,2.614-2.614h49.521l16.614-37.999c0.471-1.076,1.598-1.71,2.765-1.541c1.163,0.166,2.072,1.087,2.224,2.252
				l9.097,70.193l9.097-29.557c0.338-1.097,1.351-1.845,2.499-1.845h18.348l6.541-30.381c0.267-1.238,1.382-2.1,2.648-2.063
				c1.265,0.045,2.317,0.99,2.496,2.244l8.115,56.958l4.186-24.583c0.214-1.256,1.303-2.175,2.577-2.175h25.815l8.052-38.983
				c0.258-1.252,1.39-2.15,2.66-2.084c1.277,0.049,2.332,1.014,2.493,2.282l8.363,65.549l4.937-26.636
				c0.23-1.239,1.31-2.138,2.571-2.138h56.886c1.444,0,2.614,1.17,2.614,2.614s-1.17,2.614-2.614,2.614h-54.712l-7.588,40.941
				c-0.235,1.267-1.37,2.168-2.644,2.137c-1.288-0.036-2.357-1.005-2.519-2.283l-8.496-66.591l-5.313,25.721
				c-0.25,1.214-1.32,2.086-2.56,2.086h-25.738l-6.621,38.893c-0.215,1.258-1.304,2.175-2.576,2.175c-0.013,0-0.024,0-0.036,0
				c-1.289-0.018-2.372-0.971-2.553-2.246l-8.41-59.028l-3.906,18.141c-0.259,1.204-1.325,2.064-2.556,2.064h-18.529l-12.073,39.223
				C1453.499,377.601,1452.48,378.343,1451.343,378.343z"/>
		</g>
	</g>
	<g>
		<g>
			<path style="fill:none;" d="M1376.816,468.865c27.806-1.631,55.655-2.203,83.504-1.714c3.201,0.056,3.201-4.916,0-4.972
				c-27.849-0.489-55.699,0.083-83.504,1.715C1373.635,464.08,1373.614,469.053,1376.816,468.865L1376.816,468.865z"/>
		</g>
		<g>
			<path style="fill:none;" d="M1482.235,468.986c45.526-0.497,91.056-0.363,136.578,0.403c3.201,0.054,3.201-4.918,0-4.972
				c-45.522-0.766-91.052-0.9-136.578-0.403C1479.038,464.049,1479.03,469.021,1482.235,468.986L1482.235,468.986z"/>
		</g>
		<g>
			<path style="fill:none;" d="M1376.54,490.674c39.115,0.005,78.23,0.01,117.345,0.015c3.199,0,3.204-4.972,0-4.972
				c-39.115-0.005-78.23-0.01-117.345-0.015C1373.34,485.702,1373.335,490.673,1376.54,490.674L1376.54,490.674z"/>
		</g>
		<g>
			<path style="fill:none;" d="M1514.45,491.564c27.623,0.976,55.266,0.812,82.875-0.492c3.186-0.151,3.204-5.123,0-4.972
				c-27.61,1.304-55.252,1.468-82.875,0.492C1511.25,486.478,1511.255,491.451,1514.45,491.564L1514.45,491.564z"/>
		</g>
		<g>
			<path style="fill:none;" d="M1377.579,512.39c15.499-0.636,30.986-0.244,46.433,1.173c3.185,0.292,3.165-4.682,0-4.972
				c-15.447-1.418-30.934-1.809-46.433-1.173C1374.391,507.548,1374.374,512.521,1377.579,512.39L1377.579,512.39z"/>
		</g>
		<g>
			<path style="fill:none;" d="M1441.254,513.772c28.062-0.417,56.124-0.834,84.186-1.251c3.196-0.047,3.206-5.02,0-4.972
				c-28.062,0.417-56.124,0.834-84.186,1.251C1438.058,508.847,1438.048,513.819,1441.254,513.772L1441.254,513.772z"/>
		</g>
	</g>
	<g>
		<path style="fill:#4B83DB;" d="M2078.447,1156.775c-20.625,14.111-43.889,23.653-68.48,28.092c-0.786,0.142-0.453,1.34,0.33,1.198
			c24.695-4.458,48.067-14.048,68.777-28.218C2079.731,1157.4,2079.11,1156.322,2078.447,1156.775L2078.447,1156.775z"/>
	</g>
	<g>
		<path style="fill:#4B83DB;" d="M1980.305,1159.277c21.73,6.261,44.514,6.99,66.604,2.149c0.781-0.171,0.45-1.37-0.33-1.199
			c-21.881,4.795-44.419,4.053-65.944-2.149C1979.865,1157.856,1979.536,1159.056,1980.305,1159.277L1980.305,1159.277z"/>
	</g>
	<g>
		<g>
			<path style="fill:none;" d="M2155.764,1494.967c-0.486-2.549,1.135-4.956,2.397-7.223c1.263-2.268,2.152-5.31,0.466-7.283
				c-0.914-1.069-2.35-1.502-3.704-1.884c-6.005-1.695-12.01-3.389-18.016-5.084l-3.343-1.09
				c-4.694,3.982-10.208,6.991-16.096,8.785c1.178,4.346,1.885,8.82,2.105,13.318c-2.97,1.03-5.94,2.059-8.91,3.089
				c-0.938,0.325-2,0.775-2.281,1.727c-0.162,0.55-0.013,1.137,0.135,1.691c1.576,5.868,3.152,11.736,4.728,17.603
				c0.336,1.249,0.714,2.57,1.67,3.442c0.691,0.63,1.605,0.945,2.49,1.245c2.477,0.839,4.954,1.677,7.431,2.516
				c1.487,0.504,3.25,0.972,4.523,0.053c2.127-1.534,1.519-5.97,4.126-6.252c0.853-0.092,1.648,0.399,2.366,0.869
				c2.857,1.87,6.233,3.799,9.494,2.789c1.22-0.378,2.28-1.141,3.295-1.917c6.16-4.709,11.578-10.388,15.993-16.763
				C2162.764,1500.551,2156.6,1499.346,2155.764,1494.967z"/>
		</g>
		<g>
			<path style="fill:none;" d="M2244.949,1502.928c0.358-2.571,2.666-4.329,4.59-6.071c1.924-1.742,3.744-4.338,2.78-6.748
				c-0.522-1.306-1.743-2.177-2.903-2.974c-5.143-3.533-10.286-7.067-15.429-10.6l-2.816-2.106
				c-5.724,2.264-11.913,3.343-18.065,3.15c-0.28,4.494-1.047,8.959-2.283,13.289c-3.143,0.021-6.286,0.043-9.43,0.064
				c-0.993,0.007-2.143,0.091-2.715,0.903c-0.33,0.469-0.378,1.073-0.415,1.645c-0.392,6.063-0.783,12.126-1.175,18.189
				c-0.083,1.291-0.15,2.663,0.476,3.796c0.453,0.818,1.217,1.411,1.959,1.979c2.076,1.59,4.153,3.179,6.229,4.769
				c1.247,0.954,2.766,1.964,4.266,1.503c2.507-0.77,3.355-5.166,5.915-4.596c0.837,0.187,1.432,0.907,1.961,1.583
				c2.105,2.688,4.683,5.6,8.096,5.69c1.277,0.034,2.525-0.348,3.735-0.757c7.346-2.482,14.301-6.12,20.529-10.739
				C2249.785,1510.464,2244.334,1507.343,2244.949,1502.928z"/>
		</g>
		<g>
			<path style="fill:none;" d="M2212.547,1474.918c0.358-2.571,2.666-4.329,4.59-6.071c1.924-1.742,3.743-4.338,2.78-6.748
				c-0.522-1.306-1.743-2.177-2.903-2.974c-5.143-3.533-10.286-7.067-15.429-10.6l-2.816-2.106
				c-5.724,2.264-11.913,3.343-18.065,3.15c-0.28,4.495-1.047,8.959-2.283,13.289c-3.143,0.021-6.286,0.043-9.43,0.064
				c-0.993,0.007-2.143,0.091-2.714,0.903c-0.33,0.469-0.378,1.073-0.415,1.645c-0.392,6.063-0.784,12.126-1.175,18.189
				c-0.083,1.291-0.15,2.663,0.476,3.796c0.453,0.818,1.217,1.411,1.959,1.979c2.076,1.59,4.153,3.179,6.229,4.769
				c1.247,0.954,2.766,1.964,4.267,1.503c2.507-0.77,3.355-5.166,5.915-4.596c0.838,0.187,1.432,0.907,1.961,1.583
				c2.105,2.688,4.683,5.6,8.096,5.69c1.277,0.034,2.525-0.348,3.736-0.757c7.346-2.482,14.301-6.12,20.529-10.739
				C2217.383,1482.454,2211.932,1479.333,2212.547,1474.918z"/>
		</g>
		<g style="opacity:0.7;">
			<g>
				<path style="fill:#ABC7F2;" d="M2270.171,1530.587H2105.03c-3.29,0-6.098-2.458-6.532-5.718l-37.451-285.911h244.561
					l-0.51,5.119l-27.562,279.838C2277.166,1527.719,2273.999,1530.587,2270.171,1530.587z M2063.328,1240.958l0.381,2.89
					l36.772,280.759c0.302,2.268,2.258,3.98,4.549,3.98h165.141c2.794,0,5.104-2.093,5.375-4.867l27.853-282.763H2063.328z"/>
			</g>
			<g>
				<path style="fill:#ABC7F2;" d="M2304.977,1243.982h-243.349c-2.025,0-3.667-1.642-3.667-3.667l0,0
					c0-2.025,1.642-3.667,3.667-3.667h243.349c2.025,0,3.667,1.642,3.667,3.667l0,0
					C2308.644,1242.34,2307.002,1243.982,2304.977,1243.982z"/>
			</g>
			<g>
				
					<rect x="2156.634" y="1240.145" transform="matrix(0.9988 -0.0484 0.0484 0.9988 -64.5446 106.1499)" style="fill:#ABC7F2;" width="2" height="289.011"/>
			</g>
			<g>
				
					<rect x="2131.09" y="1239.748" transform="matrix(0.9961 -0.0883 0.0883 0.9961 -113.9167 193.6348)" style="fill:#ABC7F2;" width="2" height="289.803"/>
			</g>
			<g>
				
					<rect x="2103.489" y="1239.26" transform="matrix(0.9927 -0.1202 0.1202 0.9927 -151.1783 263.002)" style="fill:#ABC7F2;" width="2" height="290.779"/>
			</g>
			<g>
				
					<rect x="2098.706" y="1383.65" transform="matrix(0.0773 -0.997 0.997 0.0773 689.5277 3514.3633)" style="fill:#ABC7F2;" width="289.534" height="2"/>
			</g>
			<g>
				
					<rect x="2123.07" y="1383.316" transform="matrix(0.0942 -0.9956 0.9956 0.0942 676.577 3512.2397)" style="fill:#ABC7F2;" width="290.642" height="2"/>
			</g>
			<g>
				
					<rect x="2072.215" y="1383.12" transform="matrix(0.0398 -0.9992 0.9992 0.0398 746.4084 3545.0078)" style="fill:#ABC7F2;" width="291.178" height="2"/>
			</g>
			<g>
				<rect x="2185.919" y="1243.982" style="fill:#ABC7F2;" width="2" height="285.004"/>
			</g>
		</g>
	</g>
</g>
</svg>
