<?xml version="1.0" encoding="utf-8"?>
<!-- Generator: Adobe Illustrator 27.5.0, SVG Export Plug-In . SVG Version: 6.00 Build 0)  -->
<svg version="1.1" xmlns="http://www.w3.org/2000/svg" xmlns:xlink="http://www.w3.org/1999/xlink" x="0px" y="0px"
	 viewBox="0 0 750 500" style="enable-background:new 0 0 750 500;" xml:space="preserve">
<g id="BACKGROUND">
	<polygon style="fill:none;" points="750,498.266 0,499.344 0,0.422 750,-1.734 	"/>
</g>
<g id="OBJECTS">
	<ellipse style="fill:#E6D6E6;" cx="162.761" cy="431.822" rx="74.08" ry="12.88"/>
	<ellipse style="fill:#E6D6E6;" cx="594.412" cy="431.822" rx="74.08" ry="12.88"/>
	<g>
		<path style="fill:#ADE3CA;" d="M252.207,320.414c0.122-1.275-1.852-1.599-1.975-0.315c-2.031,21.132-9.172,41.724-20.695,59.561
			c-3.239,5.014-6.819,9.799-10.7,14.333c-0.787,0.92,0.521,2.066,1.377,1.401c0.17-0.095,0.308-0.229,0.393-0.402
			c13.829-16.243,23.671-35.753,28.606-56.503C250.627,332.542,251.621,326.501,252.207,320.414z"/>
		<path style="fill:#ADE3CA;" d="M250.134,309.018c1.005-2.211,3.07-4.598,4.442-0.805c1.145,3.165-0.638,8.435-1.853,11.322
			c-0.413,0.98-1.428,2.118-2.316,1.532c-0.261-0.172-0.418-0.462-0.544-0.749c-1.336-3.059-0.969-6.689-0.24-9.851
			C249.72,310.048,249.898,309.538,250.134,309.018z"/>
		<g>
			<path style="fill:#ADE3CA;" d="M240.615,322.81c-0.557-2.365-0.383-5.516,3.023-3.353c2.841,1.804,4.653,7.065,5.456,10.092
				c0.273,1.028,0.165,2.549-0.895,2.628c-0.312,0.023-0.613-0.11-0.888-0.26c-2.928-1.604-4.857-4.7-6.214-7.648
				C240.917,323.878,240.746,323.366,240.615,322.81z"/>
			<path style="fill:#ADE3CA;" d="M258.015,323.819c2.307-0.76,5.461-0.861,3.603,2.719c-1.55,2.987-6.633,5.251-9.579,6.314
				c-1,0.361-2.525,0.386-2.696-0.663c-0.05-0.309,0.056-0.62,0.182-0.908c1.343-3.056,4.26-5.247,7.079-6.855
				C256.977,324.213,257.473,323.998,258.015,323.819z"/>
		</g>
		<g>
			<path style="fill:#ADE3CA;" d="M237.083,339.379c-0.557-2.364-0.383-5.516,3.023-3.353c2.841,1.804,4.653,7.064,5.456,10.092
				c0.273,1.028,0.165,2.549-0.895,2.628c-0.312,0.023-0.613-0.11-0.888-0.26c-2.928-1.604-4.857-4.7-6.214-7.649
				C237.385,340.447,237.214,339.935,237.083,339.379z"/>
			<path style="fill:#ADE3CA;" d="M254.483,340.388c2.307-0.76,5.461-0.861,3.603,2.719c-1.55,2.987-6.633,5.25-9.579,6.314
				c-1,0.361-2.525,0.386-2.696-0.663c-0.05-0.309,0.056-0.62,0.182-0.908c1.343-3.056,4.26-5.247,7.079-6.855
				C253.445,340.782,253.941,340.566,254.483,340.388z"/>
		</g>
		<g>
			<path style="fill:#ADE3CA;" d="M233.214,353.332c-0.201-2.421,0.437-5.512,3.485-2.87c2.543,2.204,3.558,7.675,3.905,10.787
				c0.118,1.057-0.214,2.546-1.274,2.467c-0.312-0.023-0.59-0.199-0.84-0.389c-2.659-2.019-4.109-5.366-5.015-8.483
				C233.355,354.434,233.262,353.902,233.214,353.332z"/>
			<path style="fill:#ADE3CA;" d="M250.274,356.901c2.394-0.411,5.529-0.045,3.162,3.222c-1.974,2.725-7.336,4.213-10.406,4.829
				c-1.043,0.209-2.555,0.009-2.569-1.055c-0.004-0.313,0.147-0.605,0.314-0.871c1.78-2.824,4.988-4.56,8.014-5.734
				C249.189,357.138,249.711,356.998,250.274,356.901z"/>
		</g>
		<g>
			<path style="fill:#ADE3CA;" d="M228.016,364.381c0.399-2.396,1.776-5.236,4.083-1.927c1.924,2.761,1.566,8.313,1.139,11.416
				c-0.145,1.053-0.832,2.415-1.84,2.079c-0.296-0.099-0.523-0.338-0.719-0.583c-2.082-2.609-2.666-6.21-2.78-9.454
				C227.882,365.484,227.922,364.945,228.016,364.381z"/>
			<path style="fill:#ADE3CA;" d="M243.678,372.028c2.422,0.189,5.37,1.313,2.275,3.899c-2.583,2.157-8.145,2.284-11.273,2.128
				c-1.062-0.053-2.479-0.618-2.231-1.653c0.073-0.304,0.291-0.551,0.518-0.767c2.418-2.301,5.955-3.197,9.176-3.592
				C242.568,371.991,243.109,371.983,243.678,372.028z"/>
		</g>
	</g>
	<g>
		<path style="fill:#ADE3CA;" d="M499.246,320.414c-0.123-1.275,1.852-1.599,1.975-0.315c2.031,21.132,9.172,41.724,20.695,59.561
			c3.239,5.014,6.819,9.799,10.7,14.333c0.787,0.92-0.521,2.066-1.377,1.401c-0.17-0.095-0.308-0.229-0.393-0.402
			c-13.829-16.243-23.671-35.753-28.606-56.503C500.826,332.542,499.831,326.501,499.246,320.414z"/>
		<path style="fill:#ADE3CA;" d="M501.318,309.018c-1.005-2.211-3.07-4.598-4.442-0.805c-1.145,3.165,0.638,8.435,1.853,11.322
			c0.413,0.98,1.428,2.118,2.316,1.532c0.261-0.172,0.418-0.462,0.544-0.749c1.336-3.059,0.969-6.689,0.24-9.851
			C501.732,310.048,501.555,309.538,501.318,309.018z"/>
		<g>
			<path style="fill:#ADE3CA;" d="M510.838,322.81c0.557-2.365,0.383-5.516-3.023-3.353c-2.841,1.804-4.653,7.065-5.456,10.092
				c-0.273,1.028-0.165,2.549,0.895,2.628c0.312,0.023,0.613-0.11,0.888-0.26c2.928-1.604,4.857-4.7,6.214-7.648
				C510.535,323.878,510.707,323.366,510.838,322.81z"/>
			<path style="fill:#ADE3CA;" d="M493.438,323.819c-2.307-0.76-5.461-0.861-3.603,2.719c1.55,2.987,6.633,5.251,9.579,6.314
				c1,0.361,2.525,0.386,2.696-0.663c0.05-0.309-0.056-0.62-0.182-0.908c-1.343-3.056-4.26-5.247-7.079-6.855
				C494.476,324.213,493.98,323.998,493.438,323.819z"/>
		</g>
		<g>
			<path style="fill:#ADE3CA;" d="M514.37,339.379c0.557-2.364,0.383-5.516-3.023-3.353c-2.841,1.804-4.654,7.064-5.456,10.092
				c-0.273,1.028-0.165,2.549,0.896,2.628c0.312,0.023,0.613-0.11,0.888-0.26c2.928-1.604,4.857-4.7,6.213-7.649
				C514.068,340.447,514.239,339.935,514.37,339.379z"/>
			<path style="fill:#ADE3CA;" d="M496.97,340.388c-2.307-0.76-5.461-0.861-3.603,2.719c1.55,2.987,6.633,5.25,9.579,6.314
				c1,0.361,2.525,0.386,2.696-0.663c0.05-0.309-0.056-0.62-0.182-0.908c-1.343-3.056-4.26-5.247-7.079-6.855
				C498.008,340.782,497.512,340.566,496.97,340.388z"/>
		</g>
		<g>
			<path style="fill:#ADE3CA;" d="M518.238,353.332c0.201-2.421-0.437-5.512-3.485-2.87c-2.543,2.204-3.558,7.675-3.905,10.787
				c-0.118,1.057,0.214,2.546,1.274,2.467c0.312-0.023,0.59-0.199,0.84-0.389c2.659-2.019,4.109-5.366,5.015-8.483
				C518.097,354.434,518.191,353.902,518.238,353.332z"/>
			<path style="fill:#ADE3CA;" d="M501.178,356.901c-2.394-0.411-5.529-0.045-3.162,3.222c1.975,2.725,7.336,4.213,10.406,4.829
				c1.043,0.209,2.555,0.009,2.569-1.055c0.004-0.313-0.147-0.605-0.314-0.871c-1.78-2.824-4.988-4.56-8.014-5.734
				C502.263,357.138,501.741,356.998,501.178,356.901z"/>
		</g>
		<g>
			<path style="fill:#ADE3CA;" d="M523.437,364.381c-0.399-2.396-1.776-5.236-4.083-1.927c-1.924,2.761-1.566,8.313-1.139,11.416
				c0.145,1.053,0.832,2.415,1.841,2.079c0.297-0.099,0.523-0.338,0.719-0.583c2.082-2.609,2.666-6.21,2.78-9.454
				C523.57,365.484,523.531,364.945,523.437,364.381z"/>
			<path style="fill:#ADE3CA;" d="M507.774,372.028c-2.422,0.189-5.37,1.313-2.275,3.899c2.583,2.157,8.145,2.284,11.273,2.128
				c1.062-0.053,2.479-0.618,2.231-1.653c-0.073-0.304-0.291-0.551-0.518-0.767c-2.418-2.301-5.955-3.197-9.176-3.592
				C508.884,371.991,508.344,371.983,507.774,372.028z"/>
		</g>
	</g>
	<path style="fill:#ADE3CA;" d="M90.873,394.869c-9.821-0.1-29.111-38.665-31.656-45.468c-1.9-5.08-6.53-17.807,1.349-21.401
		c8.023-3.659,25.778,23.133,30.163,29.29c-19.49-28.899-21.076-63.833-21.659-97.186c-0.205-11.744-0.116-24.23,7.216-34.164
		c1.491-2.02,3.424-3.991,6.095-4.695c3.194-0.841,6.621,0.327,9.522,1.744c17.272,8.437,26.129,25.25,32.906,41.236
		c11.547,27.236,20.298,55.337,26.118,83.876c1.719-13.573,7.479-26.759,16.586-37.975c1.387-1.708,3.405-3.569,5.79-3.163
		c2.342,0.399,3.387,2.707,3.971,4.686c4.56,15.448,5.639,31.64,3.161,47.431c2.289-11.454,10.399-21.97,21.813-28.282
		c2.913-1.611,6.302-3.001,9.729-2.535c6.43,0.873,9.226,7.357,10.376,12.834c3.823,18.201,3.304,37.06-1.516,55.088
		C220.837,396.184,91.007,394.87,90.873,394.869z"/>
	<path style="fill:#ADE3CA;" d="M657.069,394.869c6.537-0.066,20.373-17.885,23.039-23.24c8.09-16.25-12.917-13.003-16.758-1.044
		c4.244-7.648,8.488-15.297,12.732-22.945c9.825-17.705,19.861-38.875,11.429-57.284c-3.292-7.187-10.332-13.467-18.206-12.757
		c-5.13,0.463-9.533,3.728-13.46,7.06c-19.709,16.721-35.658,39.823-37.18,65.625c2.203-20.256-0.462-41.024-7.707-60.067
		c-4.63-12.168-13.773-25.264-26.784-24.809c-8.286,0.29-15.503,6.448-19.213,13.863c-3.71,7.414-4.497,15.923-4.735,24.211
		c-0.542,18.856,4.402,37.259,7.281,55.599c-2.289-11.454-10.399-21.97-21.813-28.282c-2.913-1.611-6.302-3.001-9.729-2.535
		c-6.43,0.873-9.226,7.357-10.376,12.834c-3.823,18.201-3.304,37.06,1.516,55.088C527.104,396.184,656.931,394.87,657.069,394.869z"
		/>
	<g>
		<g>
			<g>
				<g>
					<path style="fill:#BEE2ED;" d="M345.547,77.819h58.907c37.681,0,68.227,30.547,68.227,68.227V251.93
						c0,37.681-30.546,68.227-68.227,68.227h-58.907c-37.681,0-68.228-30.547-68.228-68.227V146.046
						C277.319,108.366,307.866,77.819,345.547,77.819z"/>
				</g>
				<g>
					<path style="fill:#FF6391;" d="M290.459,251.927V146.045c0-30.373,24.715-55.08,55.088-55.08h58.906
						c29.387,0,53.474,23.13,55.007,52.138c0.051,0.978,0.08,1.957,0.08,2.942v105.882c0,30.38-24.715,55.088-55.088,55.088h-58.906
						C315.174,307.014,290.459,282.307,290.459,251.927z"/>
				</g>
				<g>
					<path style="fill:#FFF5FF;" d="M451.214,149.613c-1.971,0-3.569-1.598-3.569-3.569c0-0.778-0.026-1.55-0.065-2.319
						c-1.211-22.914-20.153-40.866-43.127-40.866c-1.971,0-3.569-1.598-3.569-3.569c0-1.971,1.597-3.569,3.569-3.569
						c26.77,0,48.845,20.922,50.255,47.63c0.047,0.894,0.074,1.789,0.074,2.692C454.783,148.016,453.185,149.613,451.214,149.613z"
						/>
				</g>
				<g>
					<path style="fill:#BEE2ED;" d="M399.364,308.573h17.884v23.902c0,4.939-4.003,8.942-8.942,8.942l0,0
						c-4.938,0-8.942-4.003-8.942-8.942V308.573z"/>
				</g>
				<g>
					<path style="fill:#BEE2ED;" d="M366.058,308.573h17.884v23.902c0,4.939-4.003,8.942-8.942,8.942l0,0
						c-4.939,0-8.942-4.003-8.942-8.942V308.573z"/>
				</g>
				<g>
					<path style="fill:#BEE2ED;" d="M332.752,308.573h17.884v23.902c0,4.939-4.003,8.942-8.942,8.942l0,0
						c-4.939,0-8.942-4.003-8.942-8.942V308.573z"/>
				</g>
			</g>
			<g>
				<path style="fill:#FF6391;" d="M408.305,333.932c-1.643,0-2.974-1.331-2.974-2.974v-29.259c0-1.643,1.331-2.974,2.974-2.974
					c1.643,0,2.974,1.331,2.974,2.974v29.259C411.279,332.601,409.948,333.932,408.305,333.932z"/>
			</g>
			<g>
				<path style="fill:#FF6391;" d="M341.694,333.932c-1.643,0-2.974-1.331-2.974-2.974v-29.259c0-1.643,1.331-2.974,2.974-2.974
					c1.643,0,2.974,1.331,2.974,2.974v29.259C344.668,332.601,343.337,333.932,341.694,333.932z"/>
			</g>
			<g>
				<path style="fill:#FF6391;" d="M374.999,333.932c-1.643,0-2.974-1.331-2.974-2.974v-29.259c0-1.643,1.331-2.974,2.974-2.974
					c1.643,0,2.974,1.331,2.974,2.974v29.259C377.973,332.601,376.642,333.932,374.999,333.932z"/>
			</g>
		</g>
		<g>
			<circle style="fill:#FFF5FF;" cx="375.055" cy="197.986" r="53.455"/>
		</g>
		<g>
			<polygon style="fill:#FF6391;" points="405.98,186.645 385.4,186.645 385.4,166.066 364.6,166.066 364.6,186.645 344.02,186.645 
				344.02,207.446 364.6,207.446 364.6,228.025 385.4,228.025 385.4,207.446 405.98,207.446 			"/>
		</g>
		<g>
			<path style="fill:#BEE2ED;" d="M405.076,64.622h-60.152c-12.912,0-23.379,10.467-23.379,23.379v2.133h106.911v-2.133
				C428.455,75.089,417.988,64.622,405.076,64.622z"/>
		</g>
		<g>
			<path style="fill:#BEE2ED;" d="M375,79.201L375,79.201c-8.89,0-16.097-7.207-16.097-16.097v-7.897
				c0-8.89,7.207-16.097,16.097-16.097l0,0c8.89,0,16.097,7.207,16.097,16.097v7.897C391.097,71.994,383.89,79.201,375,79.201z"/>
		</g>
		<g>
			<path style="fill:#FFF5FF;" d="M381.074,53.081c0,3.355-2.72,6.075-6.074,6.075s-6.074-2.72-6.074-6.075
				c0-3.355,2.72-6.074,6.074-6.074S381.074,49.726,381.074,53.081z"/>
		</g>
	</g>
	<g>
		<g>
			<path style="fill:#B38DC4;" d="M556.083,190.623c0,0-9.964,27.209-10.73,39.856c-0.766,12.647,8.431,12.263,8.431,12.263
				s12.646-20.311,13.796-24.91C568.729,213.234,556.083,190.623,556.083,190.623z"/>
			<g>
				<g>
					<g>
						<polygon style="fill:#FFBAA5;" points="622.649,411.448 612.691,411.448 612.641,421.889 624.892,421.889 						"/>
					</g>
					<g>
						<path style="fill:#AA9FFF;" d="M622.538,423.931c0,0-1.321-4.425-0.661-4.766s6.935-0.34,7.266,0.34
							c0.33,0.681-1.651,5.446-1.651,5.446L622.538,423.931z"/>
						<path style="fill:#AA9FFF;" d="M641.394,432.441c1.3,0,2.106-1.454,1.447-2.61c-1.411-2.475-3.954-5.856-7.418-6.13
							c-5.512-0.437-10.599-1.311-10.599-1.311l0.069-0.501h-12.251l-2.258,8.969c-0.202,0.801,0.385,1.583,1.188,1.583H641.394z"/>
						<path style="fill:#E8C1FC;" d="M610.383,430.858c-0.202,0.801,0.385,1.583,1.188,1.583h29.823c1.3,0,2.106-1.454,1.447-2.61
							c-0.021-0.037-0.045-0.076-0.067-0.114H610.67L610.383,430.858z"/>
					</g>
				</g>
				<path style="fill:#A7B0E4;" d="M608.194,269.442l16.714,149.307h-13c-0.593-2.379-1.184-4.76-1.772-7.14
					c-2.748-11.114-5.47-22.235-8.102-33.376c-2.987-12.643-5.268-25.412-8.037-37.979c-1.53-6.941-1.506-14.499-2.385-21.562
					c-0.895-7.184-2.004-14.352-3.688-21.398c-2.219-9.284-4.438-18.568-6.658-27.852"/>
				<rect x="577.386" y="273.698" style="fill:#A7B0E4;" width="11.077" height="13.259"/>
				<g>
					<g>
						<polygon style="fill:#FFBAA5;" points="562.875,411.448 572.833,411.448 572.883,421.889 560.632,421.889 						"/>
					</g>
					<g>
						<path style="fill:#AA9FFF;" d="M562.986,423.931c0,0,1.321-4.425,0.661-4.766c-0.661-0.34-6.935-0.34-7.266,0.34
							c-0.33,0.681,1.651,5.446,1.651,5.446L562.986,423.931z"/>
						<path style="fill:#AA9FFF;" d="M544.13,432.441c-1.3,0-2.106-1.454-1.447-2.61c1.411-2.475,3.954-5.856,7.418-6.13
							c5.512-0.437,10.599-1.311,10.599-1.311l-0.069-0.501h12.251l2.258,8.969c0.202,0.801-0.385,1.583-1.188,1.583H544.13z"/>
						<path style="fill:#E8C1FC;" d="M575.142,430.858c0.202,0.801-0.385,1.583-1.188,1.583H544.13c-1.3,0-2.106-1.454-1.447-2.61
							c0.021-0.037,0.045-0.076,0.067-0.114h32.105L575.142,430.858z"/>
					</g>
				</g>
				<path style="fill:#A7B0E4;" d="M558.155,254.638c0.07-3.204,2.61-5.763,5.72-5.763h37.088c2.93,0,5.387,2.282,5.69,5.287
					l2.122,21.023h-26.386c-0.043,0.646-0.175,2.605-0.37,5.455c0.433,1.617,0.749,3.691,0.906,6.318
					c1.261,21.169-4.03,41.984-4.5,63.085c-0.111,5.009,0.135,9.628-0.348,14.67c-0.532,5.562-1.064,11.124-1.596,16.686
					c-1.191,12.45-2.382,24.9-3.573,37.35h-12.072L558.155,254.638z"/>
				<ellipse style="fill:#341674;" cx="581.317" cy="265.595" rx="22.87" ry="6.261"/>
				<g>
					<path style="fill:#341674;" d="M577.958,335.835C577.958,335.835,577.958,335.835,577.958,335.835
						c-0.003,0.01-0.006,0.018-0.009,0.028C577.952,335.854,577.955,335.845,577.958,335.835
						C577.958,335.835,577.958,335.835,577.958,335.835z"/>
				</g>
			</g>
			<g>
				<path style="fill:#C399D8;" d="M597.273,259.116c0.072-0.248,0.151-0.522,0.236-0.816
					C597.433,258.562,597.354,258.834,597.273,259.116z"/>
				<path style="fill:#C399D8;" d="M597.232,259.258c0.014-0.048,0.027-0.095,0.041-0.142
					C597.259,259.165,597.245,259.212,597.232,259.258z"/>
				<path style="fill:#C399D8;" d="M597.546,258.171c0.102-0.351,0.21-0.727,0.322-1.113
					C597.767,257.408,597.659,257.78,597.546,258.171z"/>
				<path style="fill:#C399D8;" d="M598.111,256.219c0.001-0.002,0.001-0.005,0.002-0.007
					C598.112,256.214,598.112,256.216,598.111,256.219z"/>
				<path style="fill:#C399D8;" d="M597.868,257.058c0.085-0.295,0.166-0.573,0.243-0.84
					C598.029,256.501,597.948,256.782,597.868,257.058z"/>
				<path style="fill:#C399D8;" d="M597.509,258.3c0.012-0.043,0.025-0.086,0.037-0.128
					C597.534,258.215,597.521,258.257,597.509,258.3z"/>
				<path style="fill:#C399D8;" d="M596.936,260.28c0.013-0.047,0.032-0.112,0.056-0.192
					C596.973,260.152,596.955,260.214,596.936,260.28z"/>
				<path style="fill:#C399D8;" d="M597.095,259.731c0.019-0.067,0.04-0.138,0.059-0.204
					C597.133,259.599,597.113,259.668,597.095,259.731z"/>
				<path style="fill:#C399D8;" d="M596.909,260.371c0.009-0.031,0.017-0.06,0.027-0.091
					C596.919,260.337,596.909,260.371,596.909,260.371z"/>
				<path style="fill:#C399D8;" d="M597.079,259.786c0.005-0.018,0.01-0.036,0.016-0.055
					C597.089,259.749,597.084,259.768,597.079,259.786z"/>
				<path style="fill:#C399D8;" d="M596.992,260.088c0.029-0.102,0.059-0.202,0.087-0.302
					C597.045,259.903,597.016,260.003,596.992,260.088z"/>
				<path style="fill:#C399D8;" d="M597.154,259.528c0.025-0.085,0.051-0.175,0.078-0.269
					C597.205,259.349,597.18,259.435,597.154,259.528z"/>
				<path style="fill:#C399D8;" d="M599.329,252.008c0.011-0.038,0.019-0.066,0.026-0.09
					C599.348,251.941,599.34,251.971,599.329,252.008z"/>
				<path style="fill:#C399D8;" d="M599.17,252.557c0.07-0.242,0.124-0.429,0.159-0.549
					C599.297,252.12,599.244,252.302,599.17,252.557z"/>
				<path style="fill:#C399D8;" d="M599.124,252.718c0.007-0.023,0.013-0.046,0.02-0.069
					C599.137,252.672,599.131,252.694,599.124,252.718z"/>
				<path style="fill:#C399D8;" d="M598.113,256.211c0.124-0.429,0.238-0.823,0.342-1.181
					C598.343,255.416,598.228,255.814,598.113,256.211z"/>
				<path style="fill:#C399D8;" d="M599.37,251.866C599.373,251.855,599.374,251.854,599.37,251.866L599.37,251.866z"/>
				<path style="fill:#C399D8;" d="M599.355,251.918c0.007-0.024,0.012-0.043,0.015-0.052
					C599.368,251.875,599.363,251.892,599.355,251.918z"/>
				<path style="fill:#C399D8;" d="M599.144,252.649c0.009-0.032,0.018-0.062,0.027-0.092
					C599.162,252.587,599.153,252.618,599.144,252.649z"/>
				<path style="fill:#C399D8;" d="M598.457,255.022c0.04-0.138,0.078-0.27,0.115-0.397
					C598.534,254.756,598.496,254.888,598.457,255.022z"/>
				<path style="fill:#C399D8;" d="M598.455,255.03c0.001-0.003,0.001-0.005,0.002-0.008
					C598.456,255.025,598.456,255.027,598.455,255.03z"/>
				<path style="fill:#C399D8;" d="M599.103,252.791c0.007-0.024,0.014-0.05,0.021-0.072
					C599.117,252.742,599.11,252.766,599.103,252.791z"/>
				<path style="fill:#C399D8;" d="M598.572,254.625c0.098-0.339,0.192-0.664,0.279-0.964
					C598.769,253.944,598.676,254.266,598.572,254.625z"/>
				<path style="fill:#C399D8;" d="M598.851,253.661c0.048-0.164,0.091-0.316,0.132-0.456
					C598.941,253.35,598.897,253.502,598.851,253.661z"/>
				<path style="fill:#C399D8;" d="M598.983,253.205c0.043-0.148,0.083-0.286,0.12-0.415
					C599.067,252.916,599.027,253.052,598.983,253.205z"/>
			</g>
			<path style="fill:#FFF5FF;stroke:#000000;stroke-width:4.5413;stroke-linejoin:round;stroke-miterlimit:10;" d="M563.764,280.973
				"/>
			
				<rect x="595.016" y="250.407" transform="matrix(-1 -1.224647e-16 1.224647e-16 -1 1193.819 505.8114)" style="fill:#DFB3F1;" width="3.788" height="4.997"/>
			
				<rect x="565.658" y="250.407" transform="matrix(-1 -1.224647e-16 1.224647e-16 -1 1135.1047 505.8114)" style="fill:#DFB3F1;" width="3.788" height="4.997"/>
			<path style="fill:#FFF5FF;" d="M576.68,255.404h8.262c0.334,0,0.604-0.27,0.604-0.604v-5.421c0-0.334-0.27-0.604-0.604-0.604
				h-8.262c-0.334,0-0.604,0.27-0.604,0.604v5.421C576.075,255.134,576.346,255.404,576.68,255.404z"/>
			<path style="fill:#341674;" d="M607.437,241.255"/>
			<g>
				<g>
					<path style="fill:#B38DC4;" d="M561.362,187.22h38.294c4.657,0,8.184,4.207,7.371,8.792l-1.879,10.604
						c-0.728,4.11-0.858,8.301-0.384,12.448c1.017,8.899,2.841,45.64,3.508,48.978c0.746,3.731-19.5,6.921-30.347,6.592
						c-8.236-0.25-20.188-3.148-20.791-3.751c-0.947-0.947,2.583-53.36,2.583-53.36l-4.023-23.589
						C555.096,190.425,557.801,187.22,561.362,187.22z"/>
				</g>
				<polygon style="fill:#FFBAA5;" points="574.478,187.349 586.358,187.349 585.062,172.228 574.478,174.909 				"/>
				<path style="fill:#FE87C8;" d="M574.478,184.979c0,0,10.61-1.236,10.911-8.935c0.301-7.699,0,0,0,0l-0.327-3.816l-10.764,3.878
					L574.478,184.979"/>
				<g>
					<path style="fill:#CC4F59;" d="M567.409,154.745c0,0-2.387,0.597-2.033,2.548c0.075,0.415,0.118,0.856,0.14,1.294
						c0.11,2.245,1.186,4.359,2.954,5.912l0,0L567.409,154.745z"/>
					<path style="fill:#FFBAA5;" d="M587.277,172.714c-0.53,0.207-1.547,0.265-1.547,0.265c-1.013,2.212-4.338,8.446-10.057,8.446
						c-4.475,0-6.577-5.623-7.475-9.214c-0.682-2.726,0.001-5.341-0.505-7.95l-1.297-6.684l20.125-1.062v11.326
						c0,0,1.192-0.899,1.89,0.148C589.109,169.036,588.586,172.203,587.277,172.714z"/>
					<path style="fill:#CC4F59;" d="M578.522,149.531c1.341,0.161,2.783,0.504,4.318,1.075c2.962,1.101,4.005,3.136,5.571,5.88
						c1.588,2.781-0.682,11.146-0.772,11.14c-1.416-0.091-2.637,0.983-2.728,2.399c-0.011,0.174-0.004,0.344,0.019,0.51
						c-0.474-0.899-0.947-2.079-0.879-3.139c0.132-2.051,0.263-4.101,0.263-4.101s-3.713-2.298-3.065-6.374
						c0,0-9.745,3.656-13.01,1.796"/>
					<path style="fill:#FE87C8;" d="M586.739,168.806c0,0-1.009,1.682-0.336,2.691c0.673,1.009,1.009-0.673,0.673-1.009
						c-0.336-0.336-0.336,0,0.336-0.336C588.084,169.815,586.739,168.806,586.739,168.806z"/>
					<path style="fill:#5B43CA;" d="M568.518,157.519c0,0,0.394,3.887-1.288,4.56l-1.346-3.7L568.518,157.519z"/>
				</g>
				<path style="fill:#CC4F59;" d="M576.912,149.658c-1.57,0.105-2.982,0.443-4.466,0.902c-1.436,0.444-2.991,0.449-4.451,0.925
					c-1.386,0.452-2.697,1.311-3.387,2.598c-2.65,4.945,4.109,10.27,8.564,10.683c-0.588-1.216-1.176-2.432-1.764-3.648
					c2.077,1.873,4.87,2.93,7.667,2.901c-0.828-0.98-1.657-1.96-2.486-2.939c2.365,1.275,5.408,1.182,7.69-0.235
					c3.031-1.881,3.6-5.361,1.256-8.122C583.374,150.178,580.141,149.443,576.912,149.658z"/>
				<path style="fill:#B38DC4;" d="M594.446,187.22c-1.874,1.97-7.259,6.852-14.603,6.852c-8.781,0-12.669-6.283-13.003-6.852
					H594.446z"/>
				<path style="fill:#FFBAA5;" d="M586.665,187.22c-0.871,1.75-3.374,6.086-6.786,6.086c-4.081,0-5.888-5.58-6.043-6.086H586.665z"
					/>
				<path style="fill:#FFBAA5;" d="M586.665,187.22c-0.805,1.75-3.117,6.086-6.271,6.086c-3.771,0-5.44-5.58-5.584-6.086H586.665z"
					/>
			</g>
			<g>
				<path style="fill:#A7B0E4;" d="M607.961,277.362c-0.327-0.432-11.624-5.473-11.624-5.473s-2.619,7.763,0.536,10.133
					c3.155,2.37,9.111,1.258,9.111,1.258L607.961,277.362z"/>
			</g>
			<path style="fill:#B38DC4;" d="M604.391,189.06c3.896,3.87,11.77,13.581,17.991,30.689c1.455,4.002,2.306,8.178,2.799,11.459
				c0.535,3.564-1.453,7.026-4.79,8.386l0,0c-3.03,1.235-6.514,0.458-8.72-1.958c-6.788-7.434-13.801-30.439-16.497-35.899
				c-2.867-5.807,3.226-9.838,4.331-11.925C600.47,187.985,602.924,187.604,604.391,189.06z"/>
		</g>
		<path style="fill:#FFBAA5;" d="M623.592,238.719l-22.259,37.002l-1.125-8.666c0,0,9.705-32.936,11.84-34.554
			c1.968-1.491,13.016-1.681,12.448,3.975C624.415,237.291,624.077,238.059,623.592,238.719z"/>
		<path style="fill:#FFBAA5;" d="M600.208,265.595c0,0-8.132,0.619-9.67,2.485c-1.538,1.866-4.572,6.023-3.68,6.367
			c0.892,0.343,4.544-4.088,5.395-4.17c0.851-0.082,0.19,6.423-0.812,7.164c-1.002,0.741-7.563,3.95-6.823,4.952
			c0.741,1.002,7.343-1.782,7.343-1.782s-7.11,1.974-6.369,2.976c0.741,1.002,7.699-0.313,9.004-2.371c0,0-6.836,2.591-5.669,3.553
			c1.166,0.961,7.81-1.397,11.38-6.68s4.025-7.572,4.025-7.572"/>
		<g>
			<g>
				<path style="fill:#FFBAA5;" d="M549.163,240.49c5.116,1.324,10.102-6.344,2.695-14.717c-7.308-8.263-24.091-21.43-24.588-21.789
					c-0.506-0.653-1.501-1.939-1.836-2.373c-0.456-0.591-0.021-4.927-0.933-6.109c-0.385-0.499-1.11-0.347-1.82-0.007
					c-2.592-3.206-4.028-5.37-6.028-1.056c-0.083,0.178-1.487,2.558-1.279,2.522c-0.387,0.067-0.692,0.185-0.844,0.318
					c-0.565,0.493-0.272,2.71-0.272,2.71c0.803,2.266,8.44,6.485,9.352,7.667C524.521,208.837,541.99,238.634,549.163,240.49z"/>
			</g>
		</g>
		<path style="fill:#8A91C5;" d="M615.43,361.92c-2.329-19.129-4.658-38.257-6.987-57.385c-1.319-10.833-2.638-21.666-3.957-32.499
			c-0.077-0.631-1.078-0.638-1,0c2.341,19.226,4.682,38.452,7.023,57.678c2.329,19.129,4.658,38.257,6.988,57.385
			c1.319,10.833,2.638,21.666,3.957,32.499c0.077,0.631,1.078,0.639,1,0C620.112,400.372,617.771,381.146,615.43,361.92z"/>
		<path style="fill:#8A91C5;" d="M586.039,287.112c-2.893-0.052-5.785-0.104-8.678-0.157c-0.644-0.012-0.644,0.988,0,1
			c2.893,0.052,5.785,0.104,8.678,0.157C586.683,288.124,586.683,287.124,586.039,287.112z"/>
		<path style="fill:#B37A92;" d="M622.577,224.128c-5.591-2.593-12.734-0.579-16.219,4.452c-3.436-9.003-6.873-18.005-10.309-27.008
			c-0.227-0.595-1.194-0.337-0.964,0.266c3.46,9.065,6.92,18.13,10.38,27.195c0.077,0.201,0.238,0.297,0.409,0.324
			c-0.045,0.077-0.098,0.148-0.141,0.226c-0.312,0.563,0.552,1.068,0.864,0.505c2.906-5.25,10.011-7.631,15.477-5.096
			C622.652,225.261,623.161,224.399,622.577,224.128z"/>
		<path style="fill:#B37A92;" d="M557.758,211.122c-0.161-2.647-0.321-5.294-0.482-7.942c-0.039-0.639-1.039-0.644-1,0
			c0.392,6.461,0.784,12.923,1.177,19.384c-1.656-3.345-5.747-5.507-9.429-4.351c-0.612,0.192-0.351,1.158,0.266,0.964
			c4.1-1.287,8.883,2.151,8.928,6.461c0.003,0.298,0.22,0.452,0.451,0.474c0.098,1.621,0.197,3.242,0.295,4.863
			c0.161,2.647,0.321,5.294,0.482,7.941c0.039,0.639,1.039,0.644,1,0C558.883,229.652,558.32,220.387,557.758,211.122z"/>
		<path style="fill:#B37A92;" d="M588.675,188.827c-0.444,3.953-3.481,7.388-7.221,8.615c-3.846,1.261-7.931-0.172-10.555-3.16
			c-1.247-1.42-2.11-3.167-2.421-5.027c0.014-0.011,0.032-0.015,0.045-0.029c0.088-0.095,0.152-0.22,0.146-0.354
			c-0.006-0.044-0.012-0.089-0.018-0.133c-0.024-0.085-0.066-0.158-0.129-0.221c-0.051-0.051-0.102-0.102-0.153-0.153
			c0-0.006-0.002-0.011-0.002-0.017c-0.024-0.356-0.344-0.508-0.616-0.467c-0.031-0.007-0.06-0.022-0.093-0.021
			c-0.069-0.003-0.133,0.012-0.193,0.043c-0.062,0.02-0.116,0.055-0.161,0.103c-0.087,0.095-0.152,0.22-0.147,0.354
			c0.006,0.044,0.012,0.089,0.018,0.133c0.024,0.085,0.067,0.158,0.129,0.221l0.114,0.114c0.47,4.132,3.361,7.751,7.201,9.316
			c4.175,1.702,8.889,0.389,11.96-2.813c1.711-1.784,2.818-4.045,3.095-6.505C589.747,188.189,588.747,188.193,588.675,188.827z"/>
	</g>
	<g>
		<path style="fill:#A7B0E4;" d="M192.908,194.611c0,0-4.848,3.105-5.308,10.791c-0.359,5.999,5.243,29.88,8.792,38.944
			c0.949,2.425,5.882,1.303,8.46,0.941l0,0c2.94-0.411,5.055-3.033,4.83-5.993c-0.864-11.413-3.527-38.762-6.569-41.721
			C199.212,193.778,192.908,194.611,192.908,194.611z"/>
		<g>
			<path style="fill:#FFBAA5;" d="M206.276,235.665c-2.523-0.327-5.034,0.922-6.525,3.044c-1.018,1.448-0.409,1.983-0.327,4.419
				c0.146,4.351,18.64,29.058,24.586,35.871c1.204,1.38,1.911,1.88,3.588,1.008l0,0c2.048-1.065,1.804-3.033,0.769-5.021
				c-4.769-9.162-17.943-36.955-19.786-38.419C207.912,236.035,207.096,235.771,206.276,235.665z"/>
			<path style="fill:#A7B0E4;" d="M221.418,259.057c-2.497,1.135-8.126,3.546-10.585,3.41c-1.011-1.412-2.018-2.846-2.992-4.266
				c-0.171-0.981-0.19-1.74-0.19-1.74l11.851-0.998C220.147,256.668,220.789,257.872,221.418,259.057z"/>
			<path style="fill:#A7B0E4;" d="M196.899,243.197c0,0,6.677,12.578,8.528,14.355c1.851,1.777,3.157,2.391,3.157,2.391
				s0.692,1.667,1.222,1.747c0.529,0.08,9.707-5.186,9.989-5.68c0.283-0.493-0.736-2.441-0.736-2.441s1.45-1.954-0.873-4.692
				c-2.323-2.737-8.946-12.796-10.942-13.68c-1.996-0.883-3.296-1.172-5.879,0.699C198.782,237.768,196.512,240.025,196.899,243.197
				z"/>
			<path style="fill:#FE87C8;" d="M224.881,281.142c0,0,3.332,5.35,5.631,6.109c2.299,0.759-1.54-3.058-1.8-4.844
				C228.453,280.622,224.881,281.142,224.881,281.142z"/>
			<path style="fill:#FFBAA5;" d="M223.797,276.649c0,0-1.787,2.825-0.501,4.103c1.285,1.278,10.523,4.33,10.523,4.33
				s4.633,6.653,5.911,5.367c1.278-1.285-4.378-7.423-4.894-8.447c-0.515-1.024-7.189-4.082-7.189-4.082"/>
		</g>
		<g>
			<g>
				<path style="fill:#FFBAA5;" d="M118.63,432.376c0,0,2.989-8.039,9.644-8.039c0,0,2.598,0.828,6.036-14.274h8.804
					c-0.508,1.124-1.664,3.922-1.664,6.149c0,2.853,0,16.164,0,16.164H118.63z"/>
				<path style="fill:#B38DC4;" d="M196.884,248.51h-31.233c-15.835,40.47-21.171,86.012-26.529,128.874
					c-0.998,7.984-4.99,32.933-4.99,32.933h11.976c0,0,11.975-37.923,13.971-49.898c1.996-11.976,3.992-19.959,5.988-26.945
					c1.996-6.986,15.551-40.055,15.552-40.055c-1.417,3.457,0.438,11.839,0.544,15.882c0.161,6.159,0.266,12.32,0.334,18.48
					c0.136,12.321,0.117,24.643,0.079,36.965c-0.046,14.865,1.669,29.681,2.453,44.573h11.976c0-29.932,3.815-59.508,6.842-89.276
					c0.955-9.391,3.235-18.365,3.048-27.964c-0.152-7.807-1.426-15.496-2.862-23.153C201.038,252.96,196.884,248.51,196.884,248.51z
					"/>
				<g>
					<path style="fill:#FFBAA5;" d="M194.732,409.249c0,0-2.418,13.203,4.836,15.621c0,0,9.671,0,9.671,5.642v1.612h-25.79
						c0,0,0-6.447,0.806-6.447c0.806,0,1.612-16.427,1.612-16.427H194.732z"/>
				</g>
				<g>
					<path style="fill:#AA9FFF;" d="M131.233,429.263c-0.588,0-1.389-0.908-1.389-0.908c-0.392-1.511-2.087-3.094-3.614-4.261
						c-0.99,0.219-2.756,0.459-5.325,0.245c-4.211-0.351-6.667,5.966-6.317,8.071l26.844-0.033h0.018c0,0,0-1.275,0-3.114
						C136.529,429.263,131.528,429.263,131.233,429.263z"/>
				</g>
				<path style="fill:#AA9FFF;" d="M204.264,424.37c-0.729,0.061-1.393,0.085-1.994,0.083c-0.001,0-0.002,0-0.003,0
					c-5.129,0-6.626,5.45-6.626,5.45h-12.192c0,0-0.011-0.016-0.026-0.039c-0.054,1.529-0.055,2.544-0.055,2.544h0.369l26.844,0.032
					C210.931,430.336,208.474,424.019,204.264,424.37z"/>
			</g>
			<path style="fill:#5B43CA;" d="M183.42,163.937c0.058,0.05,0.117,0.1,0.175,0.149c3.885,3.282,8.744,5.244,12.638,8.516
				c3.894,3.271,6.783,8.737,4.751,13.399c-1.712,3.93-6.608,6.757-6.002,11c0.406,2.85,3.168,4.627,5.22,6.646
				c1.885,1.855,3.31,4.175,4.111,6.696c-9.457,2.296-19.169,3.539-28.9,3.699c-2.039,0.034-4.123,0.013-6.053-0.647
				c-1.93-0.66-3.711-2.071-4.307-4.022c-0.475-1.553-0.148-3.262,0.541-4.733c0.533-1.137,1.299-2.335,0.975-3.548
				c-0.402-1.5-2.166-2.063-3.515-2.832c-3.687-2.101-4.932-7.545-2.526-11.04c1.185-1.721,3.022-2.895,4.299-4.549
				c2.575-3.335,2.139-7.308,2.013-11.233c-0.119-3.706,1.153-7.569,2.736-10.953c0.631-1.348,1.377-2.672,2.462-3.691
				c2.685-2.523,3.992-1.566,5.698,0.795C179.388,159.877,181.276,162.093,183.42,163.937z"/>
			<path style="fill:#5B43CA;" d="M198.204,160.901c0.176,0.068,0.052,0.164,0.455,0.979c1.457,2.946,1.476,7.555,1.559,10.777
				c0.026,1.005,0.098,9.846-0.833,10.012c-3.331,0.593-6.662,1.186-9.993,1.779c0.454-4.437,0.909-8.874,1.363-13.312
				c0.219-2.134,0.709-4.415,0.69-6.555c-0.01-1.094-0.661-2.157-0.644-3.206c0.006-0.395,3.822-0.497,4.163-0.519
				c0.701-0.044,1.922-0.35,2.594-0.138C197.936,160.838,198.111,160.866,198.204,160.901z"/>
			<path style="fill:#A7B0E4;" d="M200.955,226.083c0.086-0.074,0.166-0.153,0.257-0.222c2.038-1.554,4.659-4.551,4.659-9.687
				c0-4.202-0.746-6.739-1.492-8.226c-0.896-1.786-1.324-3.77-1.143-5.76l0.017-0.191c0.368-4.042-2.815-7.527-6.874-7.527h-30.148
				c-0.306,0-0.603,0.029-0.895,0.071l-0.107-0.071c0,0-0.223,0.073-0.593,0.213c-0.555,0.147-1.078,0.366-1.559,0.649
				c-2.146,0.974-5.261,2.735-6.256,5.086c-1.567,3.705,2.943,38.978,3.181,44.141c0.239,5.162-5.467,30.503-4.677,31.61
				c0.79,1.107,21.528,5.924,33.741,3.311c12.213-2.613,14.983-3.611,16.804-5.997c0,0-5.232-30.356-5.446-34.433
				C200.309,236.837,200.634,230.979,200.955,226.083z"/>
			<path style="fill:#FFBAA5;" d="M189.81,192.493l-1.002-9.698l-11.19-1.022l-0.918,10.86c-0.306,0.59-0.48,3.23-0.48,3.901
				c0,2.914,3.165,3.277,7.07,3.277c3.904,0,7.069-1.362,7.069-4.277C190.359,194.81,190.163,193.121,189.81,192.493z"/>
			<path style="fill:#FE87C8;" d="M177.392,184.448c0,0,0.797,7.231,12.149,5.444l0,0l-1.158-9.063h-9.94"/>
			<path style="fill:#FFBAA5;" d="M173.123,171.327c0.795-0.157,1.528,0.059,2.092,0.486v-11.041c0,0,21.001,0,21.003,0
				c-0.529,0-1.043,6.702-1,7.352c0.18,2.719-0.082,5.16-0.743,7.839c-1.024,4.149-3.288,11.065-8.599,11.065
				c-6.967,0-9.603-7.874-10.66-10.183c0,0-0.195-0.277-0.789-0.277c-1.614,0-2.894-1.285-2.585-2.955
				C172.032,172.575,172.087,171.531,173.123,171.327z"/>
			<path style="fill:#FF8CCD;" d="M174.107,172.591c0,0,1.108,1.847,0.369,2.955c-0.739,1.108-1.108-0.739-0.739-1.108
				c0.369-0.369,0.369,0-0.369-0.369C172.63,173.699,174.107,172.591,174.107,172.591z"/>
			<path style="fill:#5B43CA;" d="M175.703,175.245c0.036-0.18,0.056-0.366,0.056-0.556c0-1.554-1.259-3.552-2.813-3.552
				c-0.099,0-2.379-1.503-2.813-3.376c-2.305-9.945,5.626-13.502,5.626-13.502c14.627-6.751,24.754,5.626,22.503,9.001
				c-2.25,3.376-17.507-1.381-17.507-1.381c0.422,4.501-3.871,4.757-3.871,4.757s0,2.25,0,4.501
				C176.884,172.3,176.284,174.296,175.703,175.245z"/>
			<path style="fill:#5B43CA;" d="M175.759,154.259c0,0-7.931,3.557-5.626,13.502c0.434,1.873,2.714,3.375,2.813,3.375
				c0.872,0,1.651,0.629,2.167,1.456c0.145-0.057,0.293-0.11,0.444-0.155c0.395-0.232,0.824-0.384,1.261-0.525
				c0.042-0.281,0.067-0.545,0.067-0.776c0-2.25,0-4.501,0-4.501s4.293-0.256,3.871-4.757c0,0,15.257,4.757,17.507,1.381
				C200.513,159.885,190.386,147.508,175.759,154.259z"/>
			<path style="fill:#5B43CA;" d="M180.756,160.771c0,0,1.301,12.023-9.691,13.214c0,0-1.389-1.764-1.759-2.502
				c-0.369-0.739-0.369-2.585,0-3.324c0.369-0.739,0.739-2.955,1.847-3.694c1.108-0.739,2.585-1.847,2.955-2.585
				C174.477,161.141,180.756,160.771,180.756,160.771z"/>
			<path style="fill:#5B43CA;" d="M196.489,165.542c0.318,2.231,0.431,4.585,0.428,4.585c-0.303,0-5.56,0.09-5.516,0.306
				c-0.379-1.832-0.758-3.664-1.137-5.496c-0.078,1.711-0.156,3.423-0.233,5.134c-1.563,0.319-3.424,0.554-4.537-0.589
				c-1.394-1.432-0.59-3.983-1.696-5.648c-0.234,2.066-0.332,4.266-0.765,6.268c-0.945,0.034-1.893,0.032-2.84,0.032
				c-0.547,0-1.172-0.035-1.513-0.463c-0.318-0.398-0.251-0.969-0.169-1.471c0.392-2.38,0.696-4.794,1.176-7.157
				c0.157-0.771-0.449-0.927,0.226-1.506c1.022-0.876,3.953-0.168,5.1-0.012c2.812,0.383,7.892,0.558,10.281,2.171
				C195.853,162.076,196.236,163.77,196.489,165.542z"/>
			<path style="fill:#FFDCFF;" d="M186.665,171.113"/>
		</g>
		<path style="fill:#A7B0E4;" d="M151.122,261.391c21.114-7.769,17.016-49.716,17.016-49.716l-11.83,5.11
			c0.962,8.932,2.011,18.081,1.954,20.022C158.193,239.183,154.345,251.604,151.122,261.391z"/>
		<path style="fill:#A7B0E4;" d="M167.443,194.47c0,0,1.991,3.668,2.27,11.363c0.218,6.006-5.947,29.748-9.709,38.726
			c-1.006,2.402-5.911,1.163-8.48,0.741l0,0c-2.929-0.481-4.981-3.152-4.687-6.106c1.134-11.39,4.442-38.668,7.553-41.555
			C158.378,193.937,167.443,194.47,167.443,194.47z"/>
		<path style="fill:#FFBAA5;" d="M147.825,238.575c1.567-2.004,4.232-2.876,6.784-2.412c1.742,0.317,1.683,1.125,3.335,2.918
			c2.95,3.202,8.037,35.31,8.585,44.336c0.111,1.828-0.497,3.496-2.303,4.052l0,0c-2.207,0.679-3.397-0.52-4.056-2.662
			c-3.035-9.873-13.638-41.634-13.354-43.971C146.919,239.987,147.315,239.227,147.825,238.575z"/>
		<path style="fill:#A7B0E4;" d="M159.79,237.358c0,0,4.074,13.645,4.003,16.21c-0.071,2.565-0.57,3.918-0.57,3.918
			s0.677,1.673,0.356,2.102c-0.321,0.429-10.553,3.121-11.101,2.967c-0.548-0.153-1.189-2.255-1.189-2.255s-2.404-0.374-2.672-3.954
			c-0.267-3.58-2.611-15.393-1.81-17.424c0.801-2.031,1.525-3.149,4.677-3.63C154.638,234.812,157.839,234.827,159.79,237.358z"/>
		<g>
			<path style="fill:#FFBAA5;" d="M170.071,293.686c0,0,0.273-0.899,0.938-1.12c0.665-0.221,1.329,0.262,1.329,0.262
				s1.474,3.474,2.282,3.911c0.808,0.437,2.902,0.676,2.719,1.434c-0.182,0.759-3.03,0.874-4.182,0.039
				C172.004,297.378,170.071,293.686,170.071,293.686z"/>
			<g>
				<path style="fill:#FFBAA5;" d="M168.014,282.487c0,0,0.011,1.652,1.272,2.541c1.261,0.89,3.866,1.615,4.642,3.269
					c0.776,1.654,2.789,5.644,2.108,5.942c-1.371,0.6-2.596-2.53-3.043-2.802c-0.447-0.272-3.27,0.351-5.214-0.852
					c-1.944-1.204-3.747-5.436-3.714-5.575c0.033-0.139-0.908-3.689,3.479-3.509C167.544,281.501,167.783,281.349,168.014,282.487z"
					/>
				<path style="fill:#FFBAA5;" d="M171.45,290.086c0,0,1.485,2.962,1.309,3.541c-0.176,0.58-8.525,2.26-9.041,1.969
					c-0.516-0.291-3.768-8.861-3.569-10.219c0.199-1.359,5.727-2.268,6.727-1.4C167.876,284.846,171.45,290.086,171.45,290.086z"/>
				<path style="fill:#FFBAA5;" d="M168.018,295.09c0,0,0.273-0.899,0.938-1.12c0.665-0.221,1.329,0.262,1.329,0.262
					s1.474,3.474,2.282,3.911c0.808,0.437,2.902,0.676,2.719,1.434c-0.182,0.759-3.03,0.874-4.183,0.039
					C169.952,298.781,168.018,295.09,168.018,295.09z"/>
				<path style="fill:#FFBAA5;" d="M165.51,295.633c0,0,0.309-0.846,0.958-1.022c0.65-0.175,1.263,0.322,1.263,0.322
					s1.235,3.404,1.988,3.866c0.753,0.461,2.751,0.803,2.537,1.519c-0.214,0.716-2.955,0.673-4.018-0.187
					C167.175,299.27,165.51,295.633,165.51,295.633z"/>
				<path style="fill:#FFBAA5;" d="M163.638,295.454c0,0,0.384-0.78,1.029-0.88c0.645-0.1,1.187,0.441,1.187,0.441
					s0.849,3.396,1.53,3.918c0.681,0.521,2.576,1.058,2.297,1.723c-0.279,0.665-2.922,0.338-3.862-0.6
					C164.878,299.118,163.638,295.454,163.638,295.454z"/>
			</g>
		</g>
		<path style="fill:#8A91C5;" d="M162.032,237.988c2.34-9.368,3.298-19.059,2.828-28.704c-0.031-0.641-1.031-0.644-1,0
			c0.466,9.56-0.473,19.152-2.793,28.438c-0.004,0.016,0.001,0.028-0.002,0.043c-0.081,0.105-0.123,0.243-0.086,0.409
			c1.475,6.622,2.325,13.366,2.543,20.147c0.021,0.642,1.021,0.645,1,0c-0.219-6.805-1.072-13.581-2.54-20.229
			C162,238.058,162.022,238.03,162.032,237.988z"/>
		<path style="fill:#8A91C5;" d="M161.719,254.884c-2.874,1.862-6.142,3.068-9.545,3.477c-0.631,0.076-0.639,1.077,0,1
			c3.583-0.43,7.018-1.649,10.05-3.613C162.762,255.399,162.261,254.533,161.719,254.884z"/>
		<path style="fill:#8A91C5;" d="M217.276,252.606c-2.381,2.663-5.252,4.828-8.466,6.388c-0.579,0.281-0.072,1.144,0.505,0.864
			c3.282-1.593,6.236-3.826,8.668-6.545C218.411,252.834,217.706,252.125,217.276,252.606z"/>
		<path style="fill:#8A91C5;" d="M203.995,226.023c1.023-1.533,1.882-3.24,1.697-5.135c-0.062-0.635-1.062-0.641-1,0
			c0.344,3.532-3.08,6.097-4.359,9.106c-0.865,2.034-0.654,4.161-0.347,6.292c0.362,2.508,0.728,5.015,1.093,7.522
			c0.419,2.881,0.837,5.763,1.256,8.644c0.092,0.634,1.056,0.365,0.964-0.266c-0.729-5.022-1.459-10.043-2.188-15.065
			c-0.32-2.204-0.776-4.511,0.098-6.647C201.873,228.849,203.029,227.472,203.995,226.023z"/>
		<path style="fill:#8A91C5;" d="M202.646,270.78c-8.89,3.358-18.417,4.908-27.914,4.535c-2.7-0.106-5.392-0.369-8.061-0.786
			c-0.63-0.098-0.901,0.865-0.266,0.964c9.52,1.487,19.301,1.058,28.651-1.285c2.665-0.668,5.286-1.494,7.856-2.464
			C203.508,271.519,203.25,270.552,202.646,270.78z"/>
		<path style="fill:#B37A92;" d="M159.469,286.072c-2.205,1.374-4.41,2.749-6.615,4.123c-0.545,0.34-0.044,1.205,0.505,0.863
			c2.205-1.374,4.41-2.749,6.615-4.123C160.519,286.596,160.018,285.73,159.469,286.072z"/>
		<path style="fill:#B37A92;" d="M206.536,291.476c-2.633-4.378-5.265-8.756-7.898-13.133c-0.331-0.551-1.196-0.049-0.863,0.505
			c2.633,4.378,5.265,8.755,7.898,13.133C206.004,292.532,206.869,292.029,206.536,291.476z"/>
		<path style="fill:#B37A92;" d="M186.103,288.348c-2,2.083-4,4.167-6,6.25c-0.446,0.464,0.26,1.173,0.707,0.707
			c2-2.083,4-4.167,6-6.25C187.256,288.59,186.55,287.882,186.103,288.348z"/>
	</g>
	<g>
		<path style="fill:#FF6391;" d="M544.127,141.978c-5.545-5.545-14.528-5.545-20.073,0l-2.187,2.198l-2.198-2.198
			c-5.545-5.545-14.539-5.545-20.073,0c-2.773,2.773-4.159,6.402-4.159,10.031c0,3.641,1.386,7.27,4.159,10.042l4.7,4.7
			l10.932,10.933c0.019,0.019,0.038,0.038,0.057,0.057c3.6,3.56,9.551,3.56,13.151,0c0.019-0.019,0.038-0.038,0.057-0.057
			l10.932-10.933l4.7-4.7c2.773-2.772,4.159-6.402,4.159-10.042C548.286,148.38,546.899,144.751,544.127,141.978z"/>
		<g>
			<polygon style="fill:#FFF5FF;" points="533.045,155.933 525.745,155.933 525.745,148.633 518.366,148.633 518.366,155.933 
				511.066,155.933 511.066,163.312 518.366,163.312 518.366,170.612 525.745,170.612 525.745,163.312 533.045,163.312 			"/>
		</g>
	</g>
	<g>
		<path style="fill:#FF6391;" d="M250.327,197.034c-5.545-5.545-14.528-5.545-20.073,0l-2.187,2.198l-2.198-2.198
			c-5.545-5.545-14.539-5.545-20.073,0c-2.773,2.773-4.159,6.402-4.159,10.031c0,3.64,1.386,7.27,4.159,10.042l4.7,4.7
			l10.932,10.932c0.019,0.019,0.038,0.038,0.057,0.057c3.6,3.56,9.551,3.56,13.151,0c0.019-0.019,0.038-0.038,0.057-0.057
			l10.932-10.932l4.7-4.7c2.773-2.773,4.159-6.402,4.159-10.042C254.486,203.436,253.1,199.807,250.327,197.034z"/>
		<g>
			<polygon style="fill:#FFF5FF;" points="239.245,210.989 231.945,210.989 231.945,203.689 224.566,203.689 224.566,210.989 
				217.266,210.989 217.266,218.368 224.566,218.368 224.566,225.668 231.945,225.668 231.945,218.368 239.245,218.368 			"/>
		</g>
	</g>
	<path style="fill:none;stroke:#FF6391;stroke-width:2;stroke-miterlimit:10;" d="M408.305,333.932
		c-0.538,21.232-1.294,44.706,13.705,61.619c14.1,15.899,36.437,23.624,57.184,17.955c43.34-11.843,41.845-65.366,43.138-101.856
		c1.557-43.954-2.297-87.909-0.497-131.863"/>
	<path style="fill:none;stroke:#FF6391;stroke-width:2.0754;stroke-miterlimit:10;" d="M227.281,230.233
		c-0.304,46.045-7.117,90.956,0.64,136.682c4.764,28.082,26.979,60.111,58.565,58.385c50.695-2.769,51.131-65.789,55.207-102.349"/>
	<path style="fill:none;stroke:#FF6391;stroke-width:2.0754;stroke-miterlimit:10;" d="M411.404,547.851c0.34,0,0.681,0,1.021,0"/>
</g>
</svg>
