<?xml version="1.0" encoding="utf-8"?>
<!-- Generator: Adobe Illustrator 27.5.0, SVG Export Plug-In . SVG Version: 6.00 Build 0)  -->
<svg version="1.1" xmlns="http://www.w3.org/2000/svg" xmlns:xlink="http://www.w3.org/1999/xlink" x="0px" y="0px"
	 viewBox="0 0 600 500" style="enable-background:new 0 0 600 500;" xml:space="preserve">
<g id="BACKGROUND">
	<g id="XMLID_63_">
		<rect id="XMLID_64_" x="-1.186" y="-1.695" style="fill:none;" width="600" height="500"/>
	</g>
</g>
<g id="OBJECTS">
	<g id="XMLID_4_">
		<g id="XMLID_27_" style="opacity:0.7;">
			<rect id="XMLID_58_" x="165.561" y="74.519" style="fill:#EFEFEF;" width="307.698" height="213.872"/>
			<rect id="XMLID_57_" x="174.148" y="82.137" style="fill:#FFFFFF;" width="290.755" height="197.995"/>
			<polygon id="XMLID_56_" style="fill:#F4F4F4;" points="311.582,280.131 283.209,280.131 208.195,82.137 236.568,82.137 			"/>
			<polygon id="XMLID_55_" style="fill:#F4F4F4;" points="448.61,280.131 420.237,280.131 345.224,82.137 373.597,82.137 			"/>
			<polygon id="XMLID_54_" style="fill:#F4F4F4;" points="345.224,280.131 331.037,280.131 256.024,82.137 270.21,82.137 			"/>
			
				<rect id="XMLID_43_" x="314.019" y="-21.675" transform="matrix(-1.836970e-16 1 -1 -1.836970e-16 445.0625 -192.2704)" style="fill:#EFEFEF;" width="9.295" height="296.141"/>
			<rect id="XMLID_28_" x="314.878" y="82.137" style="fill:#EFEFEF;" width="9.295" height="198.112"/>
		</g>
		<g id="XMLID_334_">
			<g id="XMLID_287_">
				<g id="XMLID_261_">
					<path id="XMLID_268_" style="fill:#DBDBDD;" d="M468.831,380.644c-0.155,0-0.311-0.013-0.468-0.039l-285.797-48.741
						c-1.507-0.257-2.522-1.689-2.264-3.196c0.258-1.507,1.685-2.512,3.195-2.265l285.796,48.741
						c1.508,0.257,2.522,1.689,2.265,3.195C471.328,379.69,470.156,380.644,468.831,380.644z"/>
				</g>
				<g id="XMLID_259_">
					<path id="XMLID_267_" style="fill:#DBDBDD;" d="M183.028,380.644c-1.325,0-2.496-0.954-2.727-2.304
						c-0.257-1.507,0.757-2.938,2.264-3.195l285.797-48.741c1.505-0.247,2.938,0.758,3.196,2.265
						c0.256,1.507-0.757,2.938-2.265,3.196l-285.796,48.741C183.339,380.631,183.182,380.644,183.028,380.644z"/>
				</g>
				<path id="XMLID_1_" style="fill:#EAEAEA;" d="M533.225,333.012H142.627c-1.992,0-3.606-1.614-3.606-3.606v-0.542
					c0-1.992,1.615-3.606,3.606-3.606h390.599c1.992,0,3.606,1.614,3.606,3.606v0.542
					C536.831,331.397,535.217,333.012,533.225,333.012z"/>
				<path id="XMLID_260_" style="fill:#EAEAEA;" d="M533.225,381.753H142.627c-1.992,0-3.606-1.615-3.606-3.606v-0.542
					c0-1.992,1.615-3.606,3.606-3.606h390.599c1.992,0,3.606,1.614,3.606,3.606v0.542
					C536.831,380.138,535.217,381.753,533.225,381.753z"/>
				<path id="XMLID_262_" style="fill:#DBDBDD;" d="M521.912,298.188H255.689c-1.765,0-3.487-0.546-4.93-1.562l-88.521-62.366
					c-3.636-2.561-8.66-1.691-11.221,1.945l-8.588,12.19c-2.561,3.636-1.691,8.659,1.945,11.221l90.954,64.079
					c1.443,1.017,3.165,1.562,4.93,1.562h281.654c3.04,0,5.504-2.464,5.504-5.504v-16.062
					C527.415,300.652,524.951,298.188,521.912,298.188z"/>
				<g id="XMLID_274_">
					<g id="XMLID_273_">
						<rect id="XMLID_266_" x="200.478" y="381.753" style="fill:#DBDBDD;" width="6.369" height="45.21"/>
						
							<ellipse id="XMLID_271_" transform="matrix(0.7071 -0.7071 0.7071 0.7071 -242.0226 268.9686)" style="fill:#EAEAEA;" cx="203.662" cy="426.631" rx="8.992" ry="8.992"/>
						<path id="XMLID_272_" style="fill:#DBDBDD;" d="M207.909,426.631c0,2.345-1.901,4.246-4.246,4.246
							c-2.345,0-4.246-1.901-4.246-4.246c0-2.345,1.901-4.246,4.246-4.246C206.008,422.385,207.909,424.286,207.909,426.631z"/>
					</g>
					<g id="XMLID_275_">
						<rect id="XMLID_278_" x="450.225" y="381.753" style="fill:#DBDBDD;" width="6.369" height="45.21"/>
						
							<ellipse id="XMLID_277_" transform="matrix(0.2203 -0.9754 0.9754 0.2203 -62.6104 774.9388)" style="fill:#EAEAEA;" cx="453.409" cy="426.631" rx="8.992" ry="8.992"/>
						<path id="XMLID_276_" style="fill:#DBDBDD;" d="M457.656,426.631c0,2.345-1.901,4.246-4.246,4.246
							c-2.345,0-4.246-1.901-4.246-4.246c0-2.345,1.901-4.246,4.246-4.246C455.754,422.385,457.656,424.286,457.656,426.631z"/>
					</g>
				</g>
				<g id="XMLID_280_">
					<path id="XMLID_283_" style="fill:#EAEAEA;" d="M243.77,331.859c-0.441,0-0.886-0.131-1.274-0.405l-99.397-70.028
						c-1-0.704-1.24-2.087-0.535-3.087c0.704-1,2.086-1.241,3.087-0.534l99.397,70.028c1,0.704,1.24,2.087,0.535,3.087
						C245.152,331.533,244.467,331.859,243.77,331.859z"/>
				</g>
				<g id="XMLID_281_">
					
						<rect id="XMLID_282_" x="146.07" y="305.163" transform="matrix(0.5508 -0.8346 0.8346 0.5508 -180.7478 281.1426)" style="fill:#EAEAEA;" width="49.477" height="6.646"/>
				</g>
				<g id="XMLID_298_">
					<circle id="XMLID_290_" style="fill:#DBDBDD;" cx="182.988" cy="377.875" r="2.518"/>
					<path id="XMLID_299_" style="fill:#DBDBDD;" d="M185.506,329.135c0,1.391-1.127,2.518-2.518,2.518
						c-1.391,0-2.518-1.127-2.518-2.518c0-1.391,1.127-2.518,2.518-2.518C184.379,326.617,185.506,327.744,185.506,329.135z"/>
					<path id="XMLID_304_" style="fill:#DBDBDD;" d="M471.598,377.875c0,1.391-1.127,2.518-2.518,2.518
						c-1.391,0-2.518-1.127-2.518-2.518c0-1.391,1.127-2.518,2.518-2.518C470.47,375.357,471.598,376.485,471.598,377.875z"/>
				</g>
			</g>
			<g id="XMLID_339_">
				<path id="XMLID_286_" style="fill:#F99C95;" d="M465.996,282.64c0,0,6.826,0.349,8.235,0.285
					c1.409-0.064,4.894-8.226,7.712-10.724c2.818-2.498,2.838-6.283,4.651-6.089c2.039,0.218,2.464,2.695,2.144,4.872
					c-0.32,2.177-2.754,9.607-3.266,13.834c-0.512,4.227-0.648,7.288-1.126,9.504c-0.406,1.879-1.651,3.9-4.901,3.882
					c-3.352-0.019-4.745-1.89-6.603-2.594c-1.857-0.705-8.134-0.742-8.134-0.742L465.996,282.64z"/>
				<path id="XMLID_403_" style="fill:#FFADA2;" d="M198.375,242.358c0,0-2.318,7.346-0.576,8.627
					c6.768,4.977,15.857,14.596,15.857,14.596s5.592,0.948,9.712-3.535c5.992-6.519,0.603-12.57,0.603-12.57
					s-4.138-0.63-8.838-3.657c-1.585-1.026-3.252-2.324-4.834-3.982c-0.023-0.018-0.047-0.036-0.057-0.052
					c-0.353-0.393-0.648-0.734-0.867-1.059L198.375,242.358z"/>
				<path id="XMLID_399_" style="fill:#EA8F8F;" d="M201.634,244.172c0,0,4.272,2.472,13.499,1.647
					c-1.585-1.026-3.252-2.324-4.834-3.982c-0.023-0.018-0.047-0.036-0.057-0.052l-4.487,1.95L201.634,244.172z"/>
				<path id="XMLID_520_" style="fill:#FFADA2;" d="M203.039,255.284c0,0-8.041-10.109-1.002-10.229
					c5.482-0.093,11.325-2.652,13.974-6.062c3.245-4.176,1.133-8.31-0.37-10.656c-2.69-4.197-6.105-7.856-10.058-11.619
					c-4.5-4.284-20.191-5.053-26.421,4.618c-5.811,9.022-1.496,27.35,20.166,32.531C200.214,254.08,202.055,254.546,203.039,255.284
					z"/>
				<path id="XMLID_510_" style="fill:#49A5F7;" d="M204.989,215.815c-4.317,6.305-5.79,13.569-8.665,17.68
					c-7.284,10.385-11.714,13.033-11.714,13.033s-0.649,0.423-1.782-0.536c-4.338-3.658-15.145-15.743-3.565-28.662
					c4.121-4.605,9.942-5.914,14.651-6.079c0.721-0.021,1.411-0.021,2.071,0c0.216-0.556,0.433-1.072,1.278-0.876
					c3.029,0.67,5.945,2.637,7.346,3.668C205.689,214.826,204.989,215.815,204.989,215.815z"/>
				<path id="XMLID_401_" style="fill:#3796DD;" d="M195.984,211.251c0,0-1.916,3.627-3.07,8.912
					c-1.123,5.11-5.996,12.703-6.305,13.177c0.247-0.474,4.173-8.036,5.048-12.147c0.824-3.895,1.566-8.067,2.256-9.942
					C194.634,211.23,195.325,211.23,195.984,211.251z"/>
				<path id="XMLID_289_" style="fill:#49A5F7;" d="M304.783,258.808c-0.956-0.721-2.73-1.121-3.886-1.236
					c-24.188-2.406-34.249-2.683-39.802-3.314c-4.759-6.304-10.502-9.808-15.699-8.791c-5.028,0.989-21.43,4.008-21.43,4.008
					s0.154,10.334-14.414,11.931c0,0-0.423,4.121,3.049,8.335l38.285,26.973c0,0,1.375,0.923,2.648,1.195
					c4.356,0.931,12.724,0.299,12.724,0.299l0-0.001h30.176c2.034,0,5.531-0.699,6.428-1.227c2.955-1.741,6.346-2.375,8.826-5.923
					C317.81,282.296,307.184,268.241,304.783,258.808z"/>
				<path id="XMLID_464_" style="fill:#FFADA2;" d="M194.932,235.023c-1.248-0.694-4.624-1.652-5.633,0.942
					c-2.762,7.098,8.731,7.93,9.865,4.865C200.147,238.169,196.501,235.896,194.932,235.023z"/>
				<path id="XMLID_331_" style="fill:#09085F;" d="M217.24,298.34"/>
				<path id="XMLID_388_" style="fill:#DD768C;" d="M288.057,284.423c0,0,0.007,0.011,0.026,0.015
					c-0.007-0.011-0.015-0.022-0.015-0.022L288.057,284.423z"/>
				<path id="XMLID_332_" style="fill:#F1C9D6;" d="M253.54,279.956"/>
				<path id="XMLID_387_" style="fill:#13213A;" d="M302.863,296.979c0,0,3.879,1.227,13.12,1.227h18.023
					c0,0,37.873-0.99,55.106-4.123c23.252,3.216,79.402,1.36,79.402,1.36l1.66-12.574c-20.459-3.243-77.462-15.932-81.988-16.621
					c-25.487-3.88-50.959-8.28-67.951-7.983C301.052,278.274,302.863,296.979,302.863,296.979z"/>
				<path id="XMLID_340_" style="fill:#FFADA2;" d="M454.388,279.132c0,0,3.264,1.058,6.981,1.924
					c1.374,0.32,10.191-5.445,13.682-6.858c3.491-1.412,4.775-4.974,6.419-4.185c1.848,0.887,1.422,3.363,0.392,5.309
					c-1.03,1.945-5.806,8.134-7.702,11.947c-1.896,3.813-4.255,6.605-5.446,8.533c-1.01,1.636-2.86,3.124-5.916,2.021
					c-3.153-1.138-3.487-2.95-5.002-4.234c-1.515-1.285-8.08-3.188-8.08-3.188L454.388,279.132z"/>
				<path id="XMLID_284_" style="fill:#1C2C4E;" d="M302.863,296.979c0,0,3.219,1.016,8.813,1.227c1.306,0.053,2.744,0.066,4.301,0
					c0.409-0.013,0.871-0.013,1.372,0h18.72c0.158-0.026,0.317-0.053,0.462-0.079c13.839-2.717,27.889-9.736,41.899-14.868
					c35.277,5.66,69.74,11.175,69.74,11.175l6.699-15.377c0,0-63.919-24.201-74.249-24.544c-22.981-0.792-75.837,4.296-75.837,4.296
					s-0.594,4.431-1.538,15.249C302.078,287.425,302.863,296.979,302.863,296.979z"/>
				<path id="XMLID_414_" style="fill:#13213A;" d="M311.676,298.206c1.306,0.053,2.744,0.066,4.301,0H311.676z"/>
				<path id="XMLID_305_" style="fill:#1C2C4E;" d="M518.966,298.186l-185.739,0.021c0,0-5.285-0.453-16.103,2.771
					c-10.818,3.215-24.85,9.88-36.451,9.788c-7.624-0.072-12.363-3.606-14.414-12.559c-2.308-10.056,2.102-27.158,9.272-38.811
					c9.118-14.826,31.115-4.966,43.952-3.802c23.985,2.184,45.508-6.697,62.507-3.431c17,3.266,64.866,19.441,74.912,21.636
					c10.045,2.195,24.768-13.548,31.928-10.128c2.923,1.391,4.359,4.882,6.814,8.133c8.604,11.396,22.261,20.797,23.291,22.6
					C519.863,296.033,519.121,297.846,518.966,298.186z"/>
			</g>
			<path id="XMLID_297_" style="fill:#EAEAEA;" d="M162.239,234.26c0,0,5.946-3.218,15.54,0.71
				c10.512,4.303,11.448,10.913,17.257,14.617c4.536,2.892,6.116,1.865,10.367,7.212c3.5,4.402,4.133,10.784,4.133,10.784
				L162.239,234.26z"/>
			<g id="XMLID_333_">
				<path id="XMLID_296_" style="fill:#FFADA2;" d="M242.686,270.193c0,0,10.646,5.828,17.086,10.131c0,0,6.819,0.888,17.558,2.49
					c10.739,1.602,30.393,7.469,35.416,8.113c5.023,0.644,9.917-1.546,11.848-1.288c1.932,0.258,8.629,1.803,10.818,4.121
					c2.189,2.318,1.421,3.282-2.185,4.441h-31.042c0,0-22.344,0.655-33.613,0.004c-4.126-0.238-8.939-1.172-13.265-2.835
					c-8.591-3.303-19.939-10.42-19.939-10.42L242.686,270.193z"/>
				<path id="XMLID_303_" style="fill:#49A5F7;" d="M247.003,272.707c-3.173,8.005-8.598,12.17-10.463,13.901l-23.938-16.868
					c-3.297-3.651,5.116-7.982,5.116-7.982C230.452,257.122,239.276,265.217,247.003,272.707z"/>
			</g>
			<g id="XMLID_288_">
				<path id="XMLID_265_" style="fill:#EAEAEA;" d="M463.178,276.526H308.895c-5.558,0-10.081,4.522-10.081,10.081v44.709
					c0,5.558,4.522,10.08,10.081,10.08h154.284c5.558,0,10.08-4.522,10.08-10.08v-44.709
					C473.258,281.047,468.737,276.526,463.178,276.526z M413.73,284.166v21.585c0,1.773-1.437,3.21-3.21,3.21h-48.968
					c-1.772,0-3.209-1.437-3.209-3.21v-21.585c0-1.772,1.437-3.209,3.209-3.209h48.968
					C412.293,280.957,413.73,282.393,413.73,284.166z M303.245,305.751v-19.144c0-3.12,2.53-5.65,5.65-5.65h39.961
					c1.773,0,3.209,1.437,3.209,3.209v21.585c0,1.773-1.437,3.21-3.209,3.21h-42.402
					C304.682,308.961,303.245,307.524,303.245,305.751z M465.618,308.961h-42.402c-1.773,0-3.21-1.437-3.21-3.21v-21.585
					c0-1.772,1.437-3.209,3.21-3.209h39.962c3.12,0,5.649,2.529,5.649,5.649v19.145
					C468.828,307.524,467.391,308.961,465.618,308.961z"/>
				<path id="XMLID_279_" style="fill:#DBDBDD;" d="M467.111,317.204H304.962c-0.948,0-1.717-0.769-1.717-1.717v-0.258
					c0-0.948,0.769-1.717,1.717-1.717h162.148c0.948,0,1.717,0.769,1.717,1.717v0.258
					C468.828,316.436,468.059,317.204,467.111,317.204z"/>
			</g>
		</g>
		<g id="XMLID_381_">
			<path id="XMLID_409_" style="fill:#283770;" d="M446.171,414.521c0,0-5.158,2.422-13.441,4.573c0,0-0.729,3.761-2.451,5.835
				c-0.564,0.695-2.208,2.074-4.046,3.758l-0.001-0.001c0,0-8.309,2.525-8.309,6.937h13.253l21.263-10.802
				C452.441,424.821,451.851,418.143,446.171,414.521z"/>
			<path id="XMLID_408_" style="fill:#283770;" d="M339.577,435.62h34.416c0,0,2.487-6.023-1.425-11.705
				c0,0-5.186,0.281-13.309-1.189c0,0-2.413,3.045-4.754,4.171C352.151,428.034,338.669,430.682,339.577,435.62z"/>
			<path id="XMLID_509_" style="fill:#FFADA2;" d="M359.253,422.72c6.446,1.603,11.111,1.441,13.313,1.198
				c0.272-1.581,0.569-3.453,0.884-5.523c-6.321-0.119-11.552-0.917-14.128-1.389C359.293,419.213,359.27,421.142,359.253,422.72z"
				/>
			<path id="XMLID_405_" style="fill:#ABE0FF;" d="M394.557,300.779l-1.257-20.961l-2.169-28.382c-4.04,0.15-7.9,0.299-11.042,0.434
				c-9.755,0.404-14.692-0.494-14.692-0.494c0,0.006-5.932,61.036-6.119,86.789c0,0-2.125,55.534-3.34,78.842
				c2.379,0.437,11.847,1.448,18.834,1.448c1.628-10.705,12.527-65.453,6.874-78.686c0.658-1.9,2.169-6.179,2.169-6.239
				C387.405,323.236,391.939,310.04,394.557,300.779z"/>
			<path id="XMLID_406_" style="fill:#78CBF4;" d="M383.815,333.53c3.591-10.294,8.124-23.49,10.742-32.751l-4.07-19.33
				C390.488,281.448,387.69,311.536,383.815,333.53z"/>
			<path id="XMLID_469_" style="fill:#FFADA2;" d="M446.172,414.521c-0.536-1.614-1.203-3.641-1.949-5.927
				c-7.515,3.681-12.111,4.701-14.151,4.977c0.933,1.911,1.827,3.762,2.66,5.523C440.783,417.528,444.302,415.551,446.172,414.521z"
				/>
			<path id="XMLID_467_" style="fill:#ABE0FF;" d="M437.666,380.644c-3.805-13.868-8.32-31.12-15.064-39.249
				c1.641-12.616,2.114-32.565,2.729-44.841c0.408-8.981-0.163-30.368-10.915-46.128c0,0-13.332,0.762-25.232,1.502v27.892
				c0,0,7.87,60.732,8.747,66.238c0.181,1.095,0.669,4.042,2.137,7.449c4.53,10.516,16.359,40.415,27.088,62.987
				c1.819-0.247,11.48-3.491,18.18-6.773C442.329,400.509,439.563,387.569,437.666,380.644z"/>
			<path id="XMLID_404_" style="fill:#FFADA2;" d="M353.894,190.993c-1.671,4.488-3.495,9.818-4.18,11.556
				c-8.049-7.348-17.729-14.176-20.572-18.266c-0.822-1.182-1.294-4.21-1.765-5.48c-0.311-1.422-0.86-3.274-1.721-4.092
				c-1.492-1.417-5.194-5.213-5.803-5.157c-0.304,0.028-0.562,0.564-0.545,1.383c-1.23-1.472-2.641-3.116-4.741-5.359
				c-2.039-2.177-2.862-1.794-3.112-1.532c-1.043,1.088,1.189,3.752,1.306,3.888l2.865,3.888c0,0-1.514,0.155-3.168,1.933
				c-0.529,0.568-1.852,2.493-1.852,2.493c-0.387,0.603-0.464,1.347-0.199,2.012c0.276,0.694,0.778,1.722,1.685,3.151
				c1.975,3.112,7.753,5.36,7.76,5.363c0.957,0.801,1.943,1.784,1.946,1.787c3.608,4.94,24.038,36.365,29.968,36.369
				c4.617,0.003,12.26-8.112,19.199-23.469C367.181,200.025,360.466,194.982,353.894,190.993z"/>
			<path id="XMLID_402_" style="fill:#ABE0FF;" d="M350.675,198.204c0,0,1.107,1.389,6.224,3.379
				c1.032,0.419,2.139,0.823,3.322,1.182c0.958,0.314,1.96,0.583,3.007,0.823l0.419,0.105c1.541,0.344,3.157,0.583,4.848,0.628
				l-0.15-17.505l-0.642-23.057C367.702,163.759,361.46,167.533,350.675,198.204z"/>
			<path id="XMLID_514_" style="fill:#78CBF4;" d="M368.497,204.317c-1.69-0.041-3.307-0.278-4.853-0.628l-0.412-0.103
				c-0.134-0.031-0.258-0.062-0.392-0.093c2.534-11.92,3.585-21.234,3.668-21.986c0.01-0.031,0.01-0.051,0.01-0.051l1.824,5.357
				L368.497,204.317z"/>
			<path id="XMLID_400_" style="fill:#ABE0FF;" d="M419.794,244.63c0.685,4.274,2.983,20.863,2.983,20.863s-1.75,0.495-3.092,0.907
				c-4.11,1.274-19.874,4.223-39.364,2.307c-15.631-1.537-17.451-4.156-17.451-4.156c0.288-2.206,0.658-6.891,1.069-12.7
				c-0.082-0.658,0-1.398,0.151-2.206c1.233-18.084,2.631-44.758,2.645-44.937c-0.439-20.92-1.891-38.004,0.055-40.1
				c3.137-3.384,11.358-6.055,24.66-5.658c4.617,0.151,12.111,1.26,18.769,3.069c0,0,0.041,0.028,0.082,0.041
				c0.644,0.205,4.987,1.822,9.48,6.631c1.507,1.603,3.041,3.562,4.439,5.946c-0.315,7.48-1.932,20.907-2.85,32.524
				c-0.123,1.48-2.014,8.33-2.672,11.439C418.698,218.599,419.109,240.355,419.794,244.63z"/>
			<path id="XMLID_383_" style="fill:#78CBF4;" d="M422.777,265.493c-7.034,2.599-14.338,3.802-21.803,4.339
				c-9.044,0.651-18.3,0.233-27.221-1.429c-2.166-0.404-4.327-0.889-6.42-1.583c-1.463-0.484-3.442-1.04-4.463-2.27
				c0.938,0.918,2.61,1.27,3.841,1.585c1.875,0.48,3.797,0.787,5.711,1.06c4.305,0.614,8.662,0.963,13.005,1.168
				c8.786,0.415,17.613,0.188,26.351-0.85C415.512,267.069,419.113,266.298,422.777,265.493z"/>
			<path id="XMLID_515_" style="fill:#78CBF4;" d="M421.371,207.161c-0.072,0.845-0.711,3.421-1.37,6.058
				c-7.624-1.144-10.21-2.102-10.21-2.102c-0.577-0.051-1.69-0.433-2.493-0.824c-1.216-9.932-1.02-20.987-1.02-20.987l8.119,2.411
				L421.371,207.161z"/>
			<g id="XMLID_390_">
				<path id="XMLID_397_" style="fill:#192139;" d="M373.804,121.397c0,0-1.639,9.987,2.675,12.432
					c3.581,2.029,3.596-3.908,3.596-3.908l0.211-5.8L373.804,121.397z"/>
				<path id="XMLID_396_" style="fill:#FFADA2;" d="M386.709,167.936c-9.741-0.767-2.658-9.028-2.658-9.028s0.247-1.165,0.548-3.014
					c0.274-1.686,0.589-3.959,0.767-6.453c0.014-0.178,0.027-0.37,0.041-0.548l5.63-2.808l8.796-6.905
					c0,0-1.466,13.878,1.343,20.811C402.71,161.607,397.847,168.813,386.709,167.936z"/>
				<path id="XMLID_395_" style="fill:#FF8189;" d="M396.326,146.276c0,0-3.427,7.496-11.727,9.618
					c0.274-1.686,0.589-3.959,0.767-6.453l5.672-3.356L396.326,146.276z"/>
				<path id="XMLID_394_" style="fill:#FFADA2;" d="M376.336,122.394c0,0-3.83,24.924,2.639,27.957c0,0,9.246,4.336,16.543-3.146
					c2.102-2.155,3.674-4.759,4.798-7.552c1.825-4.536,4.673-12.974,3.227-18.483C401.483,113.324,379.06,104.327,376.336,122.394z"
					/>
				<path id="XMLID_393_" style="fill:#192139;" d="M407.231,117.969c-1.717-2.833-5.059-3.778-7.592-3.177
					c-0.107-3.391-2.927-5.24-4.744-5.967c-23.929-9.573-27.91,4.036-26.401,8.629c1.295,3.941,4.224,5.744,6.712,6.567
					c1.921,0.636,3.985,0.782,5.98,0.44c0.717-0.123,1.435-0.317,1.969-0.624c1.439,0.564,2.944,0.611,4.37,0.465
					c0.417,0.685,1.098,1.292,2.197,1.509c0.217,2.74,0.105,5.814,1.893,7.808c1.252,1.395,3.704,1.76,6.258,1.679
					c0.229,0.626,0.423,1.337,0.55,2.171c0.427,2.785,1.046,7.125,1.027,9.764l1.079-0.257c2.492-0.518,1.733-4.027,3.408-8.753
					C405.905,132.673,409.892,122.361,407.231,117.969z"/>
				<path id="XMLID_392_" style="fill:#2C3C59;" d="M329.252,219.323l18.528,43.567c0.272,0.638,0.999,0.949,1.647,0.703
					l31.111-11.8c0.686-0.26,1.018-1.039,0.731-1.714l-3.978-9.356l-4.279-10.084l-0.239-0.568c-0.015-0.015-0.015-0.045-0.03-0.06
					l-2.469-5.805l-7.519-17.694c-0.271-0.638-0.999-0.949-1.647-0.703l-31.125,11.8
					C329.297,217.869,328.965,218.648,329.252,219.323z"/>
			</g>
			<path id="XMLID_384_" style="fill:#FFADA2;" d="M394.676,140.242c4.557,2.487,7.647-9.138,3.155-10.275
				c-3.407-0.863-4.197,3.945-4.197,3.945S392.073,138.822,394.676,140.242z"/>
			<path id="XMLID_513_" style="fill:#FFADA2;" d="M386.898,236.915c-4.461,0.835-9.468,3.956-10.941,4.368
				c-3.761,1.051-7.057-0.216-7.088-0.299c-1.463-0.474-3.379-1.102-4.121-1.36c-1.442-0.495-1.411-1.329-0.124-1.69
				c-0.628-0.206-1.164-0.381-1.484-0.494c-1.339-0.464-1.391-1.216-0.361-1.607c-0.495-0.144-0.907-0.268-1.144-0.35
				c-1.69-0.587-1.36-1.648,0.68-1.834c0.855-0.082,2.874,0.062,4.636,0.216c-1.411-0.453-3.122-1.01-3.812-1.247
				c-1.69-0.587-1.36-1.659,0.67-1.844c1.69-0.155,6.439,0.495,6.439,0.495c0.62-0.129,1.545-0.687,2.263-1.804l-1.228-2.887
				c1.954-0.322,4.435,0.26,4.868,0.456c0.896,0.392,1.288,1.03,2.493,1.597c1.473,0.701,3.111,0.546,4.028,0.371
				c2.504-0.556,10.427-3.822,19.246-7.768c4.142-1.844,8.366-3.925,11.91-5.028c-0.526-1.813-0.526-1.999-0.979-3.997
				c-0.969-4.101-1.793-8.294-2.38-11.549c-0.608-3.369-0.968-5.677-0.968-5.677l18.761-7.779c0,0,0.474,3.256,1.092,7.871
				c0.443,3.348,0.958,7.397,1.453,11.457v0.021c0.732,6.058,1.422,12.065,1.628,15.671c0.229,1.989-3.799,6.694-13.007,9.141
				C406.073,234.914,386.898,236.915,386.898,236.915z"/>
			<path id="XMLID_382_" style="fill:#ABE0FF;" d="M429.292,188.196c-0.026-0.107-0.061-0.206-0.089-0.313
				c-0.947-4.162-1.97-7.983-2.882-11.136c-1.758-6.074-6.264-10.981-12.149-13.295c-0.359-0.141-0.688-0.268-0.988-0.382
				c-0.615-0.238-1.156-0.434-1.607-0.592c-0.016-0.006-0.034-0.012-0.034-0.012l0,0c-0.76-0.265-1.239-0.412-1.239-0.412
				l3.919,10.099l0.621,2.243l-8.763,10.128c0,7.473,2.119,22.144,2.119,22.144c3.591,1.52,8.686,1.23,13.167,0.485
				c5.37-0.922,10.654-2.68,10.654-2.68S431.218,196.011,429.292,188.196z"/>
		</g>
		<g id="XMLID_313_">
			<path id="XMLID_20_" style="fill:#C6C6C6;" d="M123.252,425.079h3.224V100.35c0-0.89-0.722-1.612-1.612-1.612l0,0
				c-0.89,0-1.612,0.722-1.612,1.612V425.079z"/>
			<g id="XMLID_300_">
				<path id="XMLID_24_" style="fill:#C6C6C6;" d="M104.195,116.682h41.34c5.523,0,10-4.477,10-10v-6.914
					c0-0.569-0.461-1.03-1.03-1.03l0,0c-0.569,0-1.03,0.461-1.03,1.03v6.914c0,4.385-3.555,7.939-7.939,7.939h-41.34
					c-4.385,0-7.939-3.555-7.939-7.939v-6.914c0-0.569-0.461-1.03-1.03-1.03l0,0c-0.569,0-1.03,0.461-1.03,1.03v6.914
					C94.195,112.204,98.672,116.682,104.195,116.682z"/>
			</g>
			<path id="XMLID_23_" style="fill:#C6C6C6;" d="M118.769,425.079h12.192v-11.548c0-2.561-2.076-4.636-4.636-4.636h-2.919
				c-2.561,0-4.636,2.076-4.636,4.636V425.079z"/>
			<path id="XMLID_306_" style="fill:none;stroke:#C6C6C6;stroke-width:2.0606;stroke-miterlimit:10;" d="M105.184,435.624v-5.857
				c0-2.589,2.099-4.688,4.688-4.688h14.993h14.993c2.589,0,4.688,2.099,4.688,4.688v5.857"/>
			<g id="XMLID_285_">
				<path id="XMLID_311_" style="fill:#EAEAEA;" d="M140.608,170.514h10.445c0.82,0,1.486-0.665,1.486-1.486v-1.777h-13.417v1.777
					C139.122,169.848,139.787,170.514,140.608,170.514z"/>
				<path id="XMLID_301_" style="fill:#EAEAEA;" d="M132.088,167.251h27.486c1.472,0,2.665-1.193,2.665-2.665v-42.749
					c0-1.472-1.193-2.665-2.665-2.665h-27.486c-1.472,0-2.665,1.193-2.665,2.665v42.749
					C129.423,166.058,130.616,167.251,132.088,167.251z"/>
				<path id="XMLID_302_" style="fill:#FC846D;" d="M132.913,165.152h25.796c0.665,0,1.204-0.539,1.204-1.204v-25.287
					c0,0-3.252-1.61-11.591-1.288c-4.163,0.161-16.613,1.288-16.613,1.288v25.287C131.709,164.613,132.248,165.152,132.913,165.152z
					"/>
				<path id="XMLID_309_" style="fill:#F99285;" d="M157.706,143.834c0,0-0.107,5.847-5.731,9.916
					c-8.811,6.375-18.309,3.136-18.094,0.837c0.146-1.567,1.198-0.365,6.027-3.713c4.83-3.348,3.686-6.461,8.204-10.26
					C152.684,136.77,158.415,139.52,157.706,143.834z"/>
			</g>
			<path id="XMLID_308_" style="fill:#DBDBDD;" d="M145.779,111.809L145.779,111.809c1.156,0,2.093,0.937,2.093,2.093v6.428h-4.186
				v-6.428C143.686,112.746,144.623,111.809,145.779,111.809z"/>
			<path id="XMLID_312_" style="fill:#C6C6C6;" d="M144.67,174.85h2.32c0.402,0,0.729-0.326,0.729-0.729v-3.607h-3.778v3.607
				C143.942,174.523,144.268,174.85,144.67,174.85z"/>
			<path id="XMLID_9_" style="fill:none;stroke:#C1C1D1;stroke-linecap:round;stroke-miterlimit:10;" d="M103.956,174.216
				c0,0-3.403,18.089-1.889,33.964c1.515,15.875,8.916,34,9.153,40.125"/>
			<path id="XMLID_26_" style="fill:none;stroke:#C1C1D1;stroke-linecap:round;stroke-miterlimit:10;" d="M111.219,295.555
				c0,0,1.862,9.25-1.388,26.75"/>
			<g id="XMLID_19_">
				<path id="XMLID_42_" style="fill:#EAEAEA;" d="M98.733,170.514h10.445c0.821,0,1.486-0.665,1.486-1.486v-1.777H97.247v1.777
					C97.247,169.848,97.912,170.514,98.733,170.514z"/>
				<path id="XMLID_40_" style="fill:#EAEAEA;" d="M90.213,167.251h27.486c1.472,0,2.665-1.193,2.665-2.665v-42.749
					c0-1.472-1.193-2.665-2.665-2.665H90.213c-1.472,0-2.665,1.193-2.665,2.665v42.749
					C87.548,166.058,88.741,167.251,90.213,167.251z"/>
				<path id="XMLID_22_" style="fill:#C1C1D1;" d="M91.038,165.152h25.796c0.665,0,1.204-0.539,1.204-1.204v-25.287
					c0,0-3.252-1.61-11.591-1.288c-4.163,0.161-16.613,1.288-16.613,1.288v25.287C89.834,164.613,90.373,165.152,91.038,165.152z"/>
				<path id="XMLID_21_" style="fill:#CECED8;" d="M115.831,143.834c0,0-0.107,5.847-5.731,9.916
					c-8.811,6.375-18.309,3.136-18.094,0.837c0.146-1.567,1.198-0.365,6.027-3.713c4.829-3.348,3.686-6.461,8.203-10.26
					C110.809,136.77,116.54,139.52,115.831,143.834z"/>
			</g>
			<path id="XMLID_18_" style="fill:#DBDBDD;" d="M103.904,111.809L103.904,111.809c1.156,0,2.093,0.937,2.093,2.093v6.428h-4.185
				v-6.428C101.811,112.746,102.748,111.809,103.904,111.809z"/>
			<path id="XMLID_12_" style="fill:#C6C6C6;" d="M102.795,174.85h2.32c0.402,0,0.729-0.326,0.729-0.729v-3.607h-3.778v3.607
				C102.067,174.523,102.393,174.85,102.795,174.85z"/>
			<path id="XMLID_538_" style="fill:none;stroke:#FC846D;stroke-width:1.0303;stroke-linecap:round;stroke-miterlimit:10;" d="
				M145.831,174.216c0,0,5.417,17.172-1.889,43.819c-14.983,54.644-10.055,118.428,30.133,123.36
				c41.057,5.039,62.945-51.006,109.457-53.3"/>
			<path id="XMLID_540_" style="fill:#FFFFFF;" d="M279.1,285.154c0,0,2.759,1.46,5.056,5.817c1.872,3.552,4.408,2.631,4.131,0.901
				c-0.439-2.747-1.758-5.203-4.422-6.718C281.201,283.639,277.597,283.587,279.1,285.154z"/>
			<g id="XMLID_537_">
				<path id="XMLID_314_" style="fill:#C6C6C6;" d="M143.672,290.389h-37.615c-4.263,0-7.718-3.456-7.718-7.718v-21.632
					c0-4.263,3.456-7.718,7.718-7.718h37.615c4.263,0,7.718,3.456,7.718,7.718v21.632
					C151.39,286.933,147.934,290.389,143.672,290.389z"/>
				<path id="XMLID_389_" style="fill:#EAEAEA;" d="M145.327,271.854h-40.926c-1.264,0-2.289-1.025-2.289-2.289v-10.821
					c0-1.264,1.025-2.289,2.289-2.289h40.926c1.264,0,2.289,1.025,2.289,2.289v10.821
					C147.616,270.83,146.592,271.854,145.327,271.854z"/>
				<g id="XMLID_398_">
					<path id="XMLID_391_" style="fill:#EAEAEA;" d="M108.116,276.798c0,1.229-0.997,2.226-2.226,2.226
						c-1.229,0-2.226-0.996-2.226-2.226c0-1.229,0.997-2.226,2.226-2.226C107.119,274.572,108.116,275.569,108.116,276.798z"/>
					<path id="XMLID_407_" style="fill:#EAEAEA;" d="M115.671,276.798c0,1.229-0.997,2.226-2.226,2.226
						c-1.229,0-2.226-0.996-2.226-2.226c0-1.229,0.997-2.226,2.226-2.226C114.675,274.572,115.671,275.569,115.671,276.798z"/>
					<path id="XMLID_468_" style="fill:#EAEAEA;" d="M123.227,276.798c0,1.229-0.997,2.226-2.226,2.226
						c-1.229,0-2.226-0.996-2.226-2.226c0-1.229,0.997-2.226,2.226-2.226C122.23,274.572,123.227,275.569,123.227,276.798z"/>
					<path id="XMLID_511_" style="fill:#EAEAEA;" d="M130.782,276.798c0,1.229-0.997,2.226-2.226,2.226
						c-1.229,0-2.226-0.996-2.226-2.226c0-1.229,0.997-2.226,2.226-2.226C129.786,274.572,130.782,275.569,130.782,276.798z"/>
					<circle id="XMLID_518_" style="fill:#EAEAEA;" cx="136.112" cy="276.798" r="2.226"/>
					<circle id="XMLID_524_" style="fill:#EAEAEA;" cx="143.667" cy="276.798" r="2.226"/>
				</g>
				<g id="XMLID_527_">
					<path id="XMLID_533_" style="fill:#EAEAEA;" d="M108.116,283.781c0,1.229-0.997,2.226-2.226,2.226
						c-1.229,0-2.226-0.997-2.226-2.226c0-1.229,0.997-2.226,2.226-2.226C107.119,281.556,108.116,282.552,108.116,283.781z"/>
					<path id="XMLID_532_" style="fill:#EAEAEA;" d="M115.671,283.781c0,1.229-0.997,2.226-2.226,2.226
						c-1.229,0-2.226-0.997-2.226-2.226c0-1.229,0.997-2.226,2.226-2.226C114.675,281.556,115.671,282.552,115.671,283.781z"/>
					<path id="XMLID_531_" style="fill:#EAEAEA;" d="M123.227,283.781c0,1.229-0.997,2.226-2.226,2.226
						c-1.229,0-2.226-0.997-2.226-2.226c0-1.229,0.997-2.226,2.226-2.226C122.23,281.556,123.227,282.552,123.227,283.781z"/>
					<path id="XMLID_530_" style="fill:#EAEAEA;" d="M130.782,283.781c0,1.229-0.997,2.226-2.226,2.226
						c-1.229,0-2.226-0.997-2.226-2.226c0-1.229,0.997-2.226,2.226-2.226C129.786,281.556,130.782,282.552,130.782,283.781z"/>
					<path id="XMLID_529_" style="fill:#EAEAEA;" d="M138.337,283.781c0,1.229-0.996,2.226-2.226,2.226
						c-1.229,0-2.226-0.997-2.226-2.226c0-1.229,0.997-2.226,2.226-2.226C137.341,281.556,138.337,282.552,138.337,283.781z"/>
					<path id="XMLID_528_" style="fill:#EAEAEA;" d="M145.893,283.781c0,1.229-0.997,2.226-2.226,2.226
						c-1.229,0-2.226-0.997-2.226-2.226c0-1.229,0.997-2.226,2.226-2.226C144.896,281.556,145.893,282.552,145.893,283.781z"/>
				</g>
				<g id="XMLID_534_">
					<path id="XMLID_526_" style="fill:#EAEAEA;" d="M128.264,253.32h-6.799v-11.812c0-0.588,0.476-1.064,1.064-1.064h4.671
						c0.588,0,1.064,0.476,1.064,1.064V253.32z"/>
					<path id="XMLID_535_" style="fill:#EAEAEA;" d="M121.465,290.389h6.799v11.812c0,0.587-0.476,1.064-1.064,1.064h-4.671
						c-0.588,0-1.064-0.476-1.064-1.064V290.389z"/>
					<path id="XMLID_539_" style="fill:#EAEAEA;" d="M113.446,253.32h-4.452v-5.467c0-0.536,0.435-0.971,0.971-0.971h2.509
						c0.536,0,0.971,0.435,0.971,0.971V253.32z"/>
				</g>
				<path id="XMLID_541_" style="fill:#EAEAEA;" d="M108.994,290.389h4.452v5.467c0,0.536-0.435,0.971-0.971,0.971h-2.509
					c-0.536,0-0.971-0.435-0.971-0.971V290.389z"/>
			</g>
		</g>
		<g id="XMLID_7_">
			
				<path id="XMLID_17_" style="fill:none;stroke:#C6C6C6;stroke-width:1.0303;stroke-linecap:round;stroke-linejoin:round;stroke-miterlimit:10;" d="
				M97.187,351.535c15.454,3.309,31.545,2.282,47.124-0.376c7.287-1.243,14.563-2.854,21.373-5.732
				c18.487-7.814,32.106-24.493,40.308-42.811c6.89-15.388,10.441-32.26,10.339-49.119c-0.038-6.351-0.609-12.794-2.848-18.738
				c-1.253-3.327-2.372-7.311-0.217-10.139"/>
			
				<rect id="XMLID_16_" x="97.147" y="292.707" transform="matrix(0.7071 -0.7071 0.7071 0.7071 -180.7307 156.1939)" style="fill:#C6C6C6;" width="2.06" height="7.103"/>
			
				<rect id="XMLID_15_" x="103.812" y="301.329" transform="matrix(0.7071 -0.7071 0.7071 0.7071 -183.4881 162.8521)" style="fill:#C6C6C6;" width="2.06" height="3.187"/>
			
				<rect id="XMLID_14_" x="108.279" y="306.158" transform="matrix(0.7071 -0.7071 0.7071 0.7071 -185.3414 167.3252)" style="fill:#C6C6C6;" width="2.06" height="2.463"/>
			<path id="XMLID_3_" style="fill:#EAEAEA;" d="M66.665,435.62V280.051c0-1.797,1.456-3.253,3.253-3.253h5.406
				c1.823,0,3.57,0.724,4.859,2.013l32.386,32.386c1.325,1.325,2.069,3.122,2.069,4.995v119.432L66.665,435.62z"/>
			<path id="XMLID_2_" style="fill:#DDDDDD;" d="M90.651,415.31L90.651,415.31c-7.086,0-12.83-5.744-12.83-12.83v-56.638
				c0-7.086,5.744-12.83,12.83-12.83l0,0c7.086,0,12.83,5.744,12.83,12.83v56.638C103.481,409.565,97.737,415.31,90.651,415.31z"/>
		</g>
		<g id="XMLID_13_">
			<path id="XMLID_10_" style="fill:#232230;" d="M548.097,437.814H51.903c-0.605,0-1.095-0.49-1.095-1.095
				c0-0.605,0.49-1.095,1.095-1.095h496.195c0.605,0,1.095,0.49,1.095,1.095C549.193,437.324,548.703,437.814,548.097,437.814z"/>
			<path id="XMLID_8_" style="fill:#232230;" d="M459.363,446.209H330.415c-0.605,0-1.095-0.49-1.095-1.095
				c0-0.605,0.49-1.095,1.095-1.095h128.949c0.605,0,1.095,0.49,1.095,1.095C460.458,445.719,459.968,446.209,459.363,446.209z"/>
			<path id="XMLID_5_" style="fill:#232230;" d="M469.498,446.209h-3.458c-0.605,0-1.095-0.49-1.095-1.095
				c0-0.605,0.49-1.095,1.095-1.095h3.458c0.605,0,1.095,0.49,1.095,1.095C470.593,445.719,470.103,446.209,469.498,446.209z"/>
		</g>
	</g>
</g>
</svg>
